<svg width="54" height="14" viewBox="0 0 54 14" fill="none" xmlns="http://www.w3.org/2000/svg">
<g opacity="0.2">
<path d="M2.53802 1.76147C5.43106 1.76147 7.77664 4.10666 7.7767 6.99969C7.7767 9.89277 5.4311 12.2384 2.53802 12.2384C1.64067 12.2383 0.796579 12.0119 0.0585611 11.6138C-0.064486 11.5474 0.0252261 11.3597 0.162618 11.3856C0.429513 11.4358 0.70478 11.4622 0.986253 11.4622C3.45069 11.4622 5.44835 9.46413 5.44835 6.99969C5.4483 4.53527 3.45066 2.53764 0.986253 2.53759C0.704702 2.53759 0.429333 2.56391 0.16234 2.61403C0.0249316 2.63983 -0.0648206 2.45193 0.0582431 2.38559C0.796361 1.98767 1.64064 1.76151 2.53802 1.76147Z" fill="#C2C3C3"/>
<path d="M26.4716 0.269907C26.5157 -0.0899674 27.0375 -0.0899698 27.0816 0.269905L27.374 2.65583C27.6144 4.61694 29.1597 6.16221 31.1208 6.40257L33.5067 6.69499C33.8666 6.7391 33.8666 7.2609 33.5067 7.30501L31.1208 7.59743C29.1597 7.83779 27.6144 9.38306 27.374 11.3442L27.0816 13.7301C27.0375 14.09 26.5157 14.09 26.4716 13.7301L26.1792 11.3442C25.9388 9.38306 24.3936 7.83779 22.4324 7.59743L20.0465 7.30501C19.6866 7.2609 19.6866 6.7391 20.0465 6.69499L22.4324 6.40257C24.3936 6.16221 25.9388 4.61694 26.1792 2.65584L26.4716 0.269907Z" fill="#C2C3C3"/>
<path d="M51.0154 1.76147C48.1224 1.76147 45.7768 4.10666 45.7768 6.99969C45.7768 9.89277 48.1224 12.2384 51.0154 12.2384C51.9128 12.2383 52.7569 12.0119 53.4949 11.6138C53.618 11.5474 53.5282 11.3597 53.3908 11.3856C53.124 11.4358 52.8487 11.4622 52.5672 11.4622C50.1028 11.4622 48.1051 9.46413 48.1051 6.99969C48.1052 4.53527 50.1028 2.53764 52.5672 2.53759C52.8488 2.53759 53.1241 2.56391 53.3911 2.61403C53.5285 2.63983 53.6183 2.45193 53.4952 2.38559C52.7571 1.98767 51.9128 1.76151 51.0154 1.76147Z" fill="#C2C3C3"/>
</g>
</svg>
