<svg width="1024" height="1024" viewBox="0 0 1024 1024" fill="none" xmlns="http://www.w3.org/2000/svg">
<g clip-path="url(#clip0_2035_35999)">
<mask id="mask0_2035_35999" style="mask-type:alpha" maskUnits="userSpaceOnUse" x="-260" y="-260" width="1544" height="1544">
<circle cx="512" cy="512" r="771.161" fill="url(#paint0_radial_2035_35999)"/>
</mask>
<g mask="url(#mask0_2035_35999)">
<g opacity="0.25">
<path d="M584.337 -338.65L-332.329 578.016" stroke="white" stroke-width="9.48148"/>
<path d="M612.176 -310.811L-304.49 605.855" stroke="white" stroke-width="9.48148"/>
<path d="M640.015 -282.971L-276.651 633.694" stroke="white" stroke-width="9.48148"/>
<path d="M667.854 -255.132L-248.811 661.533" stroke="white" stroke-width="9.48148"/>
<path d="M695.693 -227.293L-220.972 689.372" stroke="white" stroke-width="9.48148"/>
<path d="M723.533 -199.454L-193.133 717.212" stroke="white" stroke-width="9.48148"/>
<path d="M751.372 -171.615L-165.294 745.051" stroke="white" stroke-width="9.48148"/>
<path d="M779.21 -143.776L-137.455 772.89" stroke="white" stroke-width="9.48148"/>
<path d="M807.05 -115.937L-109.616 800.729" stroke="white" stroke-width="9.48148"/>
<path d="M834.889 -88.0974L-81.777 828.568" stroke="white" stroke-width="9.48148"/>
<path d="M862.728 -60.2582L-53.9377 856.407" stroke="white" stroke-width="9.48148"/>
<path d="M890.567 -32.4191L-26.0983 884.247" stroke="white" stroke-width="9.48148"/>
<path d="M918.406 -4.58002L1.74054 912.086" stroke="white" stroke-width="9.48148"/>
<path d="M946.246 23.2591L29.5799 939.925" stroke="white" stroke-width="9.48148"/>
<path d="M974.085 51.0982L57.4192 967.764" stroke="white" stroke-width="9.48148"/>
<path d="M1001.92 78.9373L85.2581 995.603" stroke="white" stroke-width="9.48148"/>
<path d="M1029.76 106.777L113.097 1023.44" stroke="white" stroke-width="9.48148"/>
<path d="M1057.6 134.616L140.936 1051.28" stroke="white" stroke-width="9.48148"/>
<path d="M1085.44 162.455L168.776 1079.12" stroke="white" stroke-width="9.48148"/>
<path d="M1113.28 190.294L196.615 1106.96" stroke="white" stroke-width="9.48148"/>
<path d="M1141.12 218.133L224.454 1134.8" stroke="white" stroke-width="9.48148"/>
<path d="M1168.96 245.972L252.293 1162.64" stroke="white" stroke-width="9.48148"/>
<path d="M1196.8 273.811L280.132 1190.48" stroke="white" stroke-width="9.48148"/>
<path d="M1224.64 301.651L307.971 1218.32" stroke="white" stroke-width="9.48148"/>
<path d="M1252.48 329.49L335.81 1246.16" stroke="white" stroke-width="9.48148"/>
<path d="M1280.32 357.329L363.65 1273.99" stroke="white" stroke-width="9.48148"/>
<path d="M1308.15 385.168L391.489 1301.83" stroke="white" stroke-width="9.48148"/>
<path d="M1335.99 413.007L419.328 1329.67" stroke="white" stroke-width="9.48148"/>
<path d="M1363.83 440.846L447.167 1357.51" stroke="white" stroke-width="9.48148"/>
</g>
</g>
<g opacity="0.35">
<path d="M1024 0.00012207L0.000522852 1024" stroke="white" stroke-width="7.90123"/>
<path d="M513.185 -214.747V1230.06" stroke="white" stroke-width="7.90123"/>
<path d="M189.63 -213.333V1231.47" stroke="white" stroke-width="7.90123"/>
<path d="M1235.19 187.488L-209.611 187.488" stroke="white" stroke-width="7.90123"/>
<path d="M837.531 -213.333V1231.47" stroke="white" stroke-width="7.90123"/>
<path d="M1235.19 834.37L-209.611 834.37" stroke="white" stroke-width="7.90123"/>
<path d="M1235.59 507.654L-209.216 507.655" stroke="white" stroke-width="7.90123"/>
<path d="M0 0L1024 1024" stroke="white" stroke-width="7.90123"/>
<circle cx="512" cy="512" r="459.852" stroke="white" stroke-width="7.90123"/>
<circle cx="514.371" cy="512.79" r="320.79" stroke="white" stroke-width="7.90123"/>
</g>
<path d="M668.045 847.197C667.748 847.34 667.21 847.691 666.428 848.25C665.666 848.754 664.774 849.367 663.751 850.088C662.728 850.809 661.667 851.594 660.569 852.443C659.453 853.255 658.402 854.013 657.416 854.716C656.43 855.42 655.584 856.033 654.876 856.556C654.114 857.061 653.604 857.375 653.344 857.5C650.86 858.697 648.993 857.998 647.743 855.403C647.403 854.698 647.147 853.977 646.974 853.238C646.746 852.48 646.664 851.743 646.73 851.026C646.778 850.272 646.982 849.557 647.341 848.881C647.701 848.205 648.271 847.588 649.053 847.029C653.069 844.272 657.049 841.486 660.992 838.673C664.935 835.859 668.898 832.991 672.879 830.068C673.754 829.418 674.545 828.831 675.252 828.308C675.941 827.747 676.696 827.087 677.517 826.326C678.412 825.529 679.409 824.706 680.508 823.857C681.588 822.971 682.687 822.122 683.803 821.31C684.956 820.48 686.072 819.715 687.15 819.013C688.264 818.293 689.304 817.7 690.268 817.236C691.454 816.664 692.531 816.625 693.5 817.118C694.487 817.556 695.311 818.46 695.972 819.832C696.312 820.537 696.587 821.249 696.797 821.97C696.989 822.654 697.062 823.327 697.016 823.989C696.969 824.651 696.767 825.274 696.409 825.857C696.05 826.441 695.481 826.966 694.701 827.434C692.731 828.748 690.648 830.209 688.453 831.814C686.239 833.383 684.368 834.856 682.839 836.232C682.204 836.812 681.827 837.451 681.706 838.148C681.568 838.809 681.621 839.537 681.867 840.332C682.095 841.09 682.37 841.848 682.69 842.608C683.029 843.312 683.36 843.998 683.681 844.665C684.431 846.222 685.237 847.753 686.099 849.256C686.997 850.742 687.877 852.237 688.738 853.74C691.644 858.918 694.69 863.96 697.876 868.866C701.099 873.754 704.404 878.67 707.792 883.616C707.956 883.766 708.082 883.933 708.171 884.119C708.261 884.304 708.35 884.489 708.439 884.675C709.422 886.714 708.969 888.713 707.081 890.673L704.954 892.658C704.394 893.202 703.798 893.625 703.168 893.929C702.204 894.394 701.274 894.454 700.377 894.109C699.498 893.802 698.68 893.099 697.923 892.002C693.813 886.126 689.85 880.224 686.035 874.296C682.202 868.332 678.629 862.196 675.317 855.89C674.742 854.888 674.142 853.784 673.516 852.578C672.889 851.372 672.263 850.121 671.638 848.823C670.763 847.007 669.565 846.465 668.045 847.197ZM753.935 839.779C754.376 838.266 755.08 837.196 756.047 836.568C756.599 836.21 757.189 836.023 757.817 836.008C758.445 835.993 759.226 836.099 760.159 836.328C761.192 836.786 761.98 837.206 762.523 837.589C763.078 837.916 763.513 838.321 763.827 838.804C764.499 839.84 764.62 841.159 764.189 842.764C763.428 845.22 762.44 847.627 761.224 849.987C759.986 852.312 758.56 854.537 756.947 856.663C755.335 858.789 753.53 860.77 751.533 862.606C749.558 864.477 747.466 866.129 745.257 867.563C742.461 869.378 739.602 870.719 736.681 871.584C733.782 872.485 730.94 872.907 728.156 872.85C725.406 872.77 722.781 872.242 720.282 871.264C717.761 870.251 715.473 868.768 713.42 866.813C712.481 866.049 711.785 865.618 711.329 865.521C710.886 865.367 710.371 865.481 709.784 865.861C708.507 866.69 707.322 867.018 706.228 866.845C705.134 866.672 704.207 865.999 703.445 864.825C703.131 864.342 702.964 864.009 702.943 863.826L702.375 862.723C701.741 861.368 701.486 860.258 701.611 859.392C701.77 858.504 702.385 857.712 703.455 857.018L704.232 856.513C705.681 855.572 706.263 854.238 705.976 852.511C705.5 849.435 705.452 846.375 705.831 843.332C706.211 840.289 706.988 837.405 708.163 834.68C709.316 831.921 710.819 829.399 712.673 827.116C714.54 824.776 716.698 822.811 719.149 821.22C721.704 819.562 724.332 818.396 727.034 817.721C729.748 816.99 732.359 816.742 734.868 816.978C737.376 817.215 739.667 817.91 741.742 819.066C743.851 820.199 745.567 821.784 746.889 823.82C747.807 825.236 748.371 826.709 748.581 828.241C748.79 829.773 748.669 831.324 748.216 832.894C747.74 834.429 746.94 835.955 745.814 837.47C744.723 838.964 743.301 840.401 741.549 841.784L724.759 855.258C724.068 855.706 723.611 856.249 723.386 856.885C723.196 857.499 723.291 858.1 723.672 858.686C724.255 859.584 725.143 860.234 726.336 860.637C727.565 861.017 728.944 861.177 730.474 861.116C732.016 860.997 733.636 860.658 735.332 860.096C737.063 859.513 738.705 858.717 740.258 857.708C741.742 856.745 743.172 855.621 744.546 854.337C745.932 852.995 747.205 851.556 748.365 850.017C749.56 848.457 750.636 846.826 751.593 845.126C752.527 843.391 753.308 841.609 753.935 839.779ZM733.718 833.915C734.169 833.475 734.461 832.942 734.594 832.316C734.705 831.655 734.57 831.032 734.189 830.445C733.853 829.927 733.349 829.567 732.678 829.365C732.007 829.162 731.232 829.102 730.352 829.182C729.45 829.228 728.5 829.428 727.502 829.781C726.505 830.134 725.523 830.624 724.557 831.251C723.141 832.17 721.826 833.318 720.611 834.696C719.395 836.073 718.407 837.5 717.647 838.974C716.865 840.414 716.363 841.795 716.141 843.116C715.897 844.403 716.033 845.443 716.548 846.237C717.064 847.031 717.804 847.114 718.771 846.487C719.358 846.106 720.262 845.421 721.484 844.432C722.706 843.442 724.055 842.346 725.531 841.142C726.984 839.905 728.444 838.638 729.909 837.344C731.375 836.049 732.645 834.906 733.718 833.915ZM749.29 792.324C751.38 790.525 753.773 788.953 756.471 787.608C759.141 786.232 761.773 785.188 764.364 784.477C766.929 783.735 769.261 783.384 771.359 783.424C773.457 783.464 774.935 783.983 775.795 784.981C776.224 785.48 776.489 786.229 776.59 787.229C776.663 788.197 776.63 789.231 776.489 790.329C776.322 791.396 776.025 792.439 775.599 793.458C775.177 794.419 774.685 795.14 774.124 795.624C773.376 796.268 772.265 796.681 770.792 796.863C769.351 797.018 767.747 797.204 765.98 797.423C764.217 797.583 762.412 797.915 760.565 798.419C758.718 798.923 757.031 799.832 755.503 801.148C754.505 802.007 753.893 802.968 753.668 804.031C753.447 805.036 753.712 805.975 754.464 806.848C755.135 807.628 756.194 808.101 757.641 808.267C759.061 808.403 760.741 808.368 762.682 808.163C764.655 807.931 766.823 807.611 769.188 807.204C771.553 806.797 774.003 806.426 776.537 806.09C779.103 805.727 781.703 805.498 784.336 805.403C786.969 805.308 789.525 805.47 792.003 805.889C794.513 806.28 796.893 807.027 799.145 808.129C801.371 809.2 803.356 810.749 805.101 812.776C806.605 814.523 807.662 816.382 808.274 818.353C808.885 820.325 809.057 822.322 808.789 824.345C808.521 826.367 807.834 828.344 806.726 830.275C805.619 832.205 804.114 833.99 802.212 835.627C799.811 837.695 797.274 839.227 794.603 840.224C791.958 841.252 789.352 841.757 786.786 841.741C784.219 841.724 781.75 841.189 779.377 840.137C777.036 839.057 774.952 837.457 773.127 835.336C770.764 832.592 769.529 830.18 769.422 828.1C769.345 825.993 770.368 824.027 772.488 822.201C773.798 821.074 775.058 820.424 776.267 820.251C777.476 820.079 778.39 820.352 779.007 821.069C779.329 821.443 779.603 821.887 779.827 822.4C780.025 822.881 780.233 823.407 780.453 823.978C780.677 824.491 780.929 825.035 781.207 825.61C781.516 826.159 781.872 826.667 782.275 827.135C782.973 827.945 783.831 828.564 784.85 828.99C785.868 829.416 786.931 829.642 788.038 829.666C789.203 829.695 790.354 829.518 791.492 829.136C792.629 828.754 793.666 828.161 794.601 827.355C797.096 825.207 797.458 823.104 795.685 821.046C794.289 819.424 792.334 818.446 789.821 818.113C787.28 817.748 784.452 817.712 781.337 818.004C778.195 818.265 774.898 818.661 771.444 819.191C768.022 819.694 764.686 820.013 761.437 820.15C758.187 820.287 755.185 820.048 752.43 819.433C749.647 818.788 747.384 817.451 745.638 815.424C744.189 813.74 743.202 811.901 742.68 809.907C742.189 807.886 742.122 805.853 742.479 803.808C742.81 801.732 743.544 799.715 744.682 797.757C745.852 795.773 747.388 793.962 749.29 792.324ZM759.64 758.998C758.03 757.527 757.323 756.044 757.518 754.549C757.683 753.027 758.724 751.218 760.64 749.123C761.334 748.363 761.993 747.795 762.617 747.418C763.238 746.982 763.898 746.748 764.595 746.717C765.321 746.656 766.084 746.796 766.886 747.139C767.685 747.424 768.61 747.906 769.66 748.588C772.818 750.806 776.094 753.077 779.49 755.4C782.913 757.694 786.366 759.986 789.847 762.277C791.38 763.344 792.716 763.255 793.855 762.01C794.16 761.676 794.63 761.102 795.263 760.287C795.894 759.414 796.65 758.404 797.531 757.258C798.381 756.084 799.301 754.834 800.29 753.508C801.307 752.151 802.325 750.824 803.345 749.526C804.362 748.17 805.34 746.917 806.279 745.768C807.215 744.561 808.072 743.532 808.85 742.682C809.46 742.014 810.083 741.607 810.717 741.462C811.321 741.29 811.933 741.291 812.553 741.468C813.17 741.586 813.764 741.85 814.336 742.262C814.905 742.615 815.448 743.027 815.964 743.499C816.42 743.916 816.807 744.437 817.127 745.064C817.474 745.66 817.706 746.291 817.823 746.955C817.938 747.562 817.922 748.189 817.776 748.836C817.63 749.483 817.308 750.08 816.808 750.627C814.392 753.269 812.04 756.025 809.75 758.895C807.459 761.707 805.228 764.574 803.057 767.496C801.99 769.03 802.049 770.338 803.233 771.421C803.324 771.504 803.46 771.6 803.639 771.709C803.788 771.789 803.909 771.871 804 771.955C806.975 774.006 809.756 775.935 812.342 777.742C814.956 779.518 817.271 781.133 819.288 782.586C821.302 783.982 822.972 785.174 824.298 786.163C825.621 787.094 826.48 787.74 826.875 788.101C827.968 789.101 828.782 790.04 829.317 790.919C829.882 791.826 830.17 792.731 830.181 793.633C830.223 794.563 829.96 795.522 829.392 796.509C828.883 797.493 828.073 798.592 826.962 799.807C825.907 800.961 824.856 801.562 823.81 801.608C822.763 801.655 821.65 801.195 820.471 800.229C816.72 797.134 812.858 794.132 808.882 791.223C804.877 788.285 800.831 785.423 796.745 782.635C795.189 781.714 793.911 781.8 792.911 782.894C792.828 782.985 792.746 783.105 792.665 783.254C792.584 783.403 792.502 783.524 792.419 783.615C791.123 785.886 789.924 788.052 788.821 790.111C787.719 792.17 786.745 794.151 785.898 796.053C785.422 797.123 784.953 798.033 784.491 798.781C783.999 799.502 783.517 800.121 783.045 800.638C782.406 801.336 781.63 801.575 780.718 801.353C779.774 801.104 778.832 800.549 777.89 799.689C777.556 799.383 777.204 799.006 776.835 798.556C776.435 798.079 776.105 797.555 775.847 796.984C775.53 796.415 775.342 795.798 775.283 795.13C775.166 794.466 775.236 793.749 775.493 792.98C776.143 791.232 777.166 789.046 778.563 786.42C779.93 783.766 781.592 780.881 783.55 777.764C783.953 777.018 784.141 776.325 784.112 775.685C784.081 774.987 783.716 774.319 783.017 773.681C782.866 773.542 782.714 773.403 782.562 773.264C782.38 773.097 782.17 772.961 781.932 772.855C778.693 770.787 775.727 768.939 773.033 767.312C770.335 765.627 768.014 764.201 766.069 763.036C764.151 761.84 762.638 760.903 761.53 760.224C760.422 759.546 759.792 759.137 759.64 758.998ZM803.1 742.741C802.592 742.39 802.253 741.831 802.083 741.063C801.879 740.272 801.836 739.392 801.955 738.424C802.04 737.432 802.268 736.414 802.639 735.37C803 734.269 803.496 733.261 804.127 732.347C804.478 731.839 804.906 731.509 805.411 731.358C805.939 731.173 806.686 731.213 807.652 731.481C808.584 731.724 809.814 732.224 811.343 732.98C812.861 733.678 814.79 734.686 817.132 736.003C817.902 736.335 818.509 736.579 818.952 736.735C819.384 736.834 819.67 736.781 819.81 736.578C820.021 736.273 819.706 735.606 818.867 734.576C813.43 727.17 812.326 721.13 815.553 716.457C817.05 714.29 819.084 712.794 821.654 711.969C824.248 711.11 827.612 710.983 831.746 711.587C835.869 712.135 840.916 713.445 846.886 715.518C852.822 717.568 859.927 720.425 868.2 724.089C868.619 724.278 868.992 724.461 869.321 724.638C869.649 724.815 869.948 724.997 870.219 725.184C870.998 725.722 871.546 726.376 871.865 727.146C872.173 727.859 872.314 728.631 872.289 729.464C872.23 730.274 872.039 731.092 871.718 731.92C871.43 732.772 871.04 733.553 870.549 734.264C869.566 735.686 868.701 736.614 867.952 737.047C867.226 737.446 866.381 737.437 865.418 737.022C859.593 734.449 854.355 732.256 849.705 730.445C845.078 728.599 841.094 727.198 837.754 726.241C834.403 725.227 831.713 724.669 829.683 724.567C827.652 724.465 826.333 724.854 825.725 725.734C825.117 726.615 825.103 727.83 825.682 729.381C826.251 730.874 827.458 732.783 829.303 735.108C831.149 737.433 833.632 740.173 836.753 743.33C839.898 746.452 843.749 750.037 848.305 754.085C849.542 755.19 850.158 756.616 850.152 758.362C850.146 760.108 849.512 761.896 848.249 763.724C847.407 764.943 846.51 765.699 845.557 765.991C844.605 766.284 843.665 766.16 842.738 765.62C835.485 761.059 829.461 757.399 824.666 754.637C819.862 751.818 815.982 749.614 813.029 748.024C810.042 746.411 807.801 745.238 806.307 744.506C804.812 743.773 803.743 743.185 803.1 742.741ZM888.442 667.897C888.038 666.374 888.087 665.094 888.59 664.057C888.877 663.465 889.286 663 889.816 662.662C890.345 662.325 891.069 662.013 891.985 661.726C893.106 661.583 893.998 661.536 894.662 661.583C895.306 661.576 895.887 661.698 896.405 661.949C897.516 662.488 898.302 663.555 898.762 665.151C899.381 667.647 899.78 670.219 899.958 672.867C900.1 675.497 900.03 678.139 899.749 680.793C899.468 683.447 898.947 686.076 898.186 688.68C897.463 691.302 896.526 693.798 895.377 696.167C893.921 699.166 892.167 701.791 890.114 704.043C888.098 706.312 885.884 708.142 883.471 709.533C881.076 710.887 878.556 711.791 875.911 712.246C873.229 712.682 870.504 712.595 867.736 711.984C866.538 711.814 865.719 711.805 865.279 711.958C864.82 712.055 864.438 712.419 864.132 713.048C863.468 714.418 862.622 715.312 861.597 715.729C860.571 716.146 859.429 716.049 858.17 715.438C857.651 715.187 857.336 714.988 857.224 714.842L856.167 714.192C854.924 713.36 854.132 712.541 853.791 711.736C853.468 710.893 853.585 709.898 854.142 708.75L854.547 707.917C855.301 706.362 855.109 704.919 853.97 703.589C851.973 701.202 850.35 698.608 849.102 695.807C847.854 693.005 847.028 690.135 846.625 687.195C846.185 684.237 846.168 681.301 846.576 678.389C846.964 675.421 847.795 672.622 849.071 669.994C850.4 667.254 852.047 664.897 854.011 662.923C855.957 660.893 858.064 659.331 860.333 658.237C862.602 657.142 864.924 656.553 867.297 656.47C869.688 656.35 871.976 656.819 874.16 657.879C875.678 658.616 876.923 659.586 877.894 660.789C878.866 661.992 879.563 663.383 879.987 664.96C880.374 666.52 880.477 668.24 880.297 670.119C880.135 671.962 879.661 673.928 878.876 676.017L871.469 696.231C871.11 696.971 870.998 697.672 871.135 698.333C871.29 698.957 871.682 699.422 872.311 699.727C873.274 700.194 874.37 700.291 875.6 700.019C876.848 699.71 878.111 699.133 879.389 698.29C880.649 697.392 881.859 696.264 883.021 694.906C884.201 693.512 885.195 691.982 886.003 690.315C886.776 688.723 887.418 687.023 887.93 685.213C888.423 683.348 888.769 681.457 888.967 679.541C889.183 677.587 889.261 675.635 889.201 673.685C889.104 671.717 888.851 669.787 888.442 667.897ZM868.105 673.329C868.263 672.719 868.237 672.112 868.028 671.508C867.781 670.885 867.343 670.421 866.714 670.115C866.158 669.846 865.541 669.798 864.862 669.972C864.183 670.145 863.488 670.494 862.776 671.018C862.028 671.524 861.318 672.186 860.647 673.003C859.975 673.821 859.388 674.748 858.885 675.785C858.149 677.303 857.616 678.966 857.288 680.773C856.96 682.581 856.852 684.312 856.963 685.968C857.038 687.605 857.322 689.046 857.815 690.292C858.272 691.52 858.926 692.34 859.777 692.753C860.629 693.166 861.306 692.855 861.809 691.818C862.115 691.189 862.535 690.134 863.069 688.656C863.604 687.177 864.192 685.541 864.833 683.748C865.437 681.937 866.032 680.099 866.617 678.233C867.202 676.367 867.698 674.732 868.105 673.329ZM839.929 633.651C837.853 632.983 836.592 631.929 836.148 630.489C835.664 629.036 835.858 626.958 836.728 624.255C837.043 623.276 837.405 622.485 837.816 621.882C838.199 621.227 838.702 620.741 839.323 620.422C839.957 620.064 840.71 619.874 841.582 619.852C842.427 619.778 843.469 619.832 844.707 620.015C848.501 620.717 852.426 621.418 856.48 622.118C860.548 622.779 864.641 623.426 868.76 624.06C870.598 624.393 871.776 623.756 872.293 622.15C872.432 621.719 872.619 621.001 872.856 619.996C873.067 618.94 873.334 617.708 873.657 616.299C873.942 614.877 874.258 613.358 874.606 611.74C874.966 610.084 875.34 608.453 875.727 606.848C876.087 605.192 876.455 603.646 876.83 602.21C877.179 600.723 877.53 599.431 877.883 598.334C878.161 597.473 878.558 596.844 879.074 596.448C879.551 596.04 880.108 595.787 880.745 595.689C881.355 595.539 882.006 595.533 882.697 595.669C883.362 595.753 884.027 595.902 884.693 596.117C885.28 596.306 885.85 596.619 886.401 597.055C886.965 597.453 887.438 597.93 887.821 598.485C888.178 598.989 888.425 599.566 888.561 600.215C888.698 600.864 888.653 601.541 888.426 602.247C887.329 605.655 886.337 609.14 885.45 612.702C884.536 616.212 883.701 619.748 882.944 623.308C882.612 625.147 883.209 626.312 884.737 626.804C884.855 626.841 885.018 626.872 885.226 626.896C885.396 626.907 885.539 626.932 885.656 626.97C889.216 627.597 892.547 628.193 895.65 628.76C898.766 629.287 901.543 629.792 903.982 630.274C906.394 630.705 908.409 631.094 910.026 631.442C911.617 631.737 912.667 631.967 913.176 632.131C914.587 632.585 915.718 633.1 916.569 633.677C917.461 634.267 918.099 634.969 918.485 635.785C918.91 636.614 919.07 637.595 918.964 638.728C918.911 639.835 918.632 641.172 918.127 642.739C917.648 644.227 916.943 645.211 916.011 645.689C915.079 646.167 913.875 646.212 912.401 645.824C907.702 644.571 902.941 643.449 898.115 642.458C893.251 641.454 888.38 640.535 883.504 639.7C881.706 639.511 880.58 640.121 880.126 641.531C880.089 641.649 880.064 641.792 880.053 641.961C880.042 642.131 880.017 642.274 879.979 642.392C879.746 644.997 879.557 647.465 879.412 649.796C879.267 652.127 879.205 654.334 879.226 656.416C879.239 657.587 879.191 658.609 879.083 659.482C878.935 660.343 878.754 661.106 878.54 661.772C878.25 662.673 877.644 663.213 876.722 663.391C875.761 663.557 874.673 663.445 873.458 663.054C873.027 662.915 872.55 662.719 872.027 662.464C871.465 662.196 870.947 661.857 870.474 661.445C869.95 661.06 869.522 660.577 869.191 659.994C868.807 659.439 868.573 658.758 868.486 657.952C868.35 656.092 868.37 653.678 868.548 650.709C868.686 647.727 868.997 644.412 869.479 640.763C869.536 639.917 869.418 639.208 869.126 638.639C868.807 638.017 868.197 637.562 867.296 637.272C867.1 637.209 866.904 637.146 866.708 637.083C866.473 637.007 866.226 636.971 865.965 636.973C862.16 636.44 858.693 635.994 855.566 635.636C852.413 635.226 849.709 634.897 847.455 634.647C845.213 634.358 843.448 634.135 842.158 633.979C840.867 633.823 840.125 633.714 839.929 633.651Z" fill="white"/>
</g>
<defs>
<radialGradient id="paint0_radial_2035_35999" cx="0" cy="0" r="1" gradientUnits="userSpaceOnUse" gradientTransform="translate(512 512) rotate(90) scale(771.161)">
<stop offset="0.334422" stop-color="#D9D9D9"/>
<stop offset="0.76002" stop-color="#737373" stop-opacity="0"/>
</radialGradient>
<clipPath id="clip0_2035_35999">
<rect width="1024" height="1024" fill="white"/>
</clipPath>
</defs>
</svg>
