<svg width="24" height="24" viewBox="0 0 24 24" fill="none" xmlns="http://www.w3.org/2000/svg">
<path d="M10.9523 13.0479V16.0001C10.9523 16.297 11.053 16.5458 11.2545 16.7466C11.4562 16.9475 11.7047 17.0479 12 17.0479C12.2953 17.0479 12.5438 16.9475 12.7455 16.7466C12.947 16.5458 13.0478 16.297 13.0478 16.0001V13.0479H16C16.2968 13.0479 16.5457 12.9471 16.7465 12.7456C16.9473 12.544 17.0478 12.2955 17.0478 12.0001C17.0478 11.7048 16.9473 11.4563 16.7465 11.2546C16.5457 11.0531 16.2968 10.9524 16 10.9524H13.0478V8.00013C13.0478 7.70329 12.947 7.45446 12.7455 7.25363C12.5438 7.05279 12.2953 6.95238 12 6.95238C11.7047 6.95238 11.4562 7.05279 11.2545 7.25363C11.053 7.45446 10.9523 7.70329 10.9523 8.00013V10.9524H8C7.70317 10.9524 7.45434 11.0531 7.2535 11.2546C7.05267 11.4563 6.95225 11.7048 6.95225 12.0001C6.95225 12.2955 7.05267 12.544 7.2535 12.7456C7.45434 12.9471 7.70317 13.0479 8 13.0479H10.9523ZM12 22.2034C10.5848 22.2034 9.257 21.9357 8.0165 21.4004C6.77584 20.865 5.69667 20.1386 4.779 19.2211C3.8615 18.3035 3.13509 17.2243 2.59975 15.9836C2.06442 14.7431 1.79675 13.4153 1.79675 12.0001C1.79675 10.585 2.06442 9.25712 2.59975 8.01662C3.13509 6.77596 3.8615 5.69679 4.779 4.77912C5.69667 3.86162 6.77584 3.13521 8.0165 2.59987C9.257 2.06454 10.5848 1.79688 12 1.79688C13.4152 1.79688 14.743 2.06454 15.9835 2.59987C17.2242 3.13521 18.3033 3.86162 19.221 4.77912C20.1385 5.69679 20.8649 6.77596 21.4003 8.01662C21.9356 9.25712 22.2033 10.585 22.2033 12.0001C22.2033 13.4153 21.9356 14.7431 21.4003 15.9836C20.8649 17.2243 20.1385 18.3035 19.221 19.2211C18.3033 20.1386 17.2242 20.865 15.9835 21.4004C14.743 21.9357 13.4152 22.2034 12 22.2034ZM12 19.9284C14.2173 19.9284 16.0931 19.1614 17.6273 17.6274C19.1613 16.0932 19.9283 14.2175 19.9283 12.0001C19.9283 9.78279 19.1613 7.90704 17.6273 6.37287C16.0931 4.83887 14.2173 4.07188 12 4.07188C9.78267 4.07188 7.90692 4.83887 6.37275 6.37287C4.83875 7.90704 4.07175 9.78279 4.07175 12.0001C4.07175 14.2175 4.83875 16.0932 6.37275 17.6274C7.90692 19.1614 9.78267 19.9284 12 19.9284Z" fill="#E1E1E1"/>
</svg>
