<svg width="24" height="24" viewBox="0 0 24 24" fill="none" xmlns="http://www.w3.org/2000/svg">
<path d="M10.9731 13.0269V15.9203C10.9731 16.2112 11.0719 16.4551 11.2693 16.6519C11.467 16.8488 11.7105 16.9472 12 16.9472C12.2894 16.9472 12.533 16.8488 12.7306 16.6519C12.9281 16.4551 13.0269 16.2112 13.0269 15.9203V13.0269H15.9203C16.2112 13.0269 16.4551 12.9281 16.6519 12.7306C16.8488 12.533 16.9472 12.2894 16.9472 12C16.9472 11.7105 16.8488 11.467 16.6519 11.2693C16.4551 11.0719 16.2112 10.9731 15.9203 10.9731H13.0269V8.07968C13.0269 7.78876 12.9281 7.54488 12.7306 7.34805C12.533 7.15122 12.2894 7.0528 12 7.0528C11.7105 7.0528 11.467 7.15122 11.2693 7.34805C11.0719 7.54488 10.9731 7.78876 10.9731 8.07968V10.9731H8.07968C7.78876 10.9731 7.54488 11.0719 7.34805 11.2693C7.15122 11.467 7.0528 11.7105 7.0528 12C7.0528 12.2894 7.15122 12.533 7.34805 12.7306C7.54488 12.9281 7.78876 13.0269 8.07968 13.0269H10.9731ZM12 22C10.613 22 9.31164 21.7377 8.09585 21.213C6.8799 20.6883 5.82223 19.9764 4.92284 19.0772C4.02362 18.1778 3.31167 17.1201 2.787 15.9041C2.26233 14.6884 2 13.387 2 12C2 10.613 2.26233 9.31164 2.787 8.09585C3.31167 6.8799 4.02362 5.82223 4.92284 4.92284C5.82223 4.02362 6.8799 3.31167 8.09585 2.787C9.31164 2.26233 10.613 2 12 2C13.387 2 14.6884 2.26233 15.9041 2.787C17.1201 3.31167 18.1778 4.02362 19.0772 4.92284C19.9764 5.82223 20.6883 6.8799 21.213 8.09585C21.7377 9.31164 22 10.613 22 12C22 13.387 21.7377 14.6884 21.213 15.9041C20.6883 17.1201 19.9764 18.1778 19.0772 19.0772C18.1778 19.9764 17.1201 20.6883 15.9041 21.213C14.6884 21.7377 13.387 22 12 22ZM12 19.7703C14.1732 19.7703 16.0115 19.0186 17.5152 17.5152C19.0186 16.0115 19.7703 14.1732 19.7703 12C19.7703 9.82683 19.0186 7.98845 17.5152 6.48484C16.0115 4.9814 14.1732 4.22968 12 4.22968C9.82683 4.22968 7.98845 4.9814 6.48484 6.48484C4.9814 7.98845 4.22968 9.82683 4.22968 12C4.22968 14.1732 4.9814 16.0115 6.48484 17.5152C7.98845 19.0186 9.82683 19.7703 12 19.7703Z" fill="#E1E1E1"/>
</svg>
