<svg width="24" height="24" viewBox="0 0 24 24" fill="none" xmlns="http://www.w3.org/2000/svg">
<path d="M12.7615 12.0002L8.20442 7.44342C7.95148 7.19029 7.82501 6.87257 7.82501 6.49027C7.82501 6.10797 7.95148 5.79025 8.20442 5.53712C8.45755 5.28418 8.77527 5.15771 9.15757 5.15771C9.53987 5.15771 9.85758 5.28418 10.1107 5.53712L15.6134 11.0398C15.7474 11.174 15.8453 11.3229 15.9072 11.4866C15.9691 11.6501 16 11.8213 16 12.0002C16 12.179 15.9691 12.3502 15.9072 12.5137C15.8453 12.6774 15.7474 12.8263 15.6134 12.9605L10.1107 18.4632C9.85758 18.7161 9.53987 18.8426 9.15757 18.8426C8.77527 18.8426 8.45755 18.7161 8.20442 18.4632C7.95148 18.2101 7.82501 17.8923 7.82501 17.51C7.82501 17.1278 7.95148 16.81 8.20442 16.5569L12.7615 12.0002Z" fill="#E1E1E1"/>
</svg>
