<svg width="24" height="24" viewBox="0 0 24 24" fill="none" xmlns="http://www.w3.org/2000/svg">
<path d="M8.24902 16.9164L14.582 16.9164C16.5139 16.9164 18.0798 15.3502 18.0801 13.4184C18.0801 11.4863 16.5141 9.9194 14.582 9.91935L7.66992 9.91935L9.35547 11.6049C9.77498 12.0247 9.77502 12.7047 9.35547 13.1244C8.93566 13.5442 8.25477 13.5442 7.83496 13.1244L4.31543 9.6049C4.11383 9.4033 4 9.12927 4 8.84416C4.00012 8.55921 4.11393 8.28589 4.31543 8.08439L7.83496 4.56486C8.25478 4.14505 8.93566 4.14504 9.35547 4.56486C9.775 4.98462 9.775 5.66463 9.35547 6.08439L7.66992 7.76994L14.582 7.76994C17.7015 7.76999 20.2305 10.2989 20.2305 13.4184C20.2302 16.5376 17.7013 19.0658 14.582 19.0658L8.24902 19.0658C7.65543 19.0658 7.17402 18.5852 7.17383 17.9916C7.17383 17.3979 7.65532 16.9164 8.24902 16.9164Z" fill="#E1E1E1"/>
</svg>
