<svg width="24" height="24" viewBox="0 0 24 24" fill="none" xmlns="http://www.w3.org/2000/svg">
<mask id="mask0_107_2416" style="mask-type:alpha" maskUnits="userSpaceOnUse" x="0" y="0" width="24" height="24">
<rect width="24" height="24" fill="#D9D9D9"/>
</mask>
<g mask="url(#mask0_107_2416)">
<path d="M10.8625 15.8464V4.93438C10.8625 4.61521 10.9722 4.34579 11.1917 4.12612C11.4114 3.90662 11.6808 3.79688 12 3.79688C12.3191 3.79688 12.5886 3.90662 12.8082 4.12612C13.0277 4.34579 13.1375 4.61521 13.1375 4.93438V15.8464L17.8042 11.1794C18.0322 10.9515 18.2995 10.8408 18.606 10.8471C18.9125 10.8535 19.1796 10.9705 19.4075 11.1984C19.6188 11.4264 19.7276 11.6936 19.734 12.0001C19.7403 12.3066 19.6296 12.5739 19.4017 12.8019L12.8017 19.4019C12.6897 19.5137 12.5654 19.5955 12.4287 19.6471C12.2922 19.6988 12.1493 19.7246 12 19.7246C11.8506 19.7246 11.7077 19.6988 11.5712 19.6471C11.4346 19.5955 11.3102 19.5137 11.1982 19.4019L4.59247 12.7959C4.37714 12.5805 4.26947 12.3175 4.26947 12.0066C4.26947 11.6958 4.37714 11.4264 4.59247 11.1984C4.8203 10.9705 5.09064 10.8566 5.40347 10.8566C5.7163 10.8566 5.98672 10.9705 6.21472 11.1984L10.8625 15.8464Z" fill="#1C1B1F"/>
</g>
</svg>
