<svg width="24" height="24" viewBox="0 0 24 24" fill="none" xmlns="http://www.w3.org/2000/svg">
<path d="M16.3898 8.73456V15.9998C16.3898 16.319 16.4996 16.5884 16.7193 16.8081C16.9388 17.0276 17.2081 17.1373 17.5273 17.1373C17.8465 17.1373 18.1159 17.0276 18.3355 16.8081C18.555 16.5884 18.6648 16.319 18.6648 15.9998V5.9998C18.6648 5.68064 18.555 5.41122 18.3355 5.19155C18.1159 4.97205 17.8465 4.8623 17.5273 4.8623H7.5273C7.20813 4.8623 6.93879 4.97205 6.71929 5.19155C6.49963 5.41122 6.38979 5.68064 6.38979 5.9998C6.38979 6.31897 6.49963 6.58839 6.71929 6.80806C6.93879 7.02756 7.20813 7.1373 7.5273 7.1373H14.7925L6.12579 15.8041C5.91046 16.0194 5.80279 16.2846 5.80279 16.5998C5.80279 16.915 5.91046 17.1802 6.12579 17.3956C6.34096 17.6107 6.60713 17.7183 6.92429 17.7183C7.24146 17.7183 7.50771 17.6107 7.72304 17.3956L16.3898 8.73456Z" fill="#E1E1E1"/>
</svg>
