<svg width="24" height="24" viewBox="0 0 24 24" fill="none" xmlns="http://www.w3.org/2000/svg">
<mask id="mask0_107_2389" style="mask-type:alpha" maskUnits="userSpaceOnUse" x="0" y="0" width="24" height="24">
<rect width="24" height="24" fill="#D9D9D9"/>
</mask>
<g mask="url(#mask0_107_2389)">
<path d="M14.2838 12L7.02927 4.74576C6.75544 4.47176 6.62169 4.14501 6.62802 3.76551C6.63436 3.38601 6.77444 3.05926 7.04827 2.78526C7.32227 2.51143 7.65002 2.37451 8.03152 2.37451C8.41302 2.37451 8.74077 2.51143 9.01477 2.78526L16.6 10.3838C16.8279 10.6116 16.9978 10.8664 17.1098 11.1483C17.2218 11.4303 17.2778 11.7142 17.2778 12C17.2778 12.2858 17.2218 12.5698 17.1098 12.8518C16.9978 13.1336 16.8279 13.3884 16.6 13.6163L8.99577 21.2208C8.72177 21.4946 8.39819 21.6273 8.02502 21.619C7.65186 21.6107 7.32827 21.4696 7.05427 21.1958C6.78044 20.9218 6.64352 20.594 6.64352 20.2125C6.64352 19.831 6.78044 19.5033 7.05427 19.2293L14.2838 12Z" fill="#1C1B1F"/>
</g>
</svg>
