<svg width="24" height="24" viewBox="0 0 24 24" fill="none" xmlns="http://www.w3.org/2000/svg">
<path d="M10.8771 14.27V6.10116C10.8771 5.79519 10.9863 5.53521 11.2047 5.32121C11.4229 5.10707 11.688 5 12 5C12.312 5 12.5771 5.10707 12.7953 5.32121C13.0137 5.53521 13.1229 5.79519 13.1229 6.10116V14.27L16.1136 11.318C16.3247 11.1108 16.5863 11.0072 16.8983 11.0072C17.2103 11.0072 17.4719 11.1108 17.6831 11.318C17.8944 11.5251 18 11.7816 18 12.0876C18 12.3935 17.8944 12.6501 17.6831 12.8571L12.7968 17.6684C12.5714 17.8895 12.3058 18 12 18C11.6942 18 11.4286 17.8895 11.2032 17.6684L6.31695 12.8571C6.10565 12.6501 6 12.3935 6 12.0876C6 11.7816 6.10565 11.5251 6.31695 11.318C6.52811 11.1108 6.78969 11.0072 7.10169 11.0072C7.4137 11.0072 7.67528 11.1108 7.88644 11.318L10.8771 14.27Z" fill="#E1E1E1"/>
</svg>
