<svg width="24" height="24" viewBox="0 0 24 24" fill="none" xmlns="http://www.w3.org/2000/svg">
<path d="M12 2C13.3817 2 14.683 2.26219 15.9014 2.78794C17.1159 3.31204 18.1746 4.02429 19.0752 4.92484C19.9757 5.8254 20.688 6.88406 21.2121 8.09861C21.7378 9.31701 22 10.6183 22 12C22 13.3817 21.7378 14.683 21.2121 15.9014C20.688 17.1159 19.9757 18.1746 19.0752 19.0752C18.1746 19.9757 17.1159 20.688 15.9014 21.2121C14.683 21.7378 13.3817 22 12 22C10.6183 22 9.31701 21.7378 8.09861 21.2121C6.88406 20.688 5.8254 19.9757 4.92484 19.0752C4.02429 18.1746 3.31204 17.1159 2.78794 15.9014C2.26219 14.683 2 13.3817 2 12C2 10.6183 2.26219 9.31701 2.78794 8.09861C3.31204 6.88406 4.02429 5.8254 4.92484 4.92484C5.8254 4.02429 6.88406 3.31204 8.09861 2.78794C9.31701 2.26219 10.6183 2 12 2ZM12 4.35328C9.8614 4.35328 8.05743 5.09336 6.5754 6.5754C5.09336 8.05743 4.35328 9.8614 4.35328 12C4.35328 14.1386 5.09336 15.9426 6.5754 17.4246C8.05743 18.9066 9.8614 19.6467 12 19.6467C14.1386 19.6467 15.9426 18.9066 17.4246 17.4246C18.9066 15.9426 19.6467 14.1386 19.6467 12C19.6467 9.8614 18.9066 8.05743 17.4246 6.5754C15.9426 5.09336 14.1386 4.35328 12 4.35328ZM12 6.90187C12.3272 6.90187 12.6103 7.01525 12.8368 7.24174C13.0633 7.46823 13.1766 7.75136 13.1766 8.07851V12.7027L14.7046 11.1747C14.9246 10.9549 15.2048 10.8483 15.529 10.8483C15.8533 10.8483 16.1342 10.9548 16.3542 11.1747C16.5743 11.3948 16.6817 11.6755 16.6817 12C16.6817 12.3245 16.5743 12.6052 16.3542 12.8253L12.8253 16.3542C12.5949 16.5846 12.3168 16.7056 12 16.7056C11.6832 16.7056 11.4051 16.5846 11.1747 16.3542L7.64576 12.8253C7.42566 12.6052 7.31833 12.3245 7.31833 12C7.31833 11.6755 7.42566 11.3948 7.64576 11.1747C7.86583 10.9548 8.14667 10.8483 8.47104 10.8483C8.7952 10.8483 9.07539 10.9549 9.29536 11.1747L10.8234 12.7027V8.07851C10.8234 7.75136 10.9367 7.46823 11.1632 7.24174C11.3897 7.01525 11.6728 6.90187 12 6.90187Z" fill="#E1E1E1"/>
</svg>
