<svg width="24" height="24" viewBox="0 0 24 24" fill="none" xmlns="http://www.w3.org/2000/svg">
<path d="M16.3897 8.73456V15.9998C16.3897 16.319 16.4996 16.5884 16.7192 16.8081C16.9387 17.0276 17.2081 17.1373 17.5272 17.1373C17.8464 17.1373 18.1158 17.0276 18.3355 16.8081C18.555 16.5884 18.6647 16.319 18.6647 15.9998V5.9998C18.6647 5.68064 18.555 5.41122 18.3355 5.19155C18.1158 4.97205 17.8464 4.8623 17.5272 4.8623H7.52723C7.20807 4.8623 6.93873 4.97205 6.71923 5.19155C6.49957 5.41122 6.38973 5.68064 6.38973 5.9998C6.38973 6.31897 6.49957 6.58839 6.71923 6.80806C6.93873 7.02756 7.20807 7.1373 7.52723 7.1373H14.7925L6.12573 15.8041C5.9104 16.0194 5.80273 16.2846 5.80273 16.5998C5.80273 16.915 5.9104 17.1802 6.12573 17.3956C6.3409 17.6107 6.60707 17.7183 6.92423 17.7183C7.2414 17.7183 7.50765 17.6107 7.72298 17.3956L16.3897 8.73456Z" fill="#E1E1E1"/>
</svg>
