<svg width="24" height="24" viewBox="0 0 24 24" fill="none" xmlns="http://www.w3.org/2000/svg">
<path d="M8.07773 13.846V6.58076C8.07773 6.26159 7.9679 5.99218 7.74823 5.77251C7.52873 5.55301 7.2594 5.44326 6.94023 5.44326C6.62107 5.44326 6.35165 5.55301 6.13198 5.77251C5.91248 5.99218 5.80273 6.26159 5.80273 6.58076V16.5808C5.80273 16.8999 5.91248 17.1693 6.13198 17.389C6.35165 17.6085 6.62107 17.7183 6.94023 17.7183H16.9402C17.2594 17.7183 17.5287 17.6085 17.7482 17.389C17.9679 17.1693 18.0777 16.8999 18.0777 16.5808C18.0777 16.2616 17.9679 15.9922 17.7482 15.7725C17.5287 15.553 17.2594 15.4433 16.9402 15.4433H9.67498L18.3417 6.77651C18.5571 6.56118 18.6647 6.29593 18.6647 5.98076C18.6647 5.6656 18.5571 5.40034 18.3417 5.18501C18.1266 4.96984 17.8604 4.86226 17.5432 4.86226C17.2261 4.86226 16.9598 4.96984 16.7445 5.18501L8.07773 13.846Z" fill="#E1E1E1"/>
</svg>
