<svg width="24" height="24" viewBox="0 0 24 24" fill="none" xmlns="http://www.w3.org/2000/svg">
<path d="M8.03375 21.1373C7.61925 21.1373 7.24008 21.0369 6.89625 20.8361C6.55242 20.6351 6.27683 20.3563 6.0695 19.9998L2.09725 13.1373C1.89008 12.7808 1.7865 12.4016 1.7865 11.9998C1.7865 11.598 1.89008 11.2188 2.09725 10.8623L6.0695 3.9998C6.27683 3.6433 6.55242 3.36455 6.89625 3.16355C7.24008 2.96272 7.61925 2.8623 8.03375 2.8623H15.9663C16.3808 2.8623 16.7599 2.96272 17.1038 3.16355C17.4476 3.36455 17.7232 3.6433 17.9305 3.9998L21.9028 10.8623C22.1099 11.2188 22.2135 11.598 22.2135 11.9998C22.2135 12.4016 22.1099 12.7808 21.9028 13.1373L17.9305 19.9998C17.7232 20.3563 17.4476 20.6351 17.1038 20.8361C16.7599 21.0369 16.3808 21.1373 15.9663 21.1373H8.03375ZM8.02775 18.8623H15.9722L19.9135 11.9998L15.9722 5.1373H8.02775L4.0615 11.9998L8.02775 18.8623Z" fill="#E1E1E1"/>
</svg>
