<svg width="24" height="24" viewBox="0 0 24 24" fill="none" xmlns="http://www.w3.org/2000/svg">
<path fill-rule="evenodd" clip-rule="evenodd" d="M17.0047 3.29516C17.3457 3.49289 17.6171 3.76774 17.8181 4.11967L21.6953 10.8823C21.8962 11.2343 21.9978 11.606 22 11.9978C22.0019 12.3897 21.9017 12.7627 21.6986 13.1159L17.8118 19.8769C17.6088 20.2301 17.3372 20.5039 16.9983 20.6981C16.6594 20.892 16.288 20.9895 15.8841 20.9909L8.11379 21C7.7098 21.0011 7.33709 20.9025 6.99611 20.7048C6.65512 20.5071 6.38379 20.2323 6.18275 19.8803L2.30548 13.1177C2.10454 12.7656 2.00215 12.3936 2.00003 12.0017C1.99806 11.6099 2.09917 11.2373 2.30221 10.8841L6.18899 4.1231C6.39207 3.76986 6.66284 3.49567 7.0017 3.30145C7.34073 3.10732 7.71264 3.01043 8.11676 3.00913L15.887 3.00001C16.2911 2.99887 16.6637 3.09743 17.0047 3.29516ZM4.23038 12.0087L7.40425 17.5345L10.581 12.0087L7.36497 6.55617L4.23038 12.0087ZM12.7026 13.2389L9.52591 18.7647L15.8779 18.7622L19.0125 13.3097L12.7026 13.2389ZM9.43773 5.23995L12.7036 10.7769L19.1103 10.8483L15.8779 5.25528L9.43773 5.23995Z" fill="#E1E1E1"/>
</svg>
