<svg width="24" height="24" viewBox="0 0 24 24" fill="none" xmlns="http://www.w3.org/2000/svg">
<path d="M11.106 17.528V8.72179C10.495 8.36417 9.84686 8.09596 9.16144 7.91716C8.47601 7.73835 7.78313 7.64895 7.08281 7.64895C6.54639 7.64895 6.01369 7.7011 5.48472 7.8054C4.95575 7.90971 4.44541 8.06616 3.95369 8.27477V17.1257C4.47521 16.9469 4.993 16.8128 5.50707 16.7234C6.02114 16.634 6.54639 16.5893 7.08281 16.5893C7.78313 16.5893 8.46483 16.6675 9.12791 16.824C9.79098 16.9804 10.4503 17.2151 11.106 17.528ZM2 18.5434V7.77568C2 7.56185 2.05074 7.36055 2.15221 7.17176C2.25383 6.98282 2.40619 6.84111 2.60928 6.74664C3.30186 6.39261 4.02245 6.12887 4.77106 5.95542C5.51951 5.78183 6.28473 5.69504 7.06671 5.69504C8.1622 5.69504 9.09207 5.82087 9.85632 6.07254C10.6204 6.32406 11.4388 6.70522 12.3113 7.21601C12.5003 7.32315 12.6446 7.45502 12.7443 7.61162C12.8441 7.76837 12.894 7.95783 12.894 8.18V17.528C13.5497 17.2151 14.209 16.9804 14.8721 16.8237C15.5352 16.6671 16.2169 16.5888 16.9172 16.5888C17.4536 16.5888 17.9788 16.6336 18.4929 16.7232C19.007 16.8126 19.5248 16.9468 20.0463 17.1257V7.16215C20.0463 6.88604 20.1409 6.65463 20.3302 6.46793C20.5192 6.28122 20.7512 6.18787 21.0259 6.18787C21.3006 6.18787 21.5316 6.28122 21.719 6.46793C21.9063 6.65463 22 6.88604 22 7.16215V18.6237C22 19.0056 21.8298 19.2904 21.4895 19.4781C21.149 19.6659 20.7956 19.6635 20.4292 19.471C19.885 19.1801 19.3171 18.9518 18.7254 18.7862C18.1335 18.6205 17.5308 18.5376 16.9172 18.5376C16.2119 18.5376 15.5281 18.6421 14.8656 18.851C14.203 19.06 13.5694 19.3475 12.9649 19.7135C12.8208 19.7987 12.6673 19.8635 12.5045 19.9079C12.3414 19.9522 12.1787 19.9743 12.0161 19.9743C11.8534 19.9743 11.6894 19.9531 11.5241 19.9106C11.3587 19.868 11.2064 19.8041 11.0671 19.7189C10.4591 19.3493 9.82026 19.06 9.15048 18.851C8.48085 18.6421 7.79163 18.5376 7.08281 18.5376C6.4692 18.5376 5.86647 18.6205 5.27462 18.7862C4.68292 18.9518 4.11499 19.1801 3.57082 19.471C3.20799 19.6599 2.85544 19.6514 2.51318 19.4453C2.17106 19.2391 2 18.9384 2 18.5434ZM15.1291 13.5525V5.3477C15.1291 5.12956 15.1912 4.93235 15.3155 4.75608C15.4396 4.5798 15.6018 4.4565 15.8021 4.38617L16.8059 4.048C17.0465 3.95919 17.2743 3.99361 17.4891 4.15126C17.7039 4.30876 17.8112 4.51715 17.8112 4.77642V12.981C17.8112 13.1979 17.7491 13.3939 17.6248 13.569C17.5007 13.7442 17.3385 13.8687 17.1382 13.9425L16.1398 14.2809C15.8992 14.3695 15.6705 14.3351 15.4539 14.1776C15.2374 14.02 15.1291 13.8116 15.1291 13.5525Z" fill="#E1E1E1"/>
</svg>
