<svg width="24" height="24" viewBox="0 0 24 24" fill="none" xmlns="http://www.w3.org/2000/svg">
<path fill-rule="evenodd" clip-rule="evenodd" d="M16.0338 3.01367C16.6868 3.01367 17.2162 3.54306 17.2162 4.1961V5.37854H17.9257C18.741 5.37854 19.5228 5.70267 20.0993 6.27922C20.6759 6.85576 21 7.6375 21 8.45286V10.3448C21 10.4258 20.9915 10.5048 20.976 10.5812C20.9915 10.6577 21 10.7367 21 10.8177V17.9123C21 18.7277 20.6759 19.5094 20.0993 20.086C19.5228 20.6625 18.741 20.9866 17.9257 20.9866H6.57432C5.75896 20.9866 4.97723 20.6625 4.40068 20.086C3.82413 19.5094 3.5 18.7277 3.5 17.9123V10.8177C3.5 10.7367 3.5085 10.6577 3.52402 10.5812C3.5085 10.5048 3.5 10.4258 3.5 10.3448V8.45286C3.5 7.6375 3.82413 6.85577 4.40068 6.27922C4.97723 5.70267 5.75896 5.37854 6.57432 5.37854H7.28378V4.1961C7.28378 3.54306 7.81318 3.01367 8.46622 3.01367C9.11926 3.01367 9.64865 3.54306 9.64865 4.1961V5.37854H14.8514V4.1961C14.8514 3.54306 15.3807 3.01367 16.0338 3.01367ZM5.86486 17.9123C5.86486 18.1005 5.93966 18.2809 6.07271 18.4139C6.20576 18.547 6.38616 18.6218 6.57432 18.6218H17.9257C18.1138 18.6218 18.2942 18.547 18.4273 18.4139C18.5603 18.2809 18.6351 18.1005 18.6351 17.9123V11.5272H5.86486V17.9123Z" fill="#E1E1E1"/>
</svg>
