<svg width="24" height="24" viewBox="0 0 24 24" fill="none" xmlns="http://www.w3.org/2000/svg">
<path d="M0.608801 0.870178C0.88201 0.629815 1.27338 0.577127 1.60001 0.737365C1.67721 0.77533 1.7607 0.837929 1.94865 0.981506L18.0863 13.3106C18.2746 13.4544 18.3566 13.5185 18.4135 13.5831C18.6541 13.8564 18.7067 14.2475 18.5463 14.5743C18.5083 14.6515 18.4459 14.735 18.3022 14.9229C18.1583 15.1114 18.0942 15.1942 18.0297 15.251C17.7906 15.4618 17.4605 15.528 17.1625 15.4337L17.0375 15.3838C16.9603 15.3459 16.8769 15.2834 16.6889 15.1397L15.1625 13.9737L15.1166 13.9385L15.0629 13.96C14.6662 14.1259 14.2557 14.1973 13.8373 14.2315C13.3753 14.2692 12.8127 14.2696 12.1547 14.2696H7.22306C6.56523 14.2696 6.00229 14.2692 5.54044 14.2315C5.05291 14.1916 4.57565 14.1044 4.11954 13.8721C3.43301 13.5222 2.87473 12.9621 2.52482 12.2755C2.29253 11.8193 2.20435 11.3428 2.16447 10.8555C2.12673 10.3937 2.12635 9.83073 2.12638 9.17291V5.14947C2.12638 4.75694 2.12698 4.39643 2.13419 4.07037L2.13517 4.01959L2.09513 3.98932L0.551184 2.80963C0.363084 2.66592 0.280894 2.60172 0.224036 2.53717C-0.0162888 2.2641 -0.0681608 1.87281 0.0921998 1.54596C0.13023 1.46864 0.192249 1.38466 0.335364 1.19733C0.478945 1.00939 0.544089 0.927181 0.608801 0.870178ZM4.42618 9.1192C4.42618 9.83766 4.42813 10.308 4.45743 10.6671C4.48566 11.0122 4.53476 11.1532 4.57462 11.2315C4.70388 11.4851 4.90961 11.6928 5.16349 11.8223C5.24207 11.8623 5.3844 11.9104 5.72892 11.9385C6.08796 11.9678 6.55832 11.9688 7.27677 11.9688H12.1742C12.1977 11.9686 12.2204 11.9678 12.2426 11.9678H12.5375L12.3031 11.7891L4.42618 5.76959V9.1192ZM6.12736 6.05583e-05C8.06533 0.00198021 10.8661 0.0086769 11.8598 0.0332637C12.5522 0.0504237 13.2338 0.0769474 13.7826 0.117248C14.0554 0.137291 14.313 0.16164 14.5297 0.19342C14.6679 0.213706 14.9227 0.252467 15.1576 0.34967L15.2621 0.398498L15.5102 0.53717C16.0816 0.887789 16.5478 1.39155 16.8539 1.99225C17.0864 2.44865 17.1744 2.92555 17.2143 3.41315C17.2244 3.53753 17.2313 3.67019 17.2367 3.81061L17.2436 4.00201L17.3969 3.88678L19.7348 2.12311C20.3277 1.67595 21.1762 2.09902 21.1762 2.84186V10.4268C21.176 11.1696 20.3266 11.5929 19.7338 11.1456L15.3158 7.73737L15.3149 7.73639L15.2338 7.66803C15.0552 7.49911 14.9516 7.26331 14.9516 7.01471V5.14947C14.9516 4.43096 14.9506 3.9607 14.9213 3.60162C14.8931 3.25607 14.844 3.11449 14.8041 3.03619C14.6896 2.8116 14.5148 2.624 14.3002 2.4942L14.2846 2.48444L14.266 2.48151L14.1957 2.46979C14.0574 2.44953 13.8614 2.4294 13.6137 2.41119C13.1203 2.37497 12.482 2.34991 11.8022 2.33307C10.7491 2.30699 9.42786 2.30107 8.517 2.29987C8.17056 2.29927 7.83159 2.20431 7.53654 2.02643L7.41349 1.94537L5.83829 0.726623L5.83536 0.72467L5.77482 0.674865C5.64532 0.553825 5.59233 0.393446 5.62052 0.268615C5.63624 0.199555 5.67757 0.135716 5.75431 0.0869746C5.83275 0.0371491 5.95293 6.05583e-05 6.12736 6.05583e-05Z" transform="translate(1.412 4.262)" fill="#E1E1E1"/>
</svg>
