<svg width="24" height="24" viewBox="0 0 24 24" fill="none" xmlns="http://www.w3.org/2000/svg">
<path d="M8.31304 0.000225326C8.88034 0.000225174 9.36378 -0.00031607 9.75917 0.0319636C10.1656 0.0651913 10.5636 0.138427 10.9441 0.332257C11.5163 0.623881 11.9814 1.08978 12.273 1.66201C12.4666 2.04219 12.5401 2.43912 12.5733 2.84528C12.5818 2.94895 12.5875 3.05945 12.592 3.17649L12.5977 3.336L12.7255 3.23997L14.6737 1.77024C15.1678 1.39757 15.8757 1.75017 15.8757 2.3692V9.52334C15.8757 10.1424 15.1678 10.495 14.6737 10.1223L12.7255 8.65257L12.5977 8.55654L12.592 8.71605C12.5875 8.8331 12.5818 8.94359 12.5733 9.04726C12.5401 9.45373 12.4668 9.85176 12.273 10.2322C11.9814 10.8042 11.5161 11.2696 10.9441 11.5611C10.5638 11.7548 10.1657 11.8273 9.75917 11.8606C9.36378 11.8929 8.88035 11.8923 8.31304 11.8923H4.29204C3.72451 11.8923 3.24058 11.8929 2.8451 11.8606C2.43889 11.8273 2.04188 11.7546 1.66184 11.5611C1.08973 11.2696 0.623724 10.8042 0.332084 10.2322C0.138263 9.85177 0.0650206 9.45373 0.0317907 9.04726C-0.000521408 8.65178 5.24133e-05 8.16787 5.24133e-05 7.60032V4.29222C5.23922e-05 3.72468 -0.000521222 3.24076 0.0317907 2.84528C0.0650152 2.4391 0.138471 2.0422 0.332084 1.66201C0.623698 1.08968 1.08951 0.623871 1.66184 0.332257C2.04203 0.138644 2.43892 0.0651881 2.8451 0.0319636C3.24058 -0.000348303 3.72451 0.000225305 4.29204 0.000225326H8.31304ZM4.29204 1.91754C3.69309 1.91754 3.30144 1.91834 3.00217 1.94277C2.71441 1.96628 2.59707 2.00721 2.53179 2.04043C2.32019 2.14827 2.1481 2.32036 2.04025 2.53196C2.00704 2.59724 1.96611 2.71458 1.9426 3.00234C1.91817 3.30161 1.91737 3.69326 1.91737 4.29222V7.60032C1.91737 8.19912 1.91819 8.59096 1.9426 8.8902C1.96609 9.17778 2.00705 9.29528 2.04025 9.36058C2.14805 9.57194 2.3201 9.74507 2.53179 9.85293C2.59709 9.88613 2.7146 9.92709 3.00217 9.95058C3.30147 9.97501 3.69329 9.975 4.29204 9.975H8.31304C8.91179 9.975 9.30362 9.97502 9.60292 9.95058C9.89098 9.92705 10.0089 9.88616 10.0741 9.85293C10.2856 9.74506 10.4571 9.57262 10.5648 9.36139C10.598 9.29608 10.639 9.17771 10.6625 8.8902C10.6869 8.59096 10.6877 8.19911 10.6877 7.60032V4.29222C10.6877 3.69327 10.6869 3.30161 10.6625 3.00234C10.639 2.71456 10.598 2.59724 10.5648 2.53196C10.4571 2.32048 10.2855 2.14829 10.0741 2.04043C10.0089 2.00719 9.89097 1.96631 9.60292 1.94277C9.30366 1.91834 8.91196 1.91754 8.31304 1.91754H4.29204Z" transform="translate(2.849 4.865) scale(1.2)" fill="#E1E1E1"/>
</svg>
