<svg width="20" height="20" viewBox="0 0 20 20" fill="none" xmlns="http://www.w3.org/2000/svg">
<path d="M8.84122 11.2995L7.21225 9.67057C7.04305 9.50123 6.82967 9.41656 6.57213 9.41656C6.31472 9.41656 6.10135 9.50123 5.93202 9.67057C5.76282 9.83977 5.67903 10.0531 5.68067 10.3107C5.6823 10.5681 5.76772 10.7814 5.93692 10.9506L8.18661 13.2003C8.37391 13.3864 8.59246 13.4794 8.84224 13.4794C9.09189 13.4794 9.30982 13.3864 9.49604 13.2003L14.0373 8.65884C14.2066 8.48964 14.2913 8.27715 14.2913 8.02138C14.2913 7.76547 14.2066 7.55291 14.0373 7.38371C13.8681 7.21438 13.6547 7.12971 13.3972 7.12971C13.1398 7.12971 12.9265 7.21438 12.7573 7.38371L8.84122 11.2995ZM9.99935 18.3337C8.84353 18.3337 7.75905 18.115 6.74589 17.6778C5.7326 17.2406 4.85121 16.6473 4.10172 15.898C3.35237 15.1485 2.75908 14.2671 2.32185 13.2538C1.88463 12.2406 1.66602 11.1561 1.66602 10.0003C1.66602 8.84451 1.88463 7.76002 2.32185 6.74687C2.75908 5.73357 3.35237 4.85218 4.10172 4.10269C4.85121 3.35334 5.7326 2.76005 6.74589 2.32283C7.75905 1.8856 8.84353 1.66699 9.99935 1.66699C11.1552 1.66699 12.2396 1.8856 13.2528 2.32283C14.2661 2.76005 15.1475 3.35334 15.897 4.10269C16.6463 4.85218 17.2396 5.73357 17.6768 6.74687C18.1141 7.76002 18.3327 8.84451 18.3327 10.0003C18.3327 11.1561 18.1141 12.2406 17.6768 13.2538C17.2396 14.2671 16.6463 15.1485 15.897 15.898C15.1475 16.6473 14.2661 17.2406 13.2528 17.6778C12.2396 18.115 11.1552 18.3337 9.99935 18.3337ZM9.99935 16.4756C11.8103 16.4756 13.3423 15.8492 14.5953 14.5963C15.8482 13.3433 16.4746 11.8113 16.4746 10.0003C16.4746 8.18935 15.8482 6.65737 14.5953 5.40436C13.3423 4.15149 11.8103 3.52506 9.99935 3.52506C8.18838 3.52506 6.65639 4.15149 5.40339 5.40436C4.15052 6.65737 3.52408 8.18935 3.52408 10.0003C3.52408 11.8113 4.15052 13.3433 5.40339 14.5963C6.65639 15.8492 8.18838 16.4756 9.99935 16.4756Z" fill="#141818"/>
</svg>
