<svg width="24" height="24" viewBox="0 0 24 24" fill="none" xmlns="http://www.w3.org/2000/svg">
<path d="M10.6102 13.5591L8.65548 11.6043C8.45244 11.4011 8.19639 11.2995 7.88734 11.2995C7.57845 11.2995 7.3224 11.4011 7.1192 11.6043C6.91616 11.8073 6.81562 12.0634 6.81758 12.3724C6.81954 12.6813 6.92204 12.9373 7.12508 13.1403L9.82471 15.8399C10.0495 16.0632 10.3117 16.1749 10.6115 16.1749C10.911 16.1749 11.1726 16.0632 11.396 15.8399L16.8455 10.3902C17.0487 10.1872 17.1503 9.93219 17.1503 9.62526C17.1503 9.31817 17.0487 9.06311 16.8455 8.86007C16.6425 8.65686 16.3864 8.55526 16.0774 8.55526C15.7685 8.55526 15.5125 8.65686 15.3095 8.86007L10.6102 13.5591ZM12 22C10.613 22 9.31164 21.7377 8.09585 21.213C6.8799 20.6883 5.82223 19.9764 4.92284 19.0772C4.02362 18.1778 3.31167 17.1201 2.787 15.9041C2.26233 14.6884 2 13.387 2 12C2 10.613 2.26233 9.31164 2.787 8.09585C3.31167 6.8799 4.02362 5.82223 4.92284 4.92284C5.82223 4.02362 6.8799 3.31167 8.09585 2.787C9.31164 2.26233 10.613 2 12 2C13.387 2 14.6884 2.26233 15.9041 2.787C17.1201 3.31167 18.1778 4.02362 19.0772 4.92284C19.9764 5.82223 20.6883 6.8799 21.213 8.09585C21.7377 9.31164 22 10.613 22 12C22 13.387 21.7377 14.6884 21.213 15.9041C20.6883 17.1201 19.9764 18.1778 19.0772 19.0772C18.1778 19.9764 17.1201 20.6883 15.9041 21.213C14.6884 21.7377 13.387 22 12 22ZM12 19.7703C14.1732 19.7703 16.0115 19.0186 17.5152 17.5152C19.0186 16.0115 19.7703 14.1732 19.7703 12C19.7703 9.82683 19.0186 7.98845 17.5152 6.48484C16.0115 4.9814 14.1732 4.22968 12 4.22968C9.82683 4.22968 7.98845 4.9814 6.48484 6.48484C4.9814 7.98845 4.22968 9.82683 4.22968 12C4.22968 14.1732 4.9814 16.0115 6.48484 17.5152C7.98845 19.0186 9.82683 19.7703 12 19.7703Z" fill="#E1E1E1"/>
</svg>
