<svg width="24" height="24" viewBox="0 0 24 24" fill="none" xmlns="http://www.w3.org/2000/svg">
<path d="M18.8981 6C19.3688 6.0001 19.7468 6.15366 20.0473 6.45699C20.3484 6.76045 20.5003 7.14078 20.5003 7.61207C20.5003 8.08291 20.3483 8.46273 20.0473 8.76615L10.865 18.028C10.5246 18.3711 10.1351 18.5364 9.68787 18.5365C9.24024 18.5365 8.84849 18.3705 8.50571 18.027L3.9581 13.44C3.65723 13.1365 3.50311 12.7548 3.50004 12.2798C3.49706 11.8053 3.64805 11.4245 3.9481 11.1217C4.24891 10.8183 4.62683 10.6638 5.09726 10.6637C5.56821 10.6637 5.94682 10.8183 6.24741 11.1217L9.68587 14.59L17.749 6.45699C18.0495 6.15372 18.4276 6 18.8981 6Z" fill="#E1E1E1"/>
</svg>
