<svg width="24" height="24" viewBox="0 0 24 24" fill="none" xmlns="http://www.w3.org/2000/svg">
<path d="M10.0636 12.0001L14.6206 7.44341C14.8735 7.19028 15 6.87256 15 6.49027C15 6.10797 14.8735 5.79025 14.6206 5.53712C14.3675 5.28418 14.0497 5.15771 13.6674 5.15771C13.2851 5.15771 12.9674 5.28418 12.7143 5.53712L7.2116 11.0398C7.07765 11.174 6.97973 11.3229 6.91784 11.4866C6.85595 11.6501 6.82501 11.8213 6.82501 12.0001C6.82501 12.179 6.85595 12.3502 6.91784 12.5137C6.97973 12.6774 7.07765 12.8263 7.2116 12.9605L12.7143 18.4632C12.9674 18.7161 13.2851 18.8426 13.6674 18.8426C14.0497 18.8426 14.3675 18.7161 14.6206 18.4632C14.8735 18.21 15 17.8923 15 17.51C15 17.1277 14.8735 16.81 14.6206 16.5569L10.0636 12.0001Z" fill="#E1E1E1"/>
</svg>
