<svg width="24" height="24" viewBox="0 0 24 24" fill="none" xmlns="http://www.w3.org/2000/svg">
<path d="M11.8663 0.940357C12.5416 0.911347 13.2056 1.10396 13.757 1.4857L13.9851 1.66077L14.0053 1.67774L14.0244 1.69472L14.1432 1.804L14.1634 1.82204L15.5968 3.25437H17.5957L17.8864 3.26816C18.5591 3.33192 19.195 3.61557 19.6943 4.07875C20.1938 4.54219 20.5247 5.15557 20.6386 5.82195L20.6736 6.11054L20.6757 6.13176V6.15298L20.6821 6.29303L20.6831 6.31743V8.34073L22.0964 9.75396C22.6425 10.3005 22.964 11.0329 22.9971 11.8048C23.0302 12.5766 22.7728 13.3324 22.2757 13.9236L22.2396 13.9661L22.1303 14.0838L22.1133 14.1029L22.0953 14.1199L20.6821 15.5331V17.532L20.6683 17.8228C20.6049 18.496 20.3211 19.1331 19.8577 19.6328C19.3281 20.2037 18.6024 20.5537 17.8259 20.6121L17.8004 20.6142H17.775L17.636 20.6195H15.5978L14.1835 22.0338C13.637 22.58 12.9056 22.9014 12.1337 22.9346C11.3618 22.9677 10.6052 22.7104 10.0139 22.2131L9.99476 22.1972L9.97672 22.1802L9.85789 22.072L9.83773 22.054L8.40328 20.6195H6.40438C5.62574 20.6196 4.87564 20.3256 4.30469 19.7962C3.73376 19.2666 3.38385 18.5409 3.3254 17.7644L3.32328 17.7389L3.32222 17.7135L3.31798 17.5734L3.31692 17.5533V15.5331L1.90368 14.1199C1.35756 13.5734 1.03609 12.842 1.00291 12.0701C0.969757 11.2982 1.22709 10.5416 1.72438 9.95024L1.74029 9.93114L1.75727 9.91311L1.86549 9.79428L1.88353 9.77412L3.31692 8.34073V6.34183C3.31706 5.5632 3.61172 4.81295 4.1413 4.24214C4.67085 3.67138 5.39671 3.32234 6.17309 3.26391L6.19431 3.26179L6.21553 3.26073L6.35558 3.25543L6.37998 3.25437H8.40434L9.81757 1.84007C10.3639 1.29446 11.0949 0.973628 11.8663 0.940357ZM14.5803 11.9375C14.5803 11.2532 14.3087 10.5965 13.8249 10.1126C13.341 9.62866 12.6844 9.35715 12 9.35715C11.3157 9.35715 10.659 9.62866 10.1751 10.1126C9.69131 10.5965 9.4197 11.2532 9.4197 11.9375C9.41976 12.6218 9.69127 13.2785 10.1751 13.7624C10.659 14.2462 11.3157 14.5178 12 14.5178C12.6843 14.5178 13.341 14.2462 13.8249 13.7624C14.3088 13.2785 14.5803 12.6218 14.5803 11.9375ZM17.0248 11.9375C17.0248 13.2701 16.4955 14.5484 15.5533 15.4907C14.6109 16.433 13.3327 16.9623 12 16.9623C10.6674 16.9623 9.38911 16.433 8.44678 15.4907C7.50449 14.5484 6.97525 13.2701 6.97519 11.9375C6.97519 10.6048 7.50452 9.32657 8.44678 8.38423C9.38911 7.44187 10.6673 6.91264 12 6.91264C13.3327 6.91264 14.6109 7.44187 15.5533 8.38423C16.4955 9.32657 17.0248 10.6048 17.0248 11.9375ZM5.76143 9.35291L3.64582 11.4685L3.59065 11.529C3.48999 11.6513 3.43849 11.8066 3.4453 11.9651C3.45219 12.1256 3.51852 12.2778 3.63203 12.3916L5.40387 14.1634L5.76143 14.522V17.4917L5.76355 17.584C5.77642 17.7446 5.84912 17.8946 5.96726 18.0042C6.08616 18.1144 6.24229 18.1751 6.40438 18.175H9.41652L11.53 20.2885L11.5958 20.3479C11.7177 20.4473 11.8713 20.4989 12.0287 20.4922C12.1892 20.4853 12.3414 20.419 12.4552 20.3055L14.5856 18.175H17.5893L17.6455 18.1729C17.8061 18.16 17.9561 18.0884 18.0657 17.9702C18.1759 17.8513 18.2376 17.6952 18.2375 17.5331V14.522L18.5951 14.1634L20.3436 12.4138L20.4136 12.3375C20.5105 12.2163 20.5613 12.0652 20.5547 11.9099C20.5478 11.7492 20.4817 11.5961 20.368 11.4823L18.2386 9.35291V6.39064L18.2344 6.28242C18.2197 6.12499 18.1478 5.97846 18.0317 5.87075C17.9129 5.76057 17.7566 5.6989 17.5946 5.69887H14.5846L14.226 5.34132L12.4541 3.57054L12.4085 3.52916C12.286 3.428 12.1302 3.37592 11.9714 3.38274C11.8111 3.38973 11.6585 3.45518 11.5449 3.56842L9.77407 5.34132L9.41546 5.69887H6.4256L6.35239 5.701C6.1923 5.71407 6.04264 5.78687 5.93331 5.90471C5.82309 6.0235 5.76152 6.17978 5.76143 6.34183V9.35291Z" fill="#E1E1E1"/>
</svg>
