<svg width="24" height="24" viewBox="0 0 12 11.6667" fill="none" xmlns="http://www.w3.org/2000/svg">
<path fill-rule="evenodd" clip-rule="evenodd" d="M0 9.08213V6.8814C0.251556 7.0313 0.520445 7.16785 0.806667 7.29105C2.17333 7.88291 4.00667 8.22794 6 8.22794C7.992 8.22794 9.82667 7.88291 11.1933 7.29105C11.4796 7.16871 11.7484 7.03216 12 6.8814V9.08213C12 10.5036 9.33333 11.6667 6 11.6667C2.66667 11.6667 0 10.5036 0 9.08213ZM0.288 5.0593C0.153557 4.93652 0.0543182 4.782 0 4.61088V2.2512C0 0.824539 2.68667 0 6 0C9.31333 0 12 0.824539 12 2.2512V4.61088C11.9459 4.78247 11.8466 4.93745 11.712 5.06059C11.4653 5.31259 11.0693 5.5775 10.5147 5.81786C9.408 6.296 7.81467 6.6139 6 6.6139C4.18533 6.6139 2.59333 6.296 1.48533 5.81786C0.930666 5.5775 0.534667 5.31259 0.288 5.0593ZM10.1893 2.28739C10.1893 2.93352 8.31333 3.4556 6 3.4556C3.68533 3.4556 1.81067 2.93223 1.81067 2.28739C1.81067 1.64254 3.68533 1.11918 6 1.11918C8.31467 1.11918 10.1893 1.64254 10.1893 2.28739Z" fill="#E1E1E1"/>
</svg>
