<svg width="24" height="24" viewBox="0 0 24 24" fill="none" xmlns="http://www.w3.org/2000/svg">
<path d="M11.6839 16.4828L14.3563 19.1552C14.5862 19.3851 14.864 19.5 15.1897 19.5C15.5153 19.5 15.7931 19.3851 16.023 19.1552C16.2529 18.9253 16.3678 18.6475 16.3678 18.3218C16.3678 17.9962 16.2529 17.7184 16.023 17.4885L12.4885 13.954C12.3736 13.8391 12.249 13.7577 12.1149 13.7098C11.9808 13.6619 11.8372 13.6379 11.6839 13.6379C11.5307 13.6379 11.387 13.6619 11.2529 13.7098C11.1188 13.7577 10.9943 13.8391 10.8793 13.954L7.34483 17.4885C7.11494 17.7184 7 17.9962 7 18.3218C7 18.6475 7.11494 18.9253 7.34483 19.1552C7.57471 19.3851 7.85249 19.5 8.17816 19.5C8.50383 19.5 8.78161 19.3851 9.01149 19.1552L11.6839 16.4828ZM11.6839 7.51724L9.01149 4.84483C8.78161 4.61494 8.50383 4.5 8.17816 4.5C7.85249 4.5 7.57471 4.61494 7.34483 4.84483C7.11494 5.07471 7 5.35249 7 5.67816C7 6.00383 7.11494 6.28161 7.34483 6.51149L10.8793 10.046C10.9943 10.1609 11.1188 10.2423 11.2529 10.2902C11.387 10.3381 11.5307 10.3621 11.6839 10.3621C11.8372 10.3621 11.9808 10.3381 12.1149 10.2902C12.249 10.2423 12.3736 10.1609 12.4885 10.046L16.023 6.51149C16.2529 6.28161 16.3678 6.00383 16.3678 5.67816C16.3678 5.35249 16.2529 5.07471 16.023 4.84483C15.7931 4.61494 15.5153 4.5 15.1897 4.5C14.864 4.5 14.5862 4.61494 14.3563 4.84483L11.6839 7.51724Z" fill="#E1E1E1"/>
</svg>
