<svg width="24" height="24" viewBox="0 0 24 24" fill="none" xmlns="http://www.w3.org/2000/svg">
<path d="M12 16.7816L14.8528 19.6322C15.0982 19.8774 15.3947 20 15.7423 20C16.09 20 16.3865 19.8774 16.6319 19.6322C16.8773 19.387 17 19.0907 17 18.7433C17 18.3959 16.8773 18.0996 16.6319 17.8544L12.8589 14.0843C12.7362 13.9617 12.6033 13.8748 12.4601 13.8238C12.317 13.7727 12.1636 13.7471 12 13.7471C11.8364 13.7471 11.683 13.7727 11.5399 13.8238C11.3967 13.8748 11.2638 13.9617 11.1411 14.0843L7.3681 17.8544C7.1227 18.0996 7 18.3959 7 18.7433C7 19.0907 7.1227 19.387 7.3681 19.6322C7.6135 19.8774 7.91002 20 8.25767 20C8.60532 20 8.90184 19.8774 9.14724 19.6322L12 16.7816ZM12 7.21839L9.14724 4.36782C8.90184 4.12261 8.60532 4 8.25767 4C7.91002 4 7.6135 4.12261 7.3681 4.36782C7.1227 4.61303 7 4.90932 7 5.2567C7 5.60409 7.1227 5.90038 7.3681 6.14559L11.1411 9.91571C11.2638 10.0383 11.3967 10.1252 11.5399 10.1762C11.683 10.2273 11.8364 10.2529 12 10.2529C12.1636 10.2529 12.317 10.2273 12.4601 10.1762C12.6033 10.1252 12.7362 10.0383 12.8589 9.91571L16.6319 6.14559C16.8773 5.90038 17 5.60409 17 5.2567C17 4.90932 16.8773 4.61303 16.6319 4.36782C16.3865 4.12261 16.09 4 15.7423 4C15.3947 4 15.0982 4.12261 14.8528 4.36782L12 7.21839Z" fill="#E1E1E1"/>
</svg>
