<svg width="24" height="24" viewBox="0 0 24 24" fill="none" xmlns="http://www.w3.org/2000/svg">
<path d="M10.0603 17.437C9.34625 17.437 8.74056 17.1884 8.24327 16.6911C7.74598 16.1938 7.49734 15.5881 7.49734 14.874V4.563C7.49734 3.84891 7.74598 3.24322 8.24327 2.74593C8.74056 2.24864 9.34625 2 10.0603 2H18.437C19.1511 2 19.7568 2.24864 20.2541 2.74593C20.7514 3.24322 21 3.84891 21 4.563V14.874C21 15.5881 20.7514 16.1938 20.2541 16.6911C19.7568 17.1884 19.1511 17.437 18.437 17.437H10.0603ZM10.0603 14.874H18.437V4.563H10.0603V14.874ZM5.563 21.9343C4.84891 21.9343 4.24322 21.6857 3.74593 21.1884C3.24864 20.6911 3 20.0854 3 19.3713V7.77884C3 7.42292 3.1246 7.12036 3.37381 6.87115C3.62286 6.62194 3.92542 6.49734 4.2815 6.49734C4.63758 6.49734 4.94022 6.62194 5.18943 6.87115C5.43848 7.12036 5.563 7.42292 5.563 7.77884V19.3713H15.2212C15.5771 19.3713 15.8796 19.4959 16.1288 19.7449C16.3781 19.9941 16.5027 20.2968 16.5027 20.6528C16.5027 21.0089 16.3781 21.3115 16.1288 21.5605C15.8796 21.8097 15.5771 21.9343 15.2212 21.9343H5.563Z" fill="#E1E1E1"/>
</svg>
