<svg width="24" height="24" viewBox="0 0 24 24" fill="none" xmlns="http://www.w3.org/2000/svg">
<path d="M10.1624 16.7246C9.48593 16.7246 8.91212 16.4882 8.441 16.0155C7.96989 15.5427 7.73433 14.9669 7.73433 14.2881V5.43653C7.73433 4.75767 7.96989 4.18187 8.441 3.70912C8.91212 3.23637 9.48593 3 10.1624 3H18.0982C18.7747 3 19.3485 3.23637 19.8197 3.70912C20.2908 4.18187 20.5263 4.75767 20.5263 5.43653V14.2881C20.5263 14.9669 20.2908 15.5427 19.8197 16.0155C19.3485 16.4882 18.7747 16.7246 18.0982 16.7246H10.1624ZM10.1624 14.2881H18.0982V5.43653H10.1624V14.2881ZM5.9018 21C5.22529 21 4.65148 20.7636 4.18036 20.2909C3.70925 19.8181 3.47369 19.2423 3.47369 18.5635V8.49368C3.47369 8.15532 3.59174 7.86769 3.82783 7.63078C4.06377 7.39387 4.35041 7.27541 4.68775 7.27541C5.02509 7.27541 5.3118 7.39387 5.54789 7.63078C5.78383 7.86769 5.9018 8.15532 5.9018 8.49368V18.5635H15.0516C15.3888 18.5635 15.6755 18.6819 15.9116 18.9186C16.1476 19.1555 16.2657 19.4432 16.2657 19.7817C16.2657 20.1202 16.1476 20.4079 15.9116 20.6446C15.6755 20.8815 15.3888 21 15.0516 21H5.9018Z" fill="#E1E1E1"/>
</svg>
