<svg width="24" height="24" viewBox="0 0 24 24" fill="none" xmlns="http://www.w3.org/2000/svg">
<path d="M12 13.6107L7.93565 17.6748C7.71899 17.8916 7.45058 18 7.13043 18C6.81029 18 6.54188 17.8916 6.32522 17.6748C6.10841 17.4581 6 17.1897 6 16.8696C6 16.5494 6.10841 16.281 6.32522 16.0643L10.3893 12L6.32522 7.93565C6.10841 7.71899 6 7.45058 6 7.13043C6 6.81029 6.10841 6.54188 6.32522 6.32522C6.54188 6.10841 6.81029 6 7.13043 6C7.45058 6 7.71899 6.10841 7.93565 6.32522L12 10.3893L16.0643 6.32522C16.281 6.10841 16.5494 6 16.8696 6C17.1897 6 17.4581 6.10841 17.6748 6.32522C17.8916 6.54188 18 6.81029 18 7.13043C18 7.45058 17.8916 7.71899 17.6748 7.93565L13.6107 12L17.6748 16.0643C17.8916 16.281 18 16.5494 18 16.8696C18 17.1897 17.8916 17.4581 17.6748 17.6748C17.4581 17.8916 17.1897 18 16.8696 18C16.5494 18 16.281 17.8916 16.0643 17.6748L12 13.6107Z" fill="#E1E1E1"/>
</svg>
