<svg width="24" height="24" viewBox="0 0 24 24" fill="none" xmlns="http://www.w3.org/2000/svg">
<path d="M12.1906 2.89697C12.7418 2.89697 13.189 3.34417 13.189 3.89539C13.189 4.44661 12.7418 4.8938 12.1906 4.8938C8.42789 4.8938 5.37796 7.94372 5.37796 11.7064C5.37796 15.4691 8.42789 18.519 12.1906 18.519C15.9533 18.519 19.0032 15.4691 19.0032 11.7064C19.0032 11.1552 19.4504 10.708 20.0016 10.708C20.5528 10.708 21 11.1552 21 11.7064C21 14.5272 19.6732 17.0372 17.6107 18.6495H17.9183C19.0687 18.6495 20.0016 19.5824 20.0016 20.7328C20.0014 21.0202 19.7685 21.253 19.4812 21.2532H4.89994C4.61262 21.253 4.37973 21.0202 4.37955 20.7328C4.37955 19.5824 5.31245 18.6495 6.46283 18.6495H6.77049C4.70797 17.0372 3.38113 14.5272 3.38113 11.7064C3.38113 6.84128 7.32544 2.89697 12.1906 2.89697Z" fill="#E1E1E1"/>
<path d="M13.2729 11.0233C13.368 10.6046 13.9344 10.5789 14.0882 10.9453L14.1128 11.0233L14.156 11.1852C14.3967 11.981 15.0487 12.5923 15.8689 12.7769C16.3161 12.8781 16.3162 13.5157 15.8689 13.6168C14.9941 13.8136 14.31 14.4957 14.1128 15.3695C14.0117 15.8166 13.374 15.8166 13.2729 15.3695C13.0758 14.4959 12.3922 13.8138 11.5176 13.6168C11.0702 13.5157 11.0701 12.8779 11.5176 12.7769C12.3923 12.5799 13.0758 11.897 13.2729 11.0233Z" fill="#E1E1E1"/>
<path d="M9.58351 7.99499C9.60887 7.64548 10.0631 7.55533 10.2319 7.83226L10.2615 7.89159L10.3158 8.01703C10.6069 8.62969 11.2073 9.04343 11.8914 9.09257C12.2649 9.11937 12.3426 9.63379 11.9939 9.76976C11.3125 10.035 10.8447 10.6685 10.7921 11.3971C10.7652 11.7701 10.2493 11.8488 10.1132 11.5005C9.84773 10.8197 9.2138 10.3519 8.48424 10.2995C8.11148 10.272 8.03352 9.75833 8.38168 9.62229C9.06317 9.35714 9.53088 8.72357 9.58351 7.99499Z" fill="#E1E1E1"/>
<path d="M17.0521 3.92759C17.3153 3.51183 18.0003 3.66065 18.0293 4.19118C18.1131 5.7532 19.0903 7.1286 20.5389 7.72293C21.0639 7.93853 20.932 8.71539 20.3652 8.74592C18.8015 8.82967 17.4251 9.80537 16.8301 11.2521C16.6141 11.7763 15.8368 11.6445 15.8062 11.0784C15.7223 9.51646 14.7444 8.1417 13.2958 7.54748C12.7717 7.3316 12.9034 6.55552 13.4695 6.52449L13.7619 6.49906C15.2037 6.3175 16.4478 5.37395 17.0055 4.01743L17.0521 3.92759Z" fill="#E1E1E1"/>
</svg>
