<svg width="24" height="24" viewBox="0 0 24 24" fill="none" xmlns="http://www.w3.org/2000/svg">
<path d="M12 2.69824C12.6608 2.69831 13.1967 3.23492 13.1969 3.89626C13.1969 4.55777 12.6609 5.09518 12 5.09525C8.35173 5.09525 5.39486 8.05477 5.39486 11.7063C5.39493 15.3578 8.35177 18.3174 12 18.3174C15.6482 18.3173 18.6051 15.3578 18.6051 11.7063C18.6051 11.0449 19.1413 10.5085 19.8021 10.5083C20.463 10.5083 21 11.0448 21 11.7063C21 14.3964 19.8192 16.8089 17.9516 18.459C19.103 18.5745 20.0021 19.5481 20.0021 20.731L19.9874 20.8765C19.9201 21.2042 19.6304 21.4512 19.2831 21.4516H4.71689C4.36949 21.4513 4.07995 21.2043 4.01257 20.8765L3.99794 20.731C3.99794 19.5484 4.89636 18.5748 6.04747 18.459C4.18002 16.8089 3.00004 14.3962 3 11.7063C3 6.73166 7.0298 2.69824 12 2.69824ZM12.9199 10.8696C13.1136 10.3929 13.7728 10.3668 14.031 10.7739L14.0798 10.8676L14.0837 10.8764L14.0856 10.8852L14.111 10.9633L14.1129 10.9711L14.1539 11.1273C14.3736 11.8539 14.9691 12.4124 15.7176 12.5812C16.3715 12.7295 16.3728 13.6631 15.7186 13.8114C14.9698 13.9802 14.3736 14.5386 14.1539 15.2652L14.1149 15.4127C13.9762 16.0265 13.1478 16.0649 12.9228 15.5279L12.8858 15.4127C12.7059 14.6148 12.0824 13.9915 11.284 13.8114C10.6294 13.6634 10.6291 12.7291 11.284 12.5812C12.0824 12.4011 12.7059 11.7769 12.8858 10.9789L12.9199 10.8696ZM9.1964 7.98143C9.23657 7.42753 9.94948 7.29465 10.2139 7.72855L10.2187 7.73538L10.2217 7.7432L10.2519 7.80275L10.2568 7.81252L10.3075 7.93164C10.5675 8.47926 11.1039 8.84936 11.7152 8.89337C12.3006 8.93542 12.423 9.74321 11.8761 9.95665C11.2673 10.1938 10.8491 10.7601 10.8021 11.4115C10.7599 11.9955 9.95289 12.1208 9.73878 11.5735C9.50154 10.9649 8.93504 10.5455 8.28333 10.4985C7.69991 10.4556 7.57547 9.65016 8.12237 9.43624C8.73115 9.19916 9.14926 8.63266 9.1964 7.98143ZM16.6873 3.82206C17.0488 3.25058 17.9913 3.44646 18.0315 4.18136C18.111 5.66574 19.0392 6.97314 20.4147 7.53816C21.1364 7.83481 20.955 8.90388 20.1767 8.94609C18.6916 9.02571 17.384 9.95346 16.819 11.3285C16.5222 12.0487 15.4545 11.8682 15.4123 11.0892C15.3326 9.605 14.4039 8.29834 13.0282 7.73343C12.3078 7.43641 12.4888 6.36842 13.2662 6.32549L13.5442 6.30108C14.9134 6.12851 16.0953 5.23148 16.6249 3.94215L16.6278 3.93434L16.6327 3.92653L16.6785 3.8367L16.6824 3.82889L16.6873 3.82206Z" fill="#E1E1E1"/>
</svg>
