<svg width="24" height="24" viewBox="0 0 24 24" fill="none" xmlns="http://www.w3.org/2000/svg">
<path d="M12 18.6783C12.3277 18.6783 12.6114 18.7919 12.8383 19.0187C13.0652 19.2456 13.1787 19.5293 13.1787 19.857V21.8213C13.1787 22.149 13.0652 22.4326 12.8383 22.6595C12.6114 22.8864 12.3277 23 12 23C11.6723 23 11.3886 22.8864 11.1617 22.6595C10.9348 22.4326 10.8213 22.149 10.8213 21.8213V19.857C10.8213 19.5293 10.9348 19.2456 11.1617 19.0187C11.3886 18.7919 11.6723 18.6783 12 18.6783ZM6.4391 16.3946C6.71751 16.3947 6.96728 16.4775 7.18145 16.6411L7.2716 16.7169L7.27736 16.7226C7.50935 16.9546 7.62925 17.2372 7.62935 17.5609C7.62935 17.8847 7.50944 18.168 7.27736 18.4001L5.902 19.7745C5.66866 20.0079 5.38153 20.1275 5.05127 20.1275C4.72078 20.1274 4.43781 20.0077 4.21876 19.7688C4.00284 19.5493 3.8975 19.2704 3.89746 18.9487C3.89746 18.6237 4.00498 18.3425 4.22548 18.122L5.62481 16.7226C5.8441 16.5034 6.12047 16.3946 6.4391 16.3946ZM17.5369 16.3946C17.8154 16.3947 18.0651 16.4775 18.2793 16.6411L18.3694 16.7169L18.3742 16.7217L19.7688 18.0913L19.8532 18.1776C20.0361 18.3844 20.1235 18.6389 20.115 18.9296C20.1055 19.2526 19.9946 19.536 19.7812 19.7688L19.7755 19.7755L19.7745 19.7745C19.5412 20.0079 19.2541 20.1275 18.9238 20.1275C18.5933 20.1274 18.3103 20.0077 18.0913 19.7688L16.7217 18.3742L16.7169 18.3694C16.5032 18.1363 16.3947 17.8553 16.3946 17.5369C16.3946 17.2183 16.5033 16.9419 16.7226 16.7226C16.9419 16.5033 17.2183 16.3946 17.5369 16.3946ZM12 6.45059C13.5387 6.45059 14.8525 6.99119 15.9306 8.06935C17.0088 9.14751 17.5494 10.4613 17.5494 12C17.5494 13.5387 17.0088 14.8525 15.9306 15.9306C14.8525 17.0088 13.5387 17.5494 12 17.5494C10.4613 17.5494 9.14751 17.0088 8.06935 15.9306C6.99119 14.8525 6.45059 13.5387 6.45059 12C6.45059 10.4613 6.99119 9.14751 8.06935 8.06935C9.14751 6.99119 10.4613 6.45059 12 6.45059ZM12 8.59903C11.0633 8.59903 10.2659 8.93027 9.59808 9.59808C8.93027 10.2659 8.59903 11.0633 8.59903 12C8.59903 12.9367 8.93027 13.7341 9.59808 14.4019C10.2659 15.0697 11.0633 15.401 12 15.401C12.9367 15.401 13.7341 15.0697 14.4019 14.4019C15.0697 13.7341 15.401 12.9367 15.401 12C15.401 11.0633 15.0697 10.2659 14.4019 9.59808C13.7341 8.93027 12.9367 8.59903 12 8.59903ZM4.14299 10.8213C4.47073 10.8213 4.75436 10.9348 4.98125 11.1617C5.20815 11.3886 5.32174 11.6723 5.32174 12C5.32174 12.3277 5.20815 12.6114 4.98125 12.8383C4.75436 13.0652 4.47073 13.1787 4.14299 13.1787H2.17874C1.85101 13.1787 1.56738 13.0652 1.34048 12.8383C1.11359 12.6114 1 12.3277 1 12C1 11.6723 1.11359 11.3886 1.34048 11.1617C1.56738 10.9348 1.85101 10.8213 2.17874 10.8213H4.14299ZM21.8213 10.8213C22.149 10.8213 22.4326 10.9348 22.6595 11.1617C22.8864 11.3886 23 11.6723 23 12C23 12.3277 22.8864 12.6114 22.6595 12.8383C22.4326 13.0652 22.149 13.1787 21.8213 13.1787H19.857C19.5293 13.1787 19.2456 13.0652 19.0187 12.8383C18.7919 12.6114 18.6783 12.3277 18.6783 12C18.6783 11.6723 18.7919 11.3886 19.0187 11.1617C19.2456 10.9348 19.5293 10.8213 19.857 10.8213H21.8213ZM5.05127 3.89746C5.37631 3.89746 5.65753 4.00498 5.87802 4.22548L7.27736 5.62481C7.4977 5.84521 7.60529 6.12577 7.60537 6.45061C7.60537 6.77565 7.49785 7.05686 7.27736 7.27736L7.2716 7.28311C7.03965 7.49573 6.76259 7.60537 6.45061 7.60537C6.13878 7.60528 5.86243 7.49565 5.63057 7.28311L5.62577 7.27832L4.22644 5.90391L4.22548 5.902C3.99214 5.66866 3.87253 5.38153 3.87253 5.05127C3.87257 4.72078 3.99228 4.43781 4.23123 4.21876C4.45073 4.00251 4.72937 3.8975 5.05127 3.89746ZM18.9363 3.87253C19.2601 3.87253 19.5424 3.99339 19.7745 4.22548C19.995 4.44593 20.1025 4.72631 20.1025 5.05127C20.1025 5.37631 19.995 5.65753 19.7745 5.87802L18.3752 7.27736C18.1548 7.4977 17.8742 7.60529 17.5494 7.60537C17.2244 7.60537 16.9431 7.49785 16.7226 7.27736C16.5033 7.05806 16.3946 6.78175 16.3946 6.46307C16.3947 6.14467 16.5032 5.86372 16.7169 5.63057L16.7217 5.62577L18.0961 4.22644L18.098 4.22548C18.3301 3.99339 18.6124 3.87253 18.9363 3.87253ZM12 1C12.3277 1 12.6114 1.11359 12.8383 1.34048C13.0652 1.56738 13.1787 1.85101 13.1787 2.17874V4.14299C13.1787 4.47073 13.0652 4.75436 12.8383 4.98125C12.6114 5.20815 12.3277 5.32174 12 5.32174C11.6723 5.32174 11.3886 5.20815 11.1617 4.98125C10.9348 4.75436 10.8213 4.47073 10.8213 4.14299V2.17874C10.8213 1.85101 10.9348 1.56738 11.1617 1.34048C11.3886 1.11359 11.6723 1 12 1Z" fill="#E1E1E1"/>
</svg>
