<svg width="16" height="16" viewBox="0 0 16 16" fill="none" xmlns="http://www.w3.org/2000/svg">
<g transform="translate(2.95 1.616)">
<path d="M2.38333 2.26667L1.13333 3.51667C1.01111 3.63889 0.858334 3.7 0.675001 3.7C0.491667 3.7 0.333333 3.63889 0.2 3.51667C0.0666668 3.38333 -8.01375e-09 3.225 0 3.04167C8.01375e-09 2.85833 0.0666668 2.7 0.2 2.56667L2.58333 0.183333C2.65 0.116667 2.72222 0.0694444 2.8 0.0416667C2.87778 0.0138889 2.96111 -3.88546e-09 3.05 0C3.13889 3.88546e-09 3.22222 0.0138889 3.3 0.0416667C3.37778 0.0694445 3.45 0.116667 3.51667 0.183333L5.91667 2.58333C6.05 2.71667 6.11389 2.87222 6.10833 3.05C6.10278 3.22778 6.03333 3.38333 5.9 3.51667C5.76667 3.63889 5.61111 3.70278 5.43333 3.70833C5.25556 3.71389 5.1 3.65 4.96667 3.51667L3.71667 2.26667V6.38333C3.71667 6.57222 3.65278 6.73056 3.525 6.85833C3.39722 6.98611 3.23889 7.05 3.05 7.05C2.86111 7.05 2.70278 6.98611 2.575 6.85833C2.44722 6.73056 2.38333 6.57222 2.38333 6.38333L2.38333 2.26667ZM6.38333 10.5V6.38333C6.38333 6.19444 6.44722 6.03611 6.575 5.90833C6.70278 5.78056 6.86111 5.71667 7.05 5.71667C7.23889 5.71667 7.39722 5.78056 7.525 5.90833C7.65278 6.03611 7.71667 6.19444 7.71667 6.38333L7.71667 10.5L8.96667 9.25C9.08889 9.12778 9.24167 9.06667 9.425 9.06667C9.60833 9.06667 9.76667 9.12778 9.9 9.25C10.0333 9.38333 10.1 9.54167 10.1 9.725C10.1 9.90833 10.0333 10.0667 9.9 10.2L7.51667 12.5833C7.45 12.65 7.37778 12.6972 7.3 12.725C7.22222 12.7528 7.13889 12.7667 7.05 12.7667C6.96111 12.7667 6.87778 12.7528 6.8 12.725C6.72222 12.6972 6.65 12.65 6.58333 12.5833L4.18333 10.1833C4.05 10.05 3.98611 9.89444 3.99167 9.71667C3.99722 9.53889 4.06667 9.38333 4.2 9.25C4.33333 9.12778 4.48889 9.06389 4.66667 9.05833C4.84444 9.05278 5 9.11667 5.13333 9.25L6.38333 10.5Z" fill="white"/>
</g>
</svg>
