<svg width="24" height="24" viewBox="0 0 24 24" fill="none" xmlns="http://www.w3.org/2000/svg">
<path d="M22.6045 1.41226C22.6767 1.39178 22.742 1.41622 22.7881 1.45131C22.8331 1.4856 22.8667 1.53435 22.8887 1.58309C22.9108 1.63209 22.9244 1.68904 22.9219 1.74513C22.9194 1.80138 22.8999 1.86663 22.8438 1.91206C20.7909 3.56804 20.6607 6.25857 21.6592 7.92915L21.7598 8.08729L21.7862 8.13513C21.8376 8.25029 21.8163 8.38153 21.7627 8.48069C21.7015 8.59385 21.5822 8.69466 21.4307 8.69154L21.416 8.69057V8.68861C20.0374 8.46684 18.8114 8.62574 17.8975 9.17182C16.9874 9.7157 16.3734 10.653 16.2285 12.0222L16.2276 12.0212C16.2304 12.134 16.1856 12.2446 16.1143 12.3248C16.0393 12.4092 15.9251 12.4715 15.7949 12.4517C14.5364 12.2589 13.4066 12.5702 12.541 13.0257C11.7806 13.426 11.2333 13.9327 10.9815 14.2947H13.9268C15.6894 14.2948 16.8051 15.3593 17.7588 16.3935C18.2393 16.9145 18.6744 17.4232 19.1367 17.805C19.5965 18.1847 20.071 18.4276 20.6231 18.4278C21.076 18.4278 21.3998 18.2695 21.6094 18.0296C21.8206 17.7876 21.9252 17.4527 21.919 17.0885C21.907 16.3989 21.4983 15.6279 20.7256 15.2455L20.7315 15.6272C20.7353 15.9042 20.3978 16.051 20.2051 15.8381C19.7465 15.3305 19.401 14.8484 19.1699 14.491C18.9515 14.153 19.2075 13.7471 19.5938 13.7471H21.1084C21.4137 13.7471 21.5401 14.1412 21.2862 14.3152L21.0332 14.4861C22.1439 15.0447 22.7771 15.8344 23.0039 16.66C23.2407 17.5222 23.0316 18.4109 22.4834 19.0887C21.3891 20.4417 18.9828 20.9283 16.1055 18.8505L16.5 19.3025C16.6985 19.5302 16.8076 19.8218 16.8076 20.1234V22.1178C16.8074 22.3693 16.6134 22.5843 16.3614 22.5844H14.3936C14.2723 22.5841 14.1856 22.4807 14.1856 22.3686C14.1857 22.0731 14.3433 21.7988 14.5987 21.6638L15.3281 21.2782L15.1739 20.4173C14.6521 20.4413 14.1518 20.2319 13.8028 19.8589L13.1826 22.2788C13.1393 22.4539 12.9876 22.5842 12.8067 22.5844H10.9102C10.7892 22.5844 10.7034 22.4818 10.7031 22.3706C10.7032 22.054 10.8853 21.7645 11.1699 21.6443L12.0957 21.2529V20.1674C11.5147 20.1233 11.0364 19.7142 10.8936 19.1678C10.6257 19.164 10.3533 19.1589 10.1114 19.158L8.84377 22.3745C8.80007 22.4853 8.70027 22.5629 8.58499 22.5805L8.53518 22.5844H6.88772C6.77047 22.5838 6.67678 22.4879 6.67678 22.3716C6.67716 22.0697 6.85393 21.7962 7.12893 21.6707L7.86428 21.3339L7.83303 19.1834L6.44241 19.159L4.9385 22.3833L4.93948 22.3842C4.88672 22.5022 4.77301 22.5843 4.64065 22.5844H2.4512C2.33208 22.5843 2.2471 22.4827 2.2471 22.3735C2.24731 22.0553 2.43783 21.7675 2.72854 21.659L3.80471 21.2568L4.56741 18.4483C3.86067 17.7243 3.53491 17.0553 3.45706 16.4189C3.37796 15.7715 3.55664 15.1729 3.82131 14.6061C3.95364 14.3228 4.10826 14.0451 4.26467 13.7725C4.42174 13.4988 4.57969 13.2311 4.7217 12.9623C4.99102 12.4524 5.19214 11.9525 5.21292 11.4375C4.82083 11.3763 4.34644 11.3652 3.9551 11.4785C3.74589 11.5391 3.5658 11.6331 3.43362 11.7674C3.33562 11.8671 3.26137 11.9918 3.2217 12.1482L3.19338 12.3161C3.18852 12.3712 3.16353 12.4247 3.12112 12.4615C3.07641 12.5001 3.0116 12.5193 2.94436 12.4976C2.78762 12.4468 2.63798 12.3224 2.5137 12.1921C2.38709 12.0593 2.27618 11.9091 2.19729 11.7938C2.09117 11.6387 2.12422 11.4359 2.25686 11.3135L2.77737 10.8323C2.60384 10.8783 2.42281 10.9545 2.24905 11.049C1.97147 11.2 1.72018 11.3858 1.55276 11.5224C1.45206 11.6043 1.29425 11.5831 1.22854 11.46C1.14012 11.2941 0.986154 10.9771 0.925806 10.68C0.895836 10.5322 0.885691 10.3765 0.929713 10.2436C0.976429 10.1029 1.08106 9.99584 1.25295 9.95275C1.31453 9.9373 1.41164 9.8951 1.5303 9.83268C1.647 9.77128 1.77878 9.69458 1.90823 9.615C2.16677 9.45604 2.41327 9.28901 2.51174 9.2216C2.51234 9.22119 2.51362 9.22018 2.5137 9.21867C2.5137 8.81692 2.72403 8.44383 3.06838 8.23665L4.39944 7.43521L5.58889 6.04906C5.65232 5.97506 5.77607 5.93886 5.86819 6.00513L5.9053 6.04027L5.9678 6.13008C6.09102 6.34729 6.06999 6.62363 6.00881 6.86416C5.98344 6.96391 5.94809 7.06122 5.91116 7.1531L7.52737 5.87042L7.58108 5.8382C7.63723 5.81462 7.69905 5.81597 7.75198 5.8382C7.82359 5.86831 7.87926 5.93749 7.88088 6.02856C7.88887 6.57413 7.64002 7.06715 7.33792 7.4479C7.10243 7.74465 6.82858 7.98048 6.60256 8.12829C7.42306 8.49544 7.85813 9.01109 8.05667 9.60133C8.26713 10.2274 8.20669 10.9228 8.09182 11.58C8.03435 11.9088 7.96222 12.235 7.90139 12.5376C7.84012 12.8425 7.78963 13.1253 7.77444 13.3781C7.75923 13.6316 7.77988 13.8467 7.85159 14.0185C7.91478 14.1697 8.02184 14.2891 8.19045 14.3777C9.4112 13.3082 9.73507 11.6147 9.68264 9.98692C9.62959 8.34011 9.19399 6.78975 8.95413 6.09689C8.82133 5.7133 9.02602 5.27173 9.42581 5.15782L22.6045 1.41226Z" fill="#E1E1E1"/>
</svg>
