<svg width="16" height="16" viewBox="0 0 16 16" fill="none" xmlns="http://www.w3.org/2000/svg">
<path d="M12.099 2.36304C11.8661 2.13027 11.5504 1.99951 11.2212 1.99951C10.8919 1.99951 10.5762 2.13027 10.3433 2.36304L9.54147 3.1654C9.42031 3.28663 9.42034 3.48312 9.54153 3.60431L12.3948 6.45761C12.516 6.57881 12.7125 6.57884 12.8337 6.45768L13.6355 5.65643C13.7508 5.54112 13.8423 5.40423 13.9048 5.25355C13.9672 5.10288 13.9993 4.94139 13.9993 4.77829C13.9993 4.6152 13.9672 4.4537 13.9048 4.30303C13.8423 4.15236 13.7508 4.01546 13.6355 3.90016L12.099 2.36304ZM11.517 7.77434C11.6382 7.65312 11.6382 7.45659 11.517 7.33538L8.66378 4.4822C8.54256 4.36098 8.34602 4.36098 8.2248 4.4822L3.38008 9.32692C3.10647 9.60053 2.92487 9.95257 2.86052 10.3341L2.43662 12.8476C2.3656 13.2687 2.73105 13.6341 3.15212 13.563L5.66575 13.1387C6.04724 13.0743 6.3992 12.8927 6.67275 12.6191L11.517 7.77434Z" fill="white"/>
</svg>
