<svg width="24" height="24" viewBox="0 0 24 24" fill="none" xmlns="http://www.w3.org/2000/svg">
<path d="M5.22917 20.7772C4.74306 20.2953 4.5 19.7101 4.5 19.0217C4.5 18.3333 4.74306 17.7482 5.22917 17.2663C5.71528 16.7844 6.30556 16.5435 7 16.5435C7.19444 16.5435 7.375 16.5641 7.54167 16.6054C7.70833 16.6467 7.86806 16.7018 8.02083 16.7707L9.20833 15.3043C8.81944 14.8775 8.54861 14.3957 8.39583 13.8587C8.24306 13.3217 8.20833 12.7848 8.29167 12.2478L6.60417 11.6902C6.36806 12.0344 6.06944 12.3098 5.70833 12.5163C5.34722 12.7228 4.94444 12.8261 4.5 12.8261C3.80556 12.8261 3.21528 12.5851 2.72917 12.1033C2.24306 11.6214 2 11.0362 2 10.3478C2 9.65942 2.24306 9.07428 2.72917 8.59239C3.21528 8.11051 3.80556 7.86957 4.5 7.86957C5.19444 7.86957 5.78472 8.11051 6.27083 8.59239C6.75694 9.07428 7 9.65942 7 10.3478V10.513L8.6875 11.0913C8.96528 10.5957 9.33681 10.1757 9.80208 9.83152C10.2674 9.48732 10.7917 9.26703 11.375 9.17065V7.37391C10.8333 7.22246 10.3854 6.92989 10.0312 6.4962C9.67708 6.0625 9.5 5.55652 9.5 4.97826C9.5 4.28986 9.74306 3.70471 10.2292 3.22283C10.7153 2.74094 11.3056 2.5 12 2.5C12.6944 2.5 13.2847 2.74094 13.7708 3.22283C14.2569 3.70471 14.5 4.28986 14.5 4.97826C14.5 5.55652 14.3194 6.0625 13.9583 6.4962C13.5972 6.92989 13.1528 7.22246 12.625 7.37391V9.17065C13.2083 9.26703 13.7326 9.48732 14.1979 9.83152C14.6632 10.1757 15.0347 10.5957 15.3125 11.0913L17 10.513V10.3478C17 9.65942 17.2431 9.07428 17.7292 8.59239C18.2153 8.11051 18.8056 7.86957 19.5 7.86957C20.1944 7.86957 20.7847 8.11051 21.2708 8.59239C21.7569 9.07428 22 9.65942 22 10.3478C22 11.0362 21.7569 11.6214 21.2708 12.1033C20.7847 12.5851 20.1944 12.8261 19.5 12.8261C19.0556 12.8261 18.6493 12.7228 18.2812 12.5163C17.9132 12.3098 17.6181 12.0344 17.3958 11.6902L15.7083 12.2478C15.7917 12.7848 15.7569 13.3183 15.6042 13.8484C15.4514 14.3784 15.1806 14.8638 14.7917 15.3043L15.9792 16.75C16.1319 16.6812 16.2917 16.6295 16.4583 16.5951C16.625 16.5607 16.8056 16.5435 17 16.5435C17.6944 16.5435 18.2847 16.7844 18.7708 17.2663C19.2569 17.7482 19.5 18.3333 19.5 19.0217C19.5 19.7101 19.2569 20.2953 18.7708 20.7772C18.2847 21.2591 17.6944 21.5 17 21.5C16.3056 21.5 15.7153 21.2591 15.2292 20.7772C14.7431 20.2953 14.5 19.7101 14.5 19.0217C14.5 18.7464 14.5451 18.4813 14.6354 18.2266C14.7257 17.9719 14.8472 17.7413 15 17.5348L13.8125 16.0685C13.2431 16.3851 12.6354 16.5435 11.9896 16.5435C11.3438 16.5435 10.7361 16.3851 10.1667 16.0685L9 17.5348C9.15278 17.7413 9.27431 17.9719 9.36458 18.2266C9.45486 18.4813 9.5 18.7464 9.5 19.0217C9.5 19.7101 9.25694 20.2953 8.77083 20.7772C8.28472 21.2591 7.69444 21.5 7 21.5C6.30556 21.5 5.71528 21.2591 5.22917 20.7772Z" fill="#E1E1E1"/>
</svg>
