<svg width="24" height="24" viewBox="0 0 24 24" fill="none" xmlns="http://www.w3.org/2000/svg">
<path d="M11.6839 16.6552L14.3563 13.9828C14.5862 13.7529 14.864 13.6379 15.1897 13.6379C15.5153 13.6379 15.7931 13.7529 16.023 13.9828C16.2529 14.2126 16.3678 14.4904 16.3678 14.8161C16.3678 15.1418 16.2529 15.4195 16.023 15.6494L12.4885 19.1839C12.3736 19.2989 12.249 19.3803 12.1149 19.4282C11.9808 19.4761 11.8372 19.5 11.6839 19.5C11.5307 19.5 11.387 19.4761 11.2529 19.4282C11.1188 19.3803 10.9943 19.2989 10.8793 19.1839L7.34483 15.6494C7.11494 15.4195 7 15.1418 7 14.8161C7 14.4904 7.11494 14.2126 7.34483 13.9828C7.57471 13.7529 7.85249 13.6379 8.17816 13.6379C8.50383 13.6379 8.78161 13.7529 9.01149 13.9828L11.6839 16.6552ZM11.6839 7.34483L9.01149 10.0172C8.78161 10.2471 8.50383 10.3621 8.17816 10.3621C7.85249 10.3621 7.57471 10.2471 7.34483 10.0172C7.11494 9.78736 7 9.50958 7 9.18391C7 8.85824 7.11494 8.58046 7.34483 8.35057L10.8793 4.81609C10.9943 4.70115 11.1188 4.61973 11.2529 4.57184C11.387 4.52395 11.5307 4.5 11.6839 4.5C11.8372 4.5 11.9808 4.52395 12.1149 4.57184C12.249 4.61973 12.3736 4.70115 12.4885 4.81609L16.023 8.35057C16.2529 8.58046 16.3678 8.85824 16.3678 9.18391C16.3678 9.50958 16.2529 9.78736 16.023 10.0172C15.7931 10.2471 15.5153 10.3621 15.1897 10.3621C14.864 10.3621 14.5862 10.2471 14.3563 10.0172L11.6839 7.34483Z" fill="#E1E1E1"/>
</svg>
