<svg width="24" height="24" viewBox="0 0 24 24" fill="none" xmlns="http://www.w3.org/2000/svg">
<path d="M12 16.9655L14.8528 14.1149C15.0982 13.8697 15.3947 13.7471 15.7423 13.7471C16.09 13.7471 16.3865 13.8697 16.6319 14.1149C16.8773 14.3602 17 14.6564 17 15.0038C17 15.3512 16.8773 15.6475 16.6319 15.8927L12.8589 19.6628C12.7362 19.7854 12.6033 19.8723 12.4601 19.9234C12.317 19.9745 12.1636 20 12 20C11.8364 20 11.683 19.9745 11.5399 19.9234C11.3967 19.8723 11.2638 19.7854 11.1411 19.6628L7.3681 15.8927C7.1227 15.6475 7 15.3512 7 15.0038C7 14.6564 7.1227 14.3602 7.3681 14.1149C7.6135 13.8697 7.91002 13.7471 8.25767 13.7471C8.60532 13.7471 8.90184 13.8697 9.14724 14.1149L12 16.9655ZM12 7.03448L9.14724 9.88506C8.90184 10.1303 8.60532 10.2529 8.25767 10.2529C7.91002 10.2529 7.6135 10.1303 7.3681 9.88506C7.1227 9.63985 7 9.34355 7 8.99617C7 8.64879 7.1227 8.35249 7.3681 8.10728L11.1411 4.33716C11.2638 4.21456 11.3967 4.12771 11.5399 4.07663C11.683 4.02554 11.8364 4 12 4C12.1636 4 12.317 4.02554 12.4601 4.07663C12.6033 4.12771 12.7362 4.21456 12.8589 4.33716L16.6319 8.10728C16.8773 8.35249 17 8.64879 17 8.99617C17 9.34355 16.8773 9.63985 16.6319 9.88506C16.3865 10.1303 16.09 10.2529 15.7423 10.2529C15.3947 10.2529 15.0982 10.1303 14.8528 9.88506L12 7.03448Z" fill="#E1E1E1"/>
</svg>
