<svg width="24" height="24" viewBox="0 0 24 24" fill="none" xmlns="http://www.w3.org/2000/svg">
<path d="M11.9973 9.56065C13.3161 9.56065 14.3862 10.6631 14.3862 12.0232C14.3859 13.383 13.3159 14.4857 11.9973 14.4857C10.6788 14.4854 9.6097 13.3828 9.60945 12.0232C9.60945 10.6633 10.6787 9.56092 11.9973 9.56065Z" fill="#E1E1E1"/>
<path fill-rule="evenodd" clip-rule="evenodd" d="M11.9753 4.5C13.8936 4.5 15.6378 5.26712 16.9373 6.51838L16.969 6.48448L21.6647 11.327C21.7678 11.3975 21.8527 11.4937 21.9112 11.6062C21.9697 11.7186 22.0002 11.8447 22 11.9723C21.9999 12.1724 21.9236 12.3534 21.8027 12.491L17.4085 17.0228L17.392 17.0047C16.0606 18.5363 14.127 19.5 11.9753 19.5C10.1418 19.502 8.37585 18.7874 7.03315 17.4997L7.02329 17.5099L2.28272 12.6221C2.19484 12.5503 2.12348 12.4583 2.07452 12.3543C2.02571 12.2504 2.00032 12.1364 2 12.0209C2.00058 11.8332 2.06748 11.6515 2.18848 11.5112L2.1852 11.5078L6.55537 7.00094C7.88699 5.46642 9.8214 4.50007 11.9753 4.5ZM11.9753 6.91844C9.25386 6.91874 7.04739 9.19387 7.04739 12.0006C7.04751 14.8072 9.25393 17.0824 11.9753 17.0827C14.697 17.0827 16.9043 14.8073 16.9044 12.0006C16.9044 9.19398 14.6971 6.91844 11.9753 6.91844Z" fill="#E1E1E1"/>
</svg>
