<svg width="24" height="24" viewBox="0 0 24 24" fill="none" xmlns="http://www.w3.org/2000/svg">
<path d="M12.0001 9.56526C13.3689 9.56548 14.4789 10.6557 14.4789 12.0005C14.4789 13.3453 13.3689 14.4355 12.0001 14.4357C10.6312 14.4357 9.52137 13.3454 9.52137 12.0005C9.52137 10.6555 10.6312 9.56526 12.0001 9.56526Z" fill="#E1E1E1"/>
<path fill-rule="evenodd" clip-rule="evenodd" d="M6.39096 7.28224C9.4886 4.23931 14.5108 4.2392 17.6084 7.28224L21.7099 11.3118C22.0966 11.6921 22.0967 12.3089 21.7099 12.6892L17.6084 16.7178C14.5107 19.7606 9.48849 19.7609 6.39096 16.7178L2.29034 12.6882C1.90326 12.3078 1.90318 11.6912 2.29034 11.3108L6.39096 7.28224ZM12.0001 7.13004C9.26228 7.13004 7.04279 9.31076 7.0426 12.0005C7.04284 14.6902 9.26231 16.8709 12.0001 16.8709C14.7378 16.8707 16.9574 14.69 16.9577 12.0005C16.9575 9.3109 14.7378 7.13026 12.0001 7.13004Z" fill="#E1E1E1"/>
</svg>
