<svg width="24" height="24" viewBox="0 0 24 24" fill="none" xmlns="http://www.w3.org/2000/svg">
<path d="M11.9973 9.06065C13.3161 9.06065 14.3862 10.1631 14.3862 11.5232C14.3859 12.883 13.3159 13.9857 11.9973 13.9857C10.6788 13.9854 9.6097 12.8828 9.60945 11.5232C9.60945 10.1633 10.6787 9.06092 11.9973 9.06065Z" fill="#E1E1E1"/>
<path fill-rule="evenodd" clip-rule="evenodd" d="M11.9753 4C13.8936 4 15.6378 4.76712 16.9373 6.01838L16.969 5.98448L21.6647 10.827C21.7678 10.8975 21.8527 10.9937 21.9112 11.1062C21.9697 11.2186 22.0002 11.3447 22 11.4723C21.9999 11.6724 21.9236 11.8534 21.8027 11.991L17.4085 16.5228L17.392 16.5047C16.0606 18.0363 14.127 19 11.9753 19C10.1418 19.002 8.37585 18.2874 7.03315 16.9997L7.02329 17.0099L2.28272 12.1221C2.19484 12.0503 2.12348 11.9583 2.07452 11.8543C2.02571 11.7504 2.00032 11.6364 2 11.5209C2.00058 11.3332 2.06748 11.1515 2.18848 11.0112L2.1852 11.0078L6.55537 6.50094C7.88699 4.96642 9.8214 4.00007 11.9753 4ZM11.9753 6.41844C9.25386 6.41874 7.04739 8.69387 7.04739 11.5006C7.04751 14.3072 9.25393 16.5824 11.9753 16.5827C14.697 16.5827 16.9043 14.3073 16.9044 11.5006C16.9044 8.69398 14.6971 6.41844 11.9753 6.41844Z" fill="#E1E1E1"/>
</svg>
