<svg width="24" height="24" viewBox="0 0 24 24" fill="none" xmlns="http://www.w3.org/2000/svg">
<path fill-rule="evenodd" clip-rule="evenodd" d="M4.94727 3.69133C5.33779 3.30081 5.97178 3.30081 6.3623 3.69133L19.873 17.2021C20.2636 17.5926 20.2636 18.2266 19.873 18.6171L19.625 18.8642C19.2344 19.2543 18.6013 19.2546 18.2109 18.8642L16.6172 17.2704C15.3576 18.3492 13.7408 18.9999 11.9756 18.9999C10.1421 19.002 8.37589 18.2875 7.0332 16.9999L7.02344 17.0097L2.2832 12.122C2.19533 12.0502 2.12318 11.9584 2.07422 11.8544C2.02542 11.7505 2.00033 11.6359 2 11.5204C2.00067 11.3328 2.06756 11.1508 2.18848 11.0107L2.18555 11.0077L6.20605 6.8593L4.7002 5.35344C4.30979 4.96304 4.31004 4.32993 4.7002 3.93938L4.94727 3.69133ZM7.93555 8.58879C7.37565 9.41336 7.04785 10.4179 7.04785 11.5009C7.04819 14.3073 9.25431 16.5826 11.9756 16.5829C13.08 16.5829 14.099 16.207 14.9209 15.5741L13.0674 13.7206C12.745 13.8879 12.3825 13.9853 11.9971 13.9853C10.6788 13.9849 9.60977 12.8828 9.60938 11.5234C9.60938 11.1525 9.68959 10.8007 9.83203 10.4853L7.93555 8.58879Z" fill="#D9D9D9"/>
<path d="M11.9756 3.99992C13.8938 3.99999 15.6381 4.76727 16.9375 6.01848L16.9688 5.9843L21.665 10.8271C21.7681 10.8976 21.8527 10.994 21.9111 11.1064C21.9695 11.2188 22.0002 11.345 22 11.4726C21.9998 11.6725 21.9235 11.8536 21.8027 11.9911L19.9551 13.8959C19.8579 13.996 19.6975 13.9972 19.5988 13.8986L17.1638 11.4636C16.9904 11.2901 16.8907 11.0581 16.8588 10.8149C16.5448 8.41439 14.6056 6.54631 12.2205 6.4258C12.1569 6.42258 12.096 6.3967 12.0509 6.35162L10.2833 4.5832C10.1491 4.44893 10.2081 4.22111 10.3931 4.17867C10.9025 4.06185 11.4321 3.99994 11.9756 3.99992Z" fill="#D9D9D9"/>
</svg>
