<svg width="24" height="24" viewBox="0 0 24 24" fill="none" xmlns="http://www.w3.org/2000/svg">
<path fill-rule="evenodd" clip-rule="evenodd" d="M5.78595 3.86761C5.98119 3.67237 6.29771 3.6724 6.49298 3.86761L19.6893 17.0629C19.8844 17.2581 19.8843 17.5747 19.6893 17.77L18.6287 18.8315C18.4336 19.0265 18.1169 19.0263 17.9217 18.8315L16.6258 17.5356C13.526 19.7281 9.17886 19.4576 6.39044 16.7182L2.28985 12.6889C1.90303 12.3086 1.90309 11.6913 2.28985 11.311L6.38067 7.29046L4.7254 5.63519C4.53023 5.43996 4.53026 5.12341 4.7254 4.92816L5.78595 3.86761ZM8.09259 9.00238C7.43458 9.82896 7.04286 10.8708 7.04278 12.0014C7.04342 14.6906 9.26249 16.8712 11.9998 16.8715C13.1189 16.8714 14.1515 16.5057 14.9813 15.891L13.2127 14.1225C12.854 14.3207 12.4406 14.4359 11.9998 14.436C10.6313 14.4357 9.5217 13.3458 9.5213 12.0014C9.5213 11.5527 9.64567 11.1319 9.86114 10.7709L8.09259 9.00238Z" fill="#E1E1E1"/>
<path d="M10.3724 5.62501C10.208 5.46057 10.2858 5.18157 10.5144 5.13895C13.0058 4.67447 15.6798 5.38827 17.6082 7.28265L21.7098 11.3119C22.0965 11.6923 22.0966 12.3096 21.7098 12.6899L19.907 14.4591C19.7113 14.6513 19.3972 14.6498 19.2033 14.4558L17.0451 12.2976C16.9857 12.2383 16.9547 12.1568 16.9568 12.0729C16.9574 12.0491 16.9578 12.0253 16.9578 12.0014C16.9576 9.31182 14.7375 7.13053 11.9998 7.13031C11.9237 7.13033 11.8502 7.10278 11.7964 7.04896L10.3724 5.62501Z" fill="#E1E1E1"/>
</svg>
