<svg width="24" height="24" viewBox="0 0 24 24" fill="none" xmlns="http://www.w3.org/2000/svg">
<path d="M12.8473 17.5046C13.0977 17.2542 13.2229 16.9494 13.2229 16.5902C13.2229 16.231 13.0977 15.9273 12.8473 15.6792C12.5967 15.4313 12.2921 15.3073 11.9334 15.3073C11.5748 15.3073 11.2702 15.4313 11.0197 15.6792C10.7691 15.9273 10.6438 16.231 10.6438 16.5902C10.6438 16.9494 10.7691 17.2542 11.0197 17.5046C11.2702 17.7552 11.5748 17.8805 11.9334 17.8805C12.2921 17.8805 12.5967 17.7552 12.8473 17.5046ZM12 22C10.613 22 9.31164 21.7377 8.09585 21.213C6.8799 20.6883 5.82223 19.9764 4.92284 19.0772C4.02362 18.1778 3.31167 17.1201 2.787 15.9041C2.26233 14.6884 2 13.387 2 12C2 10.613 2.26233 9.31164 2.787 8.09585C3.31167 6.8799 4.02362 5.82223 4.92284 4.92284C5.82223 4.02362 6.8799 3.31167 8.09585 2.787C9.31164 2.26233 10.613 2 12 2C13.387 2 14.6884 2.26233 15.9041 2.787C17.1201 3.31167 18.1778 4.02362 19.0772 4.92284C19.9764 5.82223 20.6883 6.8799 21.213 8.09585C21.7377 9.31164 22 10.613 22 12C22 13.387 21.7377 14.6884 21.213 15.9041C20.6883 17.1201 19.9764 18.1778 19.0772 19.0772C18.1778 19.9764 17.1201 20.6883 15.9041 21.213C14.6884 21.7377 13.387 22 12 22ZM12 19.7703C14.1732 19.7703 16.0115 19.0186 17.5152 17.5152C19.0186 16.0115 19.7703 14.1732 19.7703 12C19.7703 9.82683 19.0186 7.98845 17.5152 6.48484C16.0115 4.9814 14.1732 4.22968 12 4.22968C9.82683 4.22968 7.98845 4.9814 6.48484 6.48484C4.9814 7.98845 4.22968 9.82683 4.22968 12C4.22968 14.1732 4.9814 16.0115 6.48484 17.5152C7.98845 19.0186 9.82683 19.7703 12 19.7703ZM12.0804 7.90866C12.4572 7.90866 12.7851 8.03043 13.0641 8.27398C13.343 8.51753 13.4824 8.82193 13.4824 9.18717C13.4824 9.52693 13.379 9.82978 13.1722 10.0957C12.9652 10.3618 12.7307 10.6095 12.4687 10.8388C12.093 11.1655 11.7613 11.5269 11.4734 11.9228C11.1856 12.3188 11.0417 12.7618 11.0417 13.2518C11.0417 13.4937 11.1328 13.6968 11.3149 13.8609C11.4972 14.0251 11.7098 14.1072 11.9527 14.1072C12.2129 14.1072 12.4347 14.0206 12.6179 13.8474C12.801 13.6743 12.9249 13.4594 12.9896 13.2028C13.0628 12.8753 13.2069 12.5836 13.4218 12.3278C13.637 12.072 13.8693 11.8274 14.1189 11.594C14.4946 11.2386 14.8133 10.8456 15.075 10.4152C15.3367 9.98463 15.4675 9.50994 15.4675 8.99115C15.4675 8.15025 15.1315 7.45945 14.4595 6.91877C13.7875 6.3781 13.0043 6.10776 12.1098 6.10776C11.4734 6.10776 10.8705 6.24236 10.301 6.51155C9.7316 6.78075 9.29212 7.18879 8.98258 7.73567C8.86039 7.94328 8.82152 8.16511 8.86595 8.40114C8.91054 8.63718 9.03068 8.81645 9.22637 8.93896C9.46682 9.08124 9.71837 9.12493 9.98103 9.07005C10.2435 9.01533 10.4643 8.86971 10.6433 8.63318C10.8152 8.40368 11.0282 8.22555 11.2826 8.09879C11.5371 7.97203 11.803 7.90866 12.0804 7.90866Z" fill="#E1E1E1"/>
</svg>
