<svg width="24" height="24" viewBox="0 0 24 24" fill="none" xmlns="http://www.w3.org/2000/svg">
<path d="M11.8627 2.00065C14.3241 1.97261 16.7106 2.84945 18.5661 4.46451C20.4215 6.07965 21.6169 8.3207 21.9226 10.7594C22.2282 13.1982 21.6221 15.6636 20.222 17.6851C18.8218 19.7067 16.725 21.1429 14.3322 21.7201C11.9395 22.2972 9.41718 21.9753 7.24671 20.8159C6.17515 20.2435 5.22692 19.4858 4.439 18.5883V19.8908C4.439 20.5643 3.89301 21.1103 3.2195 21.1103C2.54599 21.1103 2 20.5643 2 19.8908V15.0126C2.00022 14.3393 2.54612 13.7931 3.2195 13.7931H8.10988C8.78326 13.7931 9.32916 14.3393 9.32938 15.0126C9.32938 15.6861 8.78339 16.2321 8.10988 16.2321H5.6947C6.37884 17.2417 7.30208 18.0803 8.3957 18.6646C10.0386 19.5421 11.9487 19.7857 13.7605 19.3486C15.5722 18.9116 17.1588 17.8253 18.2174 16.2969C19.2759 14.7686 19.7336 12.9049 19.5027 11.0624C19.2717 9.22001 18.3681 7.52608 16.9646 6.3043C15.5608 5.08247 13.7543 4.4185 11.8903 4.43974C10.0264 4.46103 8.23615 5.16619 6.86085 6.41959C5.8239 7.36472 5.07673 8.57153 4.69147 9.90005C4.50396 10.5469 3.82819 10.9192 3.18139 10.7318C2.53466 10.5443 2.16231 9.86846 2.34965 9.22168C2.85945 7.46338 3.8463 5.86563 5.21738 4.616C7.03543 2.95909 9.40134 2.02872 11.8627 2.00065Z" fill="#E1E1E1"/>
<path d="M11.9742 6.45294C12.6142 6.45294 13.1335 6.97098 13.1336 7.6096V11.6065L15.4145 13.9512C15.867 14.4029 15.8671 15.1346 15.4145 15.5862C14.9619 16.0375 14.2284 16.0376 13.7758 15.5862L11.1548 12.9022C10.9376 12.6854 10.8148 12.3913 10.8147 12.0847V7.6096C10.8148 6.97105 11.3342 6.45304 11.9742 6.45294Z" fill="#E1E1E1"/>
</svg>
