<svg width="24" height="24" viewBox="0 0 24 24" fill="none" xmlns="http://www.w3.org/2000/svg">
<path d="M18.2505 9.62472C18.4959 9.65878 18.6774 9.86949 18.6774 10.1173V13.0311C18.6773 15.7201 18.0267 17.414 16.8761 18.7092C15.7734 19.9505 14.2003 20.8407 12.2335 21.8776C12.088 21.9543 11.9138 21.9543 11.7683 21.8777C9.80104 20.8408 8.22768 19.9506 7.12475 18.7092C5.97406 17.4141 5.32362 15.7204 5.32353 13.0311V10.1164C5.32353 9.86861 5.50498 9.65789 5.75042 9.62386C9.89172 9.04952 14.1093 9.04991 18.2505 9.62472ZM12 11.3283C11 11.3283 10.5 12.101 10.5 13.0565V16.5907C10.5 16.7287 10.6119 16.8407 10.75 16.8407H13.25C13.3881 16.8407 13.5 16.7287 13.5 16.5907V13.0565C13.5 12.101 13 11.3283 12 11.3283ZM12.0009 2C12.6485 2.00001 13.2813 2.00865 13.8923 2.02263V4.50498H17.5768V2.2055C18.8285 2.30829 19.8371 2.44315 20.5 2.59841V5.7706L20.4964 5.88829C20.4596 6.47621 20.1485 7.01572 19.6529 7.33949L19.1366 7.67548C19.0345 7.74191 18.9117 7.76867 18.7911 7.75144C14.2839 7.10737 9.71165 7.12397 5.20547 7.75136C5.08536 7.76809 4.96315 7.74114 4.86156 7.67491L4.34705 7.33949C3.81849 6.99431 3.50003 6.40301 3.5 5.76969V2.59841C4.16287 2.44311 5.1718 2.30831 6.42408 2.2055V4.50498H10.1086V2.02263C10.7199 2.00864 11.3531 2 12.0009 2Z" fill="#E1E1E1"/>
</svg>
