<svg width="24" height="24" viewBox="0 0 24 24" fill="none" xmlns="http://www.w3.org/2000/svg">
<path d="M11.5713 15.3721C11.4346 15.3205 11.3103 15.2387 11.1983 15.1269L7.50875 11.4371C7.28475 11.2131 7.17592 10.9479 7.18225 10.6414C7.18859 10.3349 7.29742 10.0697 7.50875 9.84588C7.73659 9.61788 8.00592 9.50071 8.31675 9.49438C8.62775 9.48804 8.89717 9.59879 9.125 9.82662L10.8625 11.5641V4.93437C10.8625 4.61521 10.9723 4.34579 11.1918 4.12612C11.4114 3.90662 11.6808 3.79688 12 3.79688C12.3192 3.79688 12.5886 3.90662 12.8083 4.12612C13.0278 4.34579 13.1375 4.61521 13.1375 4.93437V11.5641L14.875 9.82662C15.0988 9.59879 15.3663 9.48704 15.6773 9.49138C15.9881 9.49571 16.2574 9.61188 16.4853 9.83988C16.7006 10.0677 16.8114 10.3339 16.8178 10.6384C16.8241 10.9429 16.7133 11.2091 16.4853 11.4371L12.8018 15.1269C12.6898 15.2387 12.5654 15.3205 12.4288 15.3721C12.2923 15.4238 12.1493 15.4496 12 15.4496C11.8507 15.4496 11.7078 15.4238 11.5713 15.3721ZM6.07175 20.2034C5.44209 20.2034 4.9055 19.9816 4.462 19.5381C4.0185 19.0946 3.79675 18.558 3.79675 17.9284V16.0659C3.79675 15.7467 3.9065 15.4773 4.126 15.2576C4.34567 15.0381 4.61509 14.9284 4.93425 14.9284C5.25342 14.9284 5.52284 15.0381 5.7425 15.2576C5.962 15.4773 6.07175 15.7467 6.07175 16.0659V17.9284H17.9283V16.0659C17.9283 15.7467 18.038 15.4773 18.2575 15.2576C18.4772 15.0381 18.7466 14.9284 19.0658 14.9284C19.3849 14.9284 19.6543 15.0381 19.874 15.2576C20.0935 15.4773 20.2033 15.7467 20.2033 16.0659V17.9284C20.2033 18.558 19.9815 19.0946 19.538 19.5381C19.0945 19.9816 18.5579 20.2034 17.9283 20.2034H6.07175Z" fill="#E1E1E1"/>
</svg>
