<svg width="24" height="24" viewBox="0 0 24 24" fill="none" xmlns="http://www.w3.org/2000/svg">
<path fill-rule="evenodd" clip-rule="evenodd" d="M18.974 7.17267C18.9671 7.22975 18.9586 7.2867 18.9496 7.34275L18.929 7.46846C18.923 7.51283 18.9154 7.55665 18.9083 7.59787C18.4652 9.81123 16.4311 11.4202 14.071 11.4228L13.6229 11.4228L13.6209 22.4604C13.6209 22.7576 13.38 22.9986 13.0827 22.9988L10.9318 23C10.6311 23.0002 10.3885 22.754 10.3931 22.4533L10.413 21.1548L8.56931 21.1577C8.2716 21.1581 8.03001 20.9169 8.03001 20.6192L8.03001 19.5342C8.03001 19.2371 8.27058 18.9962 8.56764 18.9957L10.4074 18.9928L10.4074 18.4345L8.56973 18.4388C8.27185 18.4395 8.03001 18.1982 8.03001 17.9003L8.03001 16.8171C8.03001 16.5202 8.27032 16.2794 8.56722 16.2787L10.4037 16.2744L10.3887 11.4247L9.93869 11.4247C9.1618 11.4257 8.41866 11.2602 7.72814 10.9292C6.36673 10.2764 5.38267 9.03828 5.09387 7.61636C5.08482 7.57518 5.07721 7.52922 5.07137 7.48695L5.05075 7.35939C5.04051 7.30468 5.0313 7.24778 5.02637 7.193C4.9909 6.88074 4.99154 6.56435 5.02637 6.25202C5.03321 6.19514 5.04178 6.14149 5.05075 6.08563L5.07137 5.95622C5.07626 5.91384 5.08467 5.86898 5.09387 5.82866C5.53401 3.61665 7.56781 2.00739 9.92556 2.0037L14.0579 2.00001C14.8349 1.99888 15.5779 2.16448 16.2684 2.49546C17.6302 3.1482 18.6157 4.38621 18.9046 5.80833C18.9136 5.84949 18.9212 5.89548 18.9271 5.93774L18.9477 6.06345C18.9569 6.12043 18.9661 6.17547 18.9721 6.23353C18.9889 6.39421 18.9996 6.55467 19.0002 6.70495C18.9998 6.85691 18.9914 7.01316 18.974 7.17267ZM16.9509 6.44243C16.9472 6.40147 16.9408 6.36095 16.9284 6.30008L16.9228 6.26865C16.9205 6.25178 16.9168 6.23163 16.9134 6.21689C16.7614 5.49688 16.2671 4.87503 15.5916 4.55121C15.2593 4.39194 14.9016 4.31188 14.5304 4.31273C13.8446 4.31286 13.208 4.59123 12.7436 5.09473L12.1736 5.71035C12.1282 5.7593 12.0636 5.78621 11.9974 5.78614C11.931 5.78582 11.8667 5.75829 11.8211 5.71035L11.2474 5.09658C10.7814 4.59704 10.1425 4.31826 9.45683 4.31828C8.31175 4.31922 7.31079 5.12423 7.07942 6.22613C7.07534 6.24523 7.07412 6.2662 7.07004 6.28529L7.06254 6.32596C7.05551 6.36724 7.04868 6.41121 7.04379 6.45352C7.03514 6.5413 7.02968 6.62811 7.03067 6.71789C7.03169 6.8077 7.03429 6.89701 7.04379 6.9804C7.0485 7.0193 7.05492 7.0564 7.06067 7.09317L7.08129 7.20594C7.23335 7.92589 7.72767 8.54785 8.40312 8.87162C8.73293 9.03034 9.09546 9.11109 9.46245 9.11011C10.1483 9.10998 10.7867 8.83168 11.2511 8.32811L11.8211 7.71249C11.8433 7.68887 11.87 7.67007 11.8999 7.65703C11.9302 7.64394 11.9642 7.63669 11.9974 7.63669C12.0338 7.63681 12.0697 7.64489 12.1024 7.66072C12.1325 7.67518 12.1557 7.69346 12.1773 7.71434L12.7492 8.32811C13.2153 8.8278 13.8558 9.10654 14.5416 9.10641C15.6866 9.10529 16.6858 8.30034 16.9172 7.19855C16.9212 7.17946 16.9246 7.16137 16.9265 7.14124L16.934 7.08763C16.94 7.04876 16.9489 7.01102 16.9528 6.97116C16.9615 6.88322 16.9669 6.79489 16.9659 6.70495C16.9649 6.61519 16.9604 6.52576 16.9509 6.44243Z" fill="#E1E1E1"/>
</svg>
