<svg width="24" height="24" viewBox="0 0 24 24" fill="none" xmlns="http://www.w3.org/2000/svg">
<path d="M7.95 21C6.58333 21 5.41667 20.5167 4.45 19.55C3.48333 18.5833 3 17.4167 3 16.05C3 15.3833 3.125 14.75 3.375 14.15C3.625 13.55 3.98333 13.0167 4.45 12.55L7.075 9.925C7.275 9.725 7.5125 9.625 7.7875 9.625C8.0625 9.625 8.3 9.725 8.5 9.925C8.7 10.125 8.8 10.3583 8.8 10.625C8.8 10.8917 8.7 11.125 8.5 11.325L5.85 13.975C5.56667 14.2583 5.35417 14.5792 5.2125 14.9375C5.07083 15.2958 5 15.6667 5 16.05C5 16.8667 5.2875 17.5625 5.8625 18.1375C6.4375 18.7125 7.13333 19 7.95 19C8.33333 19 8.70833 18.9292 9.075 18.7875C9.44167 18.6458 9.76667 18.4333 10.05 18.15L12.675 15.5C12.875 15.3167 13.1083 15.225 13.375 15.225C13.6417 15.225 13.875 15.325 14.075 15.525C14.275 15.725 14.375 15.9583 14.375 16.225C14.375 16.4917 14.275 16.725 14.075 16.925L11.45 19.55C10.9833 20.0167 10.45 20.375 9.85 20.625C9.25 20.875 8.61667 21 7.95 21ZM9.2 14.8C9 14.6 8.9 14.3625 8.9 14.0875C8.9 13.8125 9 13.575 9.2 13.375L13.375 9.2C13.575 9 13.8125 8.9 14.0875 8.9C14.3625 8.9 14.6 9 14.8 9.2C15 9.4 15.1 9.6375 15.1 9.9125C15.1 10.1875 15 10.425 14.8 10.625L10.625 14.8C10.425 15 10.1875 15.1 9.9125 15.1C9.6375 15.1 9.4 15 9.2 14.8ZM15.5 14.075C15.3 13.875 15.2 13.6417 15.2 13.375C15.2 13.1083 15.3 12.875 15.5 12.675L18.15 10.05C18.4333 9.76667 18.6417 9.45 18.775 9.1C18.9083 8.75 18.975 8.38333 18.975 8C18.975 7.16667 18.6917 6.45833 18.125 5.875C17.5583 5.29167 16.8583 5 16.025 5C15.6417 5 15.2708 5.07083 14.9125 5.2125C14.5542 5.35417 14.2333 5.56667 13.95 5.85L11.325 8.5C11.125 8.7 10.8917 8.8 10.625 8.8C10.3583 8.8 10.125 8.7 9.925 8.5C9.725 8.3 9.625 8.0625 9.625 7.7875C9.625 7.5125 9.725 7.275 9.925 7.075L12.55 4.45C13.0167 3.98333 13.55 3.625 14.15 3.375C14.75 3.125 15.3833 3 16.05 3C17.4167 3 18.5792 3.48333 19.5375 4.45C20.4958 5.41667 20.975 6.59167 20.975 7.975C20.975 8.625 20.8542 9.25 20.6125 9.85C20.3708 10.45 20.0167 10.9833 19.55 11.45L16.925 14.075C16.725 14.275 16.4875 14.375 16.2125 14.375C15.9375 14.375 15.7 14.275 15.5 14.075Z" fill="#E1E1E1"/>
</svg>
