<svg width="24" height="24" viewBox="0 0 24 24" fill="none" xmlns="http://www.w3.org/2000/svg">
<path d="M12 16.9536C12.7885 16.9536 13.4274 17.5928 13.4276 18.3812V21.5724C13.4276 22.361 12.7886 23 12 23C11.2114 23 10.5724 22.361 10.5724 21.5724V18.3812C10.5726 17.5928 11.2115 16.9536 12 16.9536ZM6.48255 15.502C7.00272 14.9821 7.82625 14.9513 8.38241 15.4071L8.49038 15.5042L8.59508 15.6198C9.049 16.1757 9.01717 16.998 8.49802 17.5175L7.36486 18.6495L6.24589 19.775C5.6881 20.3352 4.78177 20.3362 4.22278 19.7772C3.66379 19.2182 3.66478 18.3119 4.22497 17.7541L5.35158 16.634L6.48255 15.502ZM15.5096 15.5042C16.0621 14.9489 16.9627 14.9475 17.5175 15.502L18.6484 16.634L19.775 17.7541C20.3352 18.3119 20.3362 19.2182 19.7772 19.7772C19.2182 20.3362 18.3119 20.3352 17.7541 19.775L16.6351 18.6495L15.502 17.5175C14.946 16.9612 14.9487 16.0574 15.5085 15.5053L15.5096 15.5042ZM5.61878 10.5724C6.40717 10.5726 7.0464 11.2115 7.0464 12C7.0464 12.7885 6.40717 13.4274 5.61878 13.4276H2.42762C1.63901 13.4276 1 12.7886 1 12C1 11.2114 1.63901 10.5724 2.42762 10.5724H5.61878ZM21.5724 10.5724C22.361 10.5724 23 11.2114 23 12C23 12.7886 22.361 13.4276 21.5724 13.4276H18.3812C17.5928 13.4274 16.9536 12.7885 16.9536 12C16.9536 11.2115 17.5928 10.5726 18.3812 10.5724H21.5724ZM17.7541 4.22497C18.3119 3.66478 19.2182 3.66379 19.7772 4.22278C20.3362 4.78177 20.3352 5.6881 19.775 6.24589L18.6484 7.36595L17.5175 8.49802C16.9612 9.05403 16.0574 9.05129 15.5053 8.49147L15.5042 8.49038L15.4071 8.38241C14.9516 7.82615 14.9823 7.00249 15.502 6.48255L16.6351 5.35049L17.7541 4.22497ZM4.22278 4.22278C4.78177 3.66379 5.6881 3.66478 6.24589 4.22497L7.36486 5.35049L8.49802 6.48255C9.05238 7.03719 9.05018 7.93663 8.49475 8.48929L8.49365 8.49038C7.94137 9.05035 7.03871 9.05389 6.48255 8.49802L5.35158 7.36595L4.22497 6.24589C3.66478 5.6881 3.66379 4.78177 4.22278 4.22278ZM12 1C12.7886 1 13.4276 1.63901 13.4276 2.42762V5.61878C13.4274 6.40717 12.7885 7.0464 12 7.0464C11.2115 7.0464 10.5726 6.40717 10.5724 5.61878V2.42762C10.5724 1.63901 11.2114 1 12 1Z" fill="#E1E1E1"/>
</svg>
