<svg width="24" height="24" viewBox="0 0 24 24" fill="none" xmlns="http://www.w3.org/2000/svg">
<path d="M12 2.59961C9.35362 2.59961 7.22461 4.8057 7.22461 7.5V9.7998H6.5C5.3062 9.7998 4.34961 10.7996 4.34961 12V19.2002L4.36133 19.4229C4.47091 20.5216 5.38094 21.4004 6.5 21.4004H17.5C18.6191 21.4004 19.5291 20.5216 19.6387 19.4229L19.6504 19.2002V12C19.6504 10.7996 18.6938 9.7998 17.5 9.7998H16.7754V7.5C16.7754 4.8057 14.6464 2.59961 12 2.59961ZM11.999 12.9004C12.5087 12.9004 12.9473 13.0787 13.3076 13.4346C13.668 13.7904 13.8495 14.224 13.8496 14.7285L13.8457 14.8555C13.8267 15.1479 13.7421 15.4205 13.5908 15.6709L13.5225 15.7754C13.3706 15.9918 13.1766 16.1662 12.9434 16.2988L13.3262 18.3994C13.3603 18.5742 13.3126 18.7353 13.1943 18.875C13.0753 19.0152 12.9227 19.0888 12.7432 19.0889H11.2559C11.0767 19.0886 10.9236 19.0151 10.8047 18.875C10.6863 18.735 10.6407 18.5737 10.6748 18.3994L11.0576 16.2988C10.7876 16.1455 10.5698 15.9362 10.4092 15.6709L10.3486 15.5625C10.235 15.3424 10.1706 15.1062 10.1543 14.8555L10.1504 14.7285C10.1505 14.2243 10.3312 13.7904 10.6914 13.4346C11.0515 13.079 11.4897 12.9006 11.999 12.9004ZM12 5.2002C13.2121 5.2002 14.2246 6.22504 14.2246 7.5V9.7998H9.77539V7.5C9.77539 6.22504 10.7879 5.2002 12 5.2002Z" fill="#E1E1E1"/>
</svg>
