<svg width="24" height="24" viewBox="0 0 24 24" fill="none" xmlns="http://www.w3.org/2000/svg">
<path d="M12 2.62207C9.35362 2.62207 7.22461 4.82288 7.22461 7.51074V9.80504H6.5C5.3062 9.80504 4.34961 10.8025 4.34961 12V19.1829L4.36133 19.4051C4.47091 20.5012 5.38094 21.3779 6.5 21.3779H17.5C18.6191 21.3779 19.5291 20.5012 19.6387 19.4051L19.6504 19.1829V12C19.6504 10.8025 18.6938 9.80504 17.5 9.80504H16.7754V7.51074C16.7754 4.82288 14.6464 2.62207 12 2.62207ZM11.999 12.8982C12.5087 12.8982 12.9473 13.0761 13.3076 13.4311C13.668 13.7861 13.8495 14.2187 13.8496 14.722L13.8457 14.8486C13.8267 15.1403 13.7421 15.4123 13.5908 15.6621L13.5225 15.7663C13.3706 15.9823 13.1766 16.1562 12.9434 16.2885L13.3262 18.3841C13.3603 18.5584 13.3126 18.7192 13.1943 18.8585C13.0753 18.9984 12.9227 19.0718 12.7432 19.0719H11.2559C11.0767 19.0716 10.9236 18.9983 10.8047 18.8585C10.6863 18.7189 10.6407 18.5579 10.6748 18.3841L11.0576 16.2885C10.7876 16.1355 10.5698 15.9268 10.4092 15.6621L10.3486 15.5539C10.235 15.3343 10.1706 15.0988 10.1543 14.8486L10.1504 14.722C10.1505 14.219 10.3312 13.7861 10.6914 13.4311C11.0515 13.0763 11.4897 12.8984 11.999 12.8982ZM12 5.21643C13.2121 5.21643 14.2246 6.23883 14.2246 7.51074V9.80504H9.77539V7.51074C9.77539 6.23883 10.7879 5.21643 12 5.21643Z" fill="#E1E1E1"/>
</svg>
