<svg width="24" height="24" viewBox="0 0 24 24" fill="none" xmlns="http://www.w3.org/2000/svg">
<path d="M13.2364 4.00536C13.4008 4.00701 13.5577 4.07405 13.6733 4.19126C13.789 4.30853 13.8537 4.46688 13.8538 4.63189V6.28892C13.8538 6.49659 13.9366 6.69621 14.0828 6.84305C14.229 6.98964 14.4272 7.07179 14.6338 7.07186C14.8406 7.07186 15.0395 6.98982 15.1857 6.84305C15.332 6.69621 15.4139 6.49659 15.4139 6.28892V4.86337C15.4139 4.51258 15.7013 4.23022 16.0507 4.23774C16.5622 4.24943 17.0725 4.26388 17.5808 4.27975C17.8762 4.29105 18.1606 4.39684 18.3918 4.58184C18.6228 4.76682 18.789 5.02111 18.8658 5.30757C19.0168 5.86629 18.9994 6.48432 18.9994 7.07186C18.9994 8.02874 18.9424 8.7418 18.6297 9.29732C18.3884 9.72592 17.9948 10.0611 17.357 10.3421C17.6228 11.4135 18.4138 14.3688 18.6297 18.4164C18.6372 18.5903 18.6092 18.764 18.5474 18.9267C18.4857 19.0894 18.3916 19.238 18.2706 19.3629C18.1497 19.4876 18.0045 19.5859 17.8443 19.6524C17.684 19.7189 17.5118 19.7526 17.3384 19.7498H14.8965C14.5608 19.7498 14.2848 19.4823 14.2686 19.1466L14.242 18.6335C14.2083 17.9784 14.1678 16.9908 14.1403 16.1059C14.1211 14.5605 13.0456 13.8087 12 13.8518C10.9543 13.8085 9.87892 14.5603 9.85968 16.1059C9.83222 16.9908 9.79077 17.9784 9.75708 18.6335L9.73143 19.1466C9.71521 19.4823 9.43909 19.7498 9.10349 19.7498H6.66158C6.48822 19.7526 6.31593 19.7189 6.15568 19.6524C5.99536 19.5859 5.84945 19.4877 5.7285 19.3629C5.60762 19.238 5.51343 19.0894 5.45167 18.9267C5.38995 18.764 5.36192 18.5903 5.36942 18.4164C5.58529 14.3688 6.37625 11.4135 6.64212 10.3421C6.00442 10.0611 5.61067 9.72591 5.36942 9.29732C5.05676 8.74181 5.00061 8.0287 5.00061 7.07186C5.00061 6.48432 4.98318 5.86629 5.13416 5.30757C5.21102 5.02103 5.37707 4.76681 5.60822 4.58184C5.8395 4.39676 6.12369 4.29096 6.41924 4.27975C6.92751 4.26388 7.43772 4.24943 7.94931 4.23774C8.29858 4.23039 8.58521 4.51268 8.58521 4.86337V6.28892C8.58521 6.49659 8.66801 6.69621 8.81428 6.84305C8.96049 6.98963 9.15865 7.07183 9.36528 7.07186C9.57211 7.07186 9.7709 6.98987 9.91716 6.84305C10.0634 6.69621 10.1453 6.49659 10.1453 6.28892V4.63189C10.1454 4.46689 10.2102 4.30853 10.3258 4.19126C10.4414 4.07404 10.5984 4.0071 10.7627 4.00536C11.1748 4.00219 11.5877 4.00054 12 4C12.4122 4.00054 12.8244 4.00219 13.2364 4.00536Z" fill="#E1E1E1"/>
</svg>
