<svg width="24" height="24" viewBox="0 0 24 24" fill="none" xmlns="http://www.w3.org/2000/svg">
<path d="M10 18H4C3.45 18 2.97917 17.8042 2.5875 17.4125C2.19583 17.0208 2 16.55 2 16V5C2 4.45 2.19583 3.97917 2.5875 3.5875C2.97917 3.19583 3.45 3 4 3H20C20.55 3 21.0208 3.19583 21.4125 3.5875C21.8042 3.97917 22 4.45 22 5V16C22 16.55 21.8042 17.0208 21.4125 17.4125C21.0208 17.8042 20.55 18 20 18H14L15.85 19.85C15.8833 19.8833 15.9333 20 16 20.2V20.5C16 20.6333 15.95 20.75 15.85 20.85C15.75 20.95 15.6333 21 15.5 21H8.35C8.25 21 8.16667 20.9667 8.1 20.9C8.03333 20.8333 8 20.75 8 20.65V20.15C8 20.1167 8.03333 20.0333 8.1 19.9L10 18ZM4 13H20V5H4V13Z" fill="#E1E1E1"/>
</svg>
