<svg preserveAspectRatio="none" width="100%" height="100%" overflow="visible" style="display: block;" viewBox="0 0 64.296 10.3197" fill="none" xmlns="http://www.w3.org/2000/svg">
<g id="Label Left">
<path id="Vector" d="M59.184 9.27574H59.952C60.16 9.27574 60.316 9.24374 60.42 9.17974C60.524 9.11574 60.608 9.00774 60.672 8.85574L60.876 8.32774H60.48L58.176 2.13574H59.52L61.272 7.15174L62.952 2.13574H64.296L61.752 9.26374C61.616 9.63174 61.424 9.89974 61.176 10.0677C60.928 10.2357 60.584 10.3197 60.144 10.3197H59.184V9.27574Z" fill="#E1E1E1"/>
<path id="Vector_2" d="M55.0328 8.66402C54.5928 8.66402 54.2008 8.56802 53.8568 8.37602C53.5208 8.18402 53.2608 7.91202 53.0768 7.56002L53.0408 8.52002H51.8528V1.90735e-05H53.1248V3.03602C53.3008 2.74002 53.5568 2.49202 53.8928 2.29202C54.2288 2.09202 54.6088 1.99202 55.0328 1.99202C55.5848 1.99202 56.0648 2.12802 56.4728 2.40002C56.8808 2.67202 57.1928 3.06002 57.4088 3.56402C57.6328 4.06802 57.7448 4.65602 57.7448 5.32802C57.7448 6.00002 57.6328 6.58802 57.4088 7.09202C57.1928 7.59602 56.8808 7.98402 56.4728 8.25602C56.0648 8.52802 55.5848 8.66402 55.0328 8.66402ZM54.8288 7.56002C55.3168 7.56002 55.7048 7.36002 55.9928 6.96002C56.2808 6.56002 56.4248 6.01602 56.4248 5.32802C56.4248 4.63202 56.2808 4.08802 55.9928 3.69602C55.7128 3.29602 55.3288 3.09602 54.8408 3.09602C54.3048 3.09602 53.8848 3.29202 53.5808 3.68402C53.2768 4.07602 53.1248 4.62402 53.1248 5.32802C53.1248 6.02402 53.2728 6.57202 53.5688 6.97202C53.8728 7.36402 54.2928 7.56002 54.8288 7.56002Z" fill="#E1E1E1"/>
<path id="Vector_3" d="M44.0229 8.66402C43.4789 8.66402 43.0029 8.52802 42.5949 8.25602C42.1949 7.98402 41.8869 7.60002 41.6709 7.10402C41.4549 6.60002 41.3469 6.00802 41.3469 5.32802C41.3469 4.65602 41.4549 4.06802 41.6709 3.56402C41.8869 3.06002 42.1949 2.67202 42.5949 2.40002C43.0029 2.12802 43.4789 1.99202 44.0229 1.99202C44.4629 1.99202 44.8549 2.08402 45.1989 2.26802C45.5429 2.45202 45.7989 2.70802 45.9669 3.03602V1.90735e-05H47.2389V8.52002H46.0629L46.0269 7.56002C45.8509 7.90402 45.5829 8.17602 45.2229 8.37602C44.8709 8.56802 44.4709 8.66402 44.0229 8.66402ZM44.3589 7.56002C44.8709 7.56002 45.2669 7.36402 45.5469 6.97202C45.8269 6.58002 45.9669 6.03202 45.9669 5.32802C45.9669 4.61602 45.8269 4.06802 45.5469 3.68402C45.2669 3.29202 44.8709 3.09602 44.3589 3.09602C43.8389 3.09602 43.4269 3.29602 43.1229 3.69602C42.8189 4.08802 42.6669 4.63202 42.6669 5.32802C42.6669 6.00802 42.8189 6.55202 43.1229 6.96002C43.4349 7.36002 43.8469 7.56002 44.3589 7.56002Z" fill="#E1E1E1"/>
<path id="Vector_4" d="M37.5281 8.66419C36.9201 8.66419 36.3881 8.52819 35.9321 8.25619C35.4761 7.97619 35.1241 7.58419 34.8761 7.08019C34.6281 6.57619 34.5041 5.99219 34.5041 5.32819C34.5041 4.66419 34.6241 4.08019 34.8641 3.57619C35.1121 3.07219 35.4601 2.68419 35.9081 2.41219C36.3641 2.13219 36.8921 1.99219 37.4921 1.99219C38.0761 1.99219 38.5881 2.12819 39.0281 2.40019C39.4681 2.66419 39.8081 3.05219 40.0481 3.56419C40.2961 4.06819 40.4201 4.67219 40.4201 5.37619V5.70019H35.8361C35.8681 6.31619 36.0321 6.78419 36.3281 7.10419C36.6241 7.41619 37.0281 7.57219 37.5401 7.57219C37.9081 7.57219 38.2161 7.48819 38.4641 7.32019C38.7201 7.14419 38.9001 6.90419 39.0041 6.60019L40.3241 6.68419C40.1561 7.28419 39.8201 7.76419 39.3161 8.12419C38.8201 8.48419 38.2241 8.66419 37.5281 8.66419ZM39.0641 4.74019C39.0321 4.18819 38.8761 3.77219 38.5961 3.49219C38.3161 3.21219 37.9481 3.07219 37.4921 3.07219C37.0361 3.07219 36.6641 3.21619 36.3761 3.50419C36.0881 3.79219 35.9081 4.20419 35.8361 4.74019H39.0641Z" fill="#E1E1E1"/>
<path id="Vector_5" d="M30.5538 2.13602H31.7178L31.7538 3.34802C31.8738 2.93202 32.0578 2.62802 32.3058 2.43602C32.5538 2.23602 32.8778 2.13602 33.2778 2.13602H33.8898V3.27602H33.2778C32.7898 3.27602 32.4258 3.39602 32.1858 3.63602C31.9458 3.87602 31.8258 4.24802 31.8258 4.75202V8.52002H30.5538V2.13602Z" fill="#E1E1E1"/>
<path id="Vector_6" d="M26.3631 8.66419C25.7551 8.66419 25.2231 8.52819 24.7671 8.25619C24.3111 7.97619 23.9591 7.58419 23.7111 7.08019C23.4631 6.57619 23.3391 5.99219 23.3391 5.32819C23.3391 4.66419 23.4591 4.08019 23.6991 3.57619C23.9471 3.07219 24.2951 2.68419 24.7431 2.41219C25.1991 2.13219 25.7271 1.99219 26.3271 1.99219C26.9111 1.99219 27.4231 2.12819 27.8631 2.40019C28.3031 2.66419 28.6431 3.05219 28.8831 3.56419C29.1311 4.06819 29.2551 4.67219 29.2551 5.37619V5.70019H24.6711C24.7031 6.31619 24.8671 6.78419 25.1631 7.10419C25.4591 7.41619 25.8631 7.57219 26.3751 7.57219C26.7431 7.57219 27.0511 7.48819 27.2991 7.32019C27.5551 7.14419 27.7351 6.90419 27.8391 6.60019L29.1591 6.68419C28.9911 7.28419 28.6551 7.76419 28.1511 8.12419C27.6551 8.48419 27.0591 8.66419 26.3631 8.66419ZM27.8991 4.74019C27.8671 4.18819 27.7111 3.77219 27.4311 3.49219C27.1511 3.21219 26.7831 3.07219 26.3271 3.07219C25.8711 3.07219 25.4991 3.21619 25.2111 3.50419C24.9231 3.79219 24.7431 4.20419 24.6711 4.74019H27.8991Z" fill="#E1E1E1"/>
<path id="Vector_7" d="M13.5022 2.13574H14.8342L16.2022 7.12774L17.6062 2.13574H18.8182L20.2222 7.12774L21.5902 2.13574H22.9342L20.9782 8.51974H19.5502L18.2062 3.95974L16.8742 8.51974H15.4462L13.5022 2.13574Z" fill="#E1E1E1"/>
<path id="Vector_8" d="M10.0658 8.66402C9.45775 8.66402 8.92575 8.52802 8.46975 8.25602C8.01375 7.98402 7.65775 7.59602 7.40175 7.09202C7.15375 6.58802 7.02975 6.00002 7.02975 5.32802C7.02975 4.65602 7.15375 4.06802 7.40175 3.56402C7.65775 3.06002 8.01375 2.67202 8.46975 2.40002C8.92575 2.12802 9.45775 1.99202 10.0658 1.99202C10.6658 1.99202 11.1938 2.13202 11.6498 2.41202C12.1138 2.68402 12.4698 3.07202 12.7178 3.57602C12.9658 4.07202 13.0897 4.65602 13.0897 5.32802C13.0897 6.00002 12.9658 6.58802 12.7178 7.09202C12.4698 7.58802 12.1138 7.97602 11.6498 8.25602C11.1938 8.52802 10.6658 8.66402 10.0658 8.66402ZM10.0658 7.56002C10.6018 7.56002 11.0178 7.36402 11.3138 6.97202C11.6178 6.58002 11.7698 6.03202 11.7698 5.32802C11.7698 4.62402 11.6178 4.07602 11.3138 3.68402C11.0178 3.29202 10.6018 3.09602 10.0658 3.09602C9.52975 3.09602 9.10975 3.29202 8.80575 3.68402C8.50175 4.07602 8.34975 4.62402 8.34975 5.32802C8.34975 6.03202 8.50175 6.58002 8.80575 6.97202C9.10975 7.36402 9.52975 7.56002 10.0658 7.56002Z" fill="#E1E1E1"/>
<path id="Vector_9" d="M0 1.90735e-05H3.18C4.148 1.90735e-05 4.904 0.236019 5.448 0.708019C6 1.17202 6.276 1.82002 6.276 2.65202C6.276 3.48402 6 4.14002 5.448 4.62002C4.904 5.09202 4.148 5.32802 3.18 5.32802H1.296V8.52002H0V1.90735e-05ZM3.144 4.15202C3.728 4.15202 4.172 4.02802 4.476 3.78002C4.78 3.52402 4.932 3.14802 4.932 2.65202C4.932 2.16402 4.78 1.80002 4.476 1.56002C4.18 1.31202 3.736 1.18802 3.144 1.18802H1.296V4.15202H3.144Z" fill="#E1E1E1"/>
</g>
</svg>
