<svg preserveAspectRatio="none" width="100%" height="100%" overflow="visible" style="display: block;" viewBox="0 0 90 11" fill="none" xmlns="http://www.w3.org/2000/svg">
<g id="Frame" clip-path="url(#clip0_0_4)">
<path id="Vector" d="M5.89782 0.0419375C4.7472 0.0419375 3.91089 0.314875 3.19989 0.944625L1.94543 2.035C1.84089 2.11888 1.63182 2.18144 1.48505 2.05563C1.33897 1.92981 1.3182 1.76206 1.44351 1.59363L2.11158 0.586437C2.21682 0.44 2.13305 0.250938 1.94543 0.250938H0.333739C0.289513 0.250748 0.245694 0.259328 0.204851 0.276173C0.164007 0.293018 0.12696 0.31779 0.0958818 0.349037C0.0648033 0.380284 0.0403183 0.417377 0.0238619 0.458142C0.00740549 0.498907 -0.000691237 0.542525 4.62737e-05 0.586437V10.406C-0.000692707 10.45 0.00742598 10.4936 0.0239252 10.5345C0.0404245 10.5753 0.0649715 10.6124 0.0961238 10.6436C0.127276 10.6749 0.164405 10.6997 0.205329 10.7165C0.246254 10.7333 0.290147 10.7418 0.334431 10.7415H2.00774C2.05202 10.7418 2.09592 10.7333 2.13684 10.7165C2.17776 10.6997 2.21489 10.6749 2.24605 10.6436C2.2772 10.6124 2.30174 10.5753 2.31824 10.5345C2.33474 10.4936 2.34286 10.45 2.34212 10.406V4.86681C2.34212 2.32925 4.45505 1.9305 5.24912 1.9305C6.94251 1.9305 7.54897 3.14738 7.54897 4.07V10.4067C7.54823 10.4507 7.55637 10.4944 7.57291 10.5353C7.58945 10.5762 7.61406 10.6133 7.64529 10.6446C7.67652 10.6758 7.71373 10.7006 7.75473 10.7174C7.79574 10.7341 7.8397 10.7426 7.88405 10.7422H9.55666C9.601 10.7426 9.64497 10.7341 9.68598 10.7174C9.72698 10.7006 9.76419 10.6758 9.79542 10.6446C9.82665 10.6133 9.85125 10.5762 9.8678 10.5353C9.88434 10.4944 9.89248 10.4507 9.89174 10.4067V3.86031C9.89174 1.51044 8.3652 0.0419375 5.89712 0.0419375M16.7089 0C13.4675 0 11.3975 1.99375 11.3975 4.69975V6.18956C11.3975 9.04269 13.4675 10.9945 16.7089 10.9945C19.5737 10.9945 21.582 9.504 21.7904 7.49031C21.8126 7.28063 21.6658 7.1335 21.456 7.1335H19.825C19.7542 7.13149 19.6848 7.15318 19.6279 7.19508C19.571 7.23697 19.53 7.29664 19.5114 7.3645C19.3023 8.0355 18.3192 9.042 16.7082 9.042C15.0979 9.042 13.5928 7.86775 13.6136 6.18887L13.6344 4.32231C13.6551 2.91706 15.12 1.95181 16.7089 1.95181C18.1524 1.95181 19.5529 2.76994 19.6997 4.11331C19.7057 4.18808 19.6838 4.26245 19.6383 4.32228C19.5927 4.3821 19.5266 4.42322 19.4525 4.43781L14.7635 5.35081C14.6679 5.37231 14.5827 5.42564 14.5218 5.50193C14.461 5.57822 14.4283 5.67288 14.4291 5.77019V5.79081C14.4291 5.97988 14.6167 6.14831 14.8895 6.14831H21.6236C21.6678 6.14804 21.7116 6.13911 21.7523 6.12203C21.7931 6.10494 21.8301 6.08004 21.8611 6.04875C21.8922 6.01746 21.9167 5.98039 21.9334 5.93967C21.95 5.89895 21.9583 5.85537 21.958 5.81144V4.49075C21.958 1.99512 19.8035 0.0006875 16.7089 0.0006875M28.3777 0C25.7643 0 23.5053 1.53175 23.5053 3.54544C23.5053 3.71319 23.652 3.839 23.8404 3.839H25.5337C25.7006 3.839 25.8266 3.71319 25.8474 3.54544C26.0149 2.62281 27.1233 1.95044 28.3154 1.95044C29.7374 1.95044 30.6997 2.8325 30.6997 4.34294V6.16894C30.6997 8.0355 29.3193 8.98081 27.6051 8.98081C26.2662 8.98081 25.4922 8.47688 25.4922 7.65875C25.4922 6.94444 25.8688 6.33669 27.4168 5.98056L29.6537 5.37144C29.8835 5.30888 29.9673 5.11981 29.9257 4.91013C29.905 4.74238 29.7167 4.65781 29.5491 4.65781H27.2278C25.2624 4.65781 23.2754 5.91662 23.2754 7.76325V8.05681C23.2754 9.94537 25.0533 10.9306 27.0817 10.9306C28.3784 10.9306 29.4868 10.4273 30.1764 9.84019L31.201 8.95881C31.3685 8.81169 31.536 8.81169 31.6828 8.95881C31.8081 9.08463 31.7659 9.27369 31.6614 9.42081L31.0341 10.4074C30.9289 10.5538 31.0127 10.7429 31.2003 10.7429H32.7067C32.7511 10.7432 32.795 10.7346 32.836 10.7178C32.877 10.7009 32.9141 10.6761 32.9453 10.6448C32.9765 10.6135 33.001 10.5762 33.0175 10.5354C33.0339 10.4945 33.042 10.4507 33.0411 10.4067V4.05006C33.0411 1.61631 31.3055 0.0006875 28.3777 0.0006875V0ZM42.0757 0.252313H39.7337C38.9181 0.252313 38.1234 0.755562 37.5584 1.23819L36.6377 2.03569C36.5338 2.11956 36.3448 2.18213 36.2202 2.07763C36.0734 1.97244 36.0111 1.76275 36.1371 1.595L36.8059 0.587813C36.9104 0.440688 36.8267 0.252313 36.639 0.252313H35.0703C35.026 0.252032 34.9821 0.260543 34.9412 0.277347C34.9003 0.294151 34.8631 0.318909 34.832 0.350165C34.8008 0.381421 34.7763 0.418546 34.7598 0.459357C34.7433 0.500167 34.7352 0.543842 34.7359 0.587813V10.4067C34.7351 10.4507 34.7431 10.4945 34.7596 10.5354C34.776 10.5762 34.8006 10.6135 34.8317 10.6448C34.8629 10.6761 34.9 10.7009 34.941 10.7178C34.982 10.7346 35.0259 10.7432 35.0703 10.7429H36.7851C36.8295 10.7433 36.8736 10.7348 36.9146 10.718C36.9557 10.7012 36.9929 10.6764 37.0241 10.645C37.0554 10.6137 37.08 10.5765 37.0965 10.5355C37.113 10.4946 37.121 10.4508 37.1202 10.4067V5.37144C37.1202 3.21063 37.998 2.24606 39.9012 2.24606H42.0764C42.1208 2.24635 42.1647 2.23781 42.2057 2.22097C42.2467 2.20412 42.2838 2.1793 42.315 2.14797C42.3462 2.11664 42.3707 2.07943 42.3871 2.03854C42.4036 1.99765 42.4116 1.9539 42.4108 1.90988V0.5885C42.4116 0.544472 42.4036 0.500723 42.3871 0.459832C42.3707 0.418941 42.3462 0.381735 42.315 0.350405C42.2838 0.319076 42.2467 0.294256 42.2057 0.277409C42.1647 0.260563 42.1201 0.25203 42.0757 0.252313Z" fill="#E1E1E1"/>
<path id="Vector_2" d="M45.3115 0.252313H46.7647C46.9267 0.252313 47.052 0.378125 47.052 0.541063V10.4417C47.052 10.6047 46.9267 10.7305 46.7647 10.7305H45.3108C45.2727 10.731 45.2348 10.7238 45.1995 10.7094C45.1642 10.695 45.1322 10.6737 45.1054 10.6468C45.0786 10.6198 45.0575 10.5878 45.0434 10.5525C45.0294 10.5173 45.0226 10.4796 45.0235 10.4417V0.540375C45.0235 0.378125 45.1488 0.251625 45.3108 0.251625M55.5342 5.654V10.4417C55.5342 10.6047 55.4165 10.7305 55.2462 10.7305H53.8304C53.7922 10.7311 53.7542 10.724 53.7189 10.7096C53.6835 10.6953 53.6514 10.674 53.6245 10.647C53.5976 10.6201 53.5765 10.588 53.5623 10.5527C53.5482 10.5174 53.5414 10.4797 53.5424 10.4417V6.039C53.5424 5.03319 53.1069 4.48525 52.2665 4.48525C51.426 4.48525 50.5772 5.0105 50.5772 6.46044V10.4411C50.5772 10.604 50.4512 10.7298 50.2892 10.7298H48.8658C48.7038 10.7298 48.5855 10.604 48.5855 10.4411V3.4265C48.5855 3.26356 48.7032 3.13775 48.8658 3.13775H49.9507C50.1348 3.13775 50.2235 3.21131 50.2899 3.33712L50.5558 3.86306C50.5848 3.92219 50.6368 3.92975 50.6811 3.88506C51.1456 3.38869 51.8982 2.93769 52.9449 2.93769C54.531 2.93769 55.5342 3.89194 55.5342 5.65331V5.654ZM57.429 4.75131H56.3372C56.305 4.7515 56.2731 4.7453 56.2433 4.73307C56.2135 4.72085 56.1865 4.70284 56.1638 4.68012C56.1411 4.65739 56.1232 4.63039 56.1111 4.60071C56.0991 4.57103 56.0931 4.53925 56.0935 4.50725V3.4045C56.0931 3.3725 56.0991 3.34072 56.1111 3.31104C56.1232 3.28136 56.1411 3.25436 56.1638 3.23163C56.1865 3.20891 56.2135 3.1909 56.2433 3.17868C56.2731 3.16645 56.305 3.16025 56.3372 3.16044H56.8606C57.3175 3.16044 57.6132 2.89437 57.6132 2.36844V1.26569C57.6123 1.22877 57.619 1.19205 57.6327 1.15774C57.6465 1.12343 57.6671 1.09222 57.6932 1.06598C57.7194 1.03974 57.7506 1.019 57.785 1.005C57.8195 0.991001 57.8564 0.984029 57.8935 0.9845H59.2505C59.2877 0.984026 59.3247 0.991019 59.3591 1.00506C59.3936 1.0191 59.4248 1.0399 59.451 1.06622C59.4772 1.09254 59.4978 1.12383 59.5115 1.15822C59.5252 1.19261 59.5318 1.2294 59.5308 1.26638V3.04975C59.5308 3.10887 59.5828 3.16044 59.6416 3.16044H61.1834C61.3239 3.16044 61.434 3.27112 61.434 3.4045V4.50725C61.434 4.64063 61.3232 4.75131 61.1834 4.75131H59.6423C59.613 4.75219 59.5851 4.76425 59.5645 4.78499C59.5439 4.80572 59.5321 4.83355 59.5315 4.86269V8.28162C59.5315 8.76975 59.7974 9.02206 60.3208 9.02206H60.9992C61.0341 9.02065 61.0689 9.02633 61.1014 9.03874C61.134 9.05115 61.1637 9.07004 61.1886 9.09424C61.2136 9.11845 61.2333 9.14746 61.2466 9.1795C61.2598 9.21153 61.2664 9.24593 61.2658 9.28056V10.4493C61.2658 10.5978 61.1619 10.7085 61.0221 10.7085H59.9601C58.3082 10.7085 57.5412 10.0499 57.5412 8.41431V4.862C57.5406 4.83286 57.5288 4.80503 57.5082 4.7843C57.4876 4.76356 57.4597 4.7515 57.4304 4.75062L57.429 4.75131ZM63.8169 7.35625C63.805 7.35575 63.7932 7.35773 63.7821 7.36206C63.771 7.3664 63.761 7.37299 63.7526 7.38141C63.7443 7.38983 63.7378 7.39989 63.7336 7.41096C63.7294 7.42202 63.7276 7.43383 63.7283 7.44562C63.7283 8.56212 64.4442 9.39125 65.5872 9.39125C66.4726 9.39125 67.0036 8.89487 67.3428 8.36962C67.3612 8.33969 67.3852 8.31364 67.4137 8.29297C67.4422 8.2723 67.4745 8.25742 67.5088 8.24918C67.5431 8.24094 67.5787 8.2395 67.6135 8.24495C67.6484 8.2504 67.6818 8.26263 67.7118 8.28094L68.6707 8.92513C68.7884 8.99938 68.8258 9.15475 68.7441 9.28744C68.2207 10.109 67.2175 10.9306 65.5359 10.9306C63.2125 10.9306 61.7151 9.33281 61.7151 6.92725C61.7151 4.52169 63.2499 2.93838 65.4618 2.93838C67.6745 2.93838 69.1581 4.56637 69.1581 6.74162V7.0895C69.1581 7.238 69.0473 7.35625 68.8999 7.35625H63.8169ZM63.8834 6.02456H67.0846C67.1365 6.02456 67.1656 5.995 67.1656 5.94275C67.1656 5.01119 66.4726 4.367 65.4764 4.367C64.4802 4.367 63.801 5.01806 63.801 5.94275C63.801 5.995 63.8315 6.02456 63.8834 6.02456ZM77.0345 5.654V10.4417C77.0345 10.6047 76.9161 10.7305 76.7465 10.7305H75.3307C75.2925 10.7311 75.2545 10.724 75.2192 10.7096C75.1838 10.6953 75.1517 10.674 75.1248 10.647C75.0979 10.6201 75.0768 10.588 75.0627 10.5527C75.0485 10.5174 75.0418 10.4797 75.0427 10.4417V6.039C75.0427 5.03319 74.6072 4.48525 73.7668 4.48525C72.9263 4.48525 72.0775 5.0105 72.0775 6.46044V10.4411C72.0775 10.604 71.9515 10.7298 71.7895 10.7298H70.3662C70.2042 10.7298 70.0858 10.604 70.0858 10.4411V3.4265C70.0858 3.26356 70.2042 3.13775 70.3662 3.13775H71.4503C71.6352 3.13775 71.7238 3.21131 71.7902 3.33712L72.0561 3.86306C72.0852 3.92219 72.1371 3.92975 72.1814 3.88506C72.6459 3.38869 73.3985 2.93769 74.4459 2.93769C76.0313 2.93769 77.0352 3.89194 77.0352 5.65331L77.0345 5.654ZM78.9293 4.75131H77.8375C77.8053 4.7515 77.7734 4.7453 77.7436 4.73307C77.7138 4.72085 77.6868 4.70284 77.6641 4.68012C77.6414 4.65739 77.6235 4.63039 77.6114 4.60071C77.5994 4.57103 77.5934 4.53925 77.5938 4.50725V3.4045C77.5934 3.3725 77.5994 3.34072 77.6114 3.31104C77.6235 3.28136 77.6414 3.25436 77.6641 3.23163C77.6868 3.20891 77.7138 3.1909 77.7436 3.17868C77.7734 3.16645 77.8053 3.16025 77.8375 3.16044H78.3609C78.8179 3.16044 79.1135 2.89437 79.1135 2.36844V1.26569C79.1126 1.22877 79.1193 1.19205 79.133 1.15774C79.1468 1.12343 79.1674 1.09222 79.1935 1.06598C79.2197 1.03974 79.2509 1.019 79.2853 1.005C79.3198 0.991001 79.3567 0.984029 79.3938 0.9845H80.7508C80.788 0.984026 80.825 0.991019 80.8594 1.00506C80.8939 1.0191 80.9252 1.0399 80.9513 1.06622C80.9775 1.09254 80.9981 1.12383 81.0118 1.15822C81.0255 1.19261 81.0321 1.2294 81.0312 1.26638V3.04975C81.0312 3.10887 81.0831 3.16044 81.1419 3.16044H82.6837C82.8242 3.16044 82.9343 3.27112 82.9343 3.4045V4.50725C82.9343 4.64063 82.8235 4.75131 82.6837 4.75131H81.1419C81.1126 4.75219 81.0847 4.76425 81.0641 4.78499C81.0435 4.80572 81.0317 4.83355 81.0312 4.86269V8.28162C81.0312 8.76975 81.297 9.02206 81.8204 9.02206H82.4988C82.6539 9.02206 82.7647 9.13344 82.7647 9.28056V10.4493C82.7647 10.5978 82.6622 10.7085 82.5217 10.7085H81.4597C79.8078 10.7085 79.0408 10.0499 79.0408 8.41431V4.862C79.0402 4.83286 79.0285 4.80503 79.0078 4.7843C78.9872 4.76356 78.9593 4.7515 78.93 4.75062L78.9293 4.75131ZM89.7868 4.78087C89.8107 4.84368 89.8095 4.91318 89.7835 4.97516C89.7575 5.03714 89.7087 5.08691 89.6469 5.11431L88.5697 5.54331C88.5078 5.56542 88.4397 5.56322 88.3793 5.53715C88.319 5.51108 88.2709 5.46312 88.245 5.40306C88.0539 4.90669 87.4925 4.38144 86.6299 4.38144C85.8842 4.38144 85.3754 4.72244 85.3754 5.17344C85.3754 5.51444 85.626 5.76537 86.1279 5.87606L87.7279 6.24663C89.2918 6.60138 89.9335 7.35625 89.9335 8.481C89.9335 10.1613 88.4215 10.923 86.6589 10.923C84.7634 10.923 83.6785 9.98319 83.2652 8.80688C83.2406 8.74332 83.2422 8.67264 83.2699 8.6103C83.2975 8.54795 83.3488 8.49899 83.4127 8.47413L84.5197 8.08225C84.5846 8.06071 84.6553 8.06485 84.7172 8.09378C84.7791 8.12272 84.8274 8.17424 84.852 8.23763C85.1469 9.05919 85.7811 9.48131 86.6513 9.48131C87.5215 9.48131 88.0304 9.11075 88.0304 8.57106C88.0304 8.17919 87.7133 7.86844 87.1449 7.73506L85.6184 7.38719C84.2538 7.07644 83.4944 6.38069 83.4944 5.23325C83.4944 3.82731 84.8582 2.93906 86.6361 2.93906C88.4139 2.93906 89.4614 3.90844 89.7854 4.78156L89.7868 4.78087Z" fill="#E1E1E1"/>
</g>
<defs>
<clipPath id="clip0_0_4">
<rect width="90" height="11" fill="white"/>
</clipPath>
</defs>
</svg>
