<svg width="24" height="24" viewBox="0 0 24 24" fill="none" xmlns="http://www.w3.org/2000/svg">
<path d="M11.0136 3.015C11.2738 2.97662 11.5231 3.01041 11.7466 3.13337C11.9466 3.24344 12.112 3.39123 12.2362 3.5775C12.366 3.7721 12.4326 3.99544 12.4427 4.2366C12.4536 4.49973 12.3693 4.74366 12.2126 4.96388L12.2135 4.96483C11.9539 5.36181 11.7602 5.78094 11.6311 6.22147C11.502 6.66199 11.4369 7.12722 11.4369 7.61826C11.437 8.9963 11.9156 10.1582 12.8783 11.1211C13.8414 12.0841 15.0039 12.5634 16.3823 12.5634C16.8546 12.5634 17.3236 12.4947 17.7905 12.3569C18.2582 12.2189 18.6717 12.0286 19.0329 11.7878L19.0386 11.785C19.2597 11.6443 19.4996 11.5713 19.7527 11.5823C19.9737 11.5919 20.18 11.6451 20.3663 11.7461L20.3787 11.7518C20.5889 11.8596 20.7526 12.0207 20.8673 12.2291C20.9913 12.4546 21.0221 12.7111 20.9857 12.98L20.9866 12.981C20.753 15.2837 19.7696 17.2021 18.0414 18.7216C16.3159 20.2387 14.3038 21 12.0184 21C9.50265 21 7.36333 20.1263 5.61849 18.3816C3.87368 16.6369 3.00002 14.4976 3 11.9819C3 9.6819 3.75222 7.67744 5.25484 5.98283C6.75654 4.2893 8.67824 3.30042 11.0042 3.01595C11.0063 3.01562 11.0087 3.01531 11.0108 3.015H11.0136ZM9.06468 6.18643C8.09227 6.6826 7.28648 7.3914 6.64506 8.31713C5.89609 9.39808 5.52095 10.6168 5.52095 11.9819C5.52098 13.7793 6.15307 15.3051 7.4235 16.5757C8.69424 17.8464 10.2207 18.4791 12.0184 18.4791C13.3836 18.4791 14.6024 18.104 15.6834 17.3551C16.6092 16.7136 17.317 15.9071 17.8132 14.9346C17.6739 14.9614 17.535 14.9876 17.3956 15.0085C17.0582 15.0591 16.7201 15.0852 16.3823 15.0852C14.3176 15.0852 12.5508 14.3552 11.0979 12.9024C9.645 11.4495 8.91507 9.68279 8.91505 7.61826C8.91505 7.28042 8.9402 6.94235 8.99081 6.60499C9.01177 6.46529 9.03787 6.32604 9.06468 6.18643Z" fill="#E1E1E1"/>
</svg>
