<svg width="24" height="24" viewBox="0 0 24 24" fill="none" xmlns="http://www.w3.org/2000/svg">
<path d="M19.2099 3.60794C19.4385 3.76495 19.532 3.97429 19.4904 4.23596L18.4496 17.7794C18.415 17.9691 18.3042 18.1163 18.1172 18.221C18.0202 18.2733 17.9128 18.2995 17.7951 18.2995C17.7189 18.2995 17.6358 18.2832 17.5457 18.2504L12.8391 16.4351L10.3247 20.2743C10.2001 20.4248 10.0304 20.5 9.81564 20.5C9.72559 20.5 9.6494 20.4869 9.58706 20.4607C9.45546 20.415 9.34983 20.3381 9.27017 20.2301C9.19051 20.1222 9.15069 20.0028 9.15069 19.872V15.829C9.15069 15.6177 9.2257 15.4125 9.36374 15.2462L15.6123 7.71961C15.7236 7.58553 15.5356 7.41408 15.3976 7.52385L7.48403 13.8194C7.19927 14.0459 6.80482 14.1043 6.46034 13.9708L2.91675 12.5982C2.66047 12.5066 2.52193 12.3267 2.50115 12.0585C2.4873 11.7968 2.59813 11.6039 2.83363 11.4796L18.5034 3.58832C18.6073 3.52944 18.7181 3.5 18.8358 3.5C18.9744 3.5 19.0991 3.53598 19.2099 3.60794Z" fill="#E1E1E1"/>
</svg>
