<svg width="24" height="24" viewBox="0 0 24 24" fill="none" xmlns="http://www.w3.org/2000/svg">
<path d="M5.25 4C4.56 4 4 4.56 4 5.25V8C4 8.26522 3.89464 8.51957 3.70711 8.70711C3.51957 8.89464 3.26522 9 3 9C2.73478 9 2.48043 8.89464 2.29289 8.70711C2.10536 8.51957 2 8.26522 2 8V5.25C2 4.38805 2.34241 3.5614 2.9519 2.9519C3.5614 2.34241 4.38805 2 5.25 2H8C8.26522 2 8.51957 2.10536 8.70711 2.29289C8.89464 2.48043 9 2.73478 9 3C9 3.26522 8.89464 3.51957 8.70711 3.70711C8.51957 3.89464 8.26522 4 8 4H5.25ZM5.25 20C4.56 20 4 19.44 4 18.75V16C4 15.7348 3.89464 15.4804 3.70711 15.2929C3.51957 15.1054 3.26522 15 3 15C2.73478 15 2.48043 15.1054 2.29289 15.2929C2.10536 15.4804 2 15.7348 2 16V18.75C2 19.1768 2.08406 19.5994 2.24739 19.9937C2.41072 20.388 2.65011 20.7463 2.9519 21.0481C3.25369 21.3499 3.61197 21.5893 4.00628 21.7526C4.40059 21.9159 4.8232 22 5.25 22H8C8.26522 22 8.51957 21.8946 8.70711 21.7071C8.89464 21.5196 9 21.2652 9 21C9 20.7348 8.89464 20.4804 8.70711 20.2929C8.51957 20.1054 8.26522 20 8 20H5.25ZM20 5.25C20 4.56 19.44 4 18.75 4H16C15.7348 4 15.4804 3.89464 15.2929 3.70711C15.1054 3.51957 15 3.26522 15 3C15 2.73478 15.1054 2.48043 15.2929 2.29289C15.4804 2.10536 15.7348 2 16 2H18.75C19.1768 2 19.5994 2.08406 19.9937 2.24739C20.388 2.41072 20.7463 2.65011 21.0481 2.9519C21.3499 3.25369 21.5893 3.61197 21.7526 4.00628C21.9159 4.40059 22 4.8232 22 5.25V8C22 8.26522 21.8946 8.51957 21.7071 8.70711C21.5196 8.89464 21.2652 9 21 9C20.7348 9 20.4804 8.89464 20.2929 8.70711C20.1054 8.51957 20 8.26522 20 8V5.25ZM18.75 20C19.44 20 20 19.44 20 18.75V16C20 15.7348 20.1054 15.4804 20.2929 15.2929C20.4804 15.1054 20.7348 15 21 15C21.2652 15 21.5196 15.1054 21.7071 15.2929C21.8946 15.4804 22 15.7348 22 16V18.75C22 19.1768 21.9159 19.5994 21.7526 19.9937C21.5893 20.388 21.3499 20.7463 21.0481 21.0481C20.7463 21.3499 20.388 21.5893 19.9937 21.7526C19.5994 21.9159 19.1768 22 18.75 22H16C15.7348 22 15.4804 21.8946 15.2929 21.7071C15.1054 21.5196 15 21.2652 15 21C15 20.7348 15.1054 20.4804 15.2929 20.2929C15.4804 20.1054 15.7348 20 16 20H18.75ZM6.5 7C6.5 6.72386 6.72386 6.5 7 6.5H9.3C9.57614 6.5 9.8 6.72386 9.8 7V9.8H7C6.72386 9.8 6.5 9.57614 6.5 9.3V7ZM14.2 9.8H9.8V14.2H7C6.72386 14.2 6.5 14.4239 6.5 14.7V17C6.5 17.2761 6.72386 17.5 7 17.5H9.3C9.57614 17.5 9.8 17.2761 9.8 17V14.2H14.2V17C14.2 17.2761 14.4239 17.5 14.7 17.5H17C17.2761 17.5 17.5 17.2761 17.5 17V14.7C17.5 14.4239 17.2761 14.2 17 14.2H14.2V9.8ZM14.2 9.8V7C14.2 6.72386 14.4239 6.5 14.7 6.5H17C17.2761 6.5 17.5 6.72386 17.5 7V9.3C17.5 9.57614 17.2761 9.8 17 9.8H14.2Z" fill="#E1E1E1"/>
</svg>
