<svg width="17" height="18" viewBox="0 0 17 18" fill="none" xmlns="http://www.w3.org/2000/svg">
<path d="M7.87667 5.22V7.16625C7.88149 7.4033 7.81862 7.63636 7.69628 7.83495C7.57394 8.03354 7.39783 8.18839 7.191 8.27925C7.05362 8.33984 6.90632 8.37119 6.7575 8.3715H4.91583C4.61872 8.37151 4.33364 8.24721 4.12269 8.02568C3.91174 7.80415 3.79201 7.50333 3.78958 7.18875V5.2425C3.78939 5.08595 3.81841 4.9309 3.87497 4.78626C3.93153 4.64161 4.01452 4.51022 4.11917 4.39963C4.22381 4.28904 4.34806 4.20142 4.48478 4.1418C4.62149 4.08219 4.76798 4.05176 4.91583 4.05225H6.7575C7.05097 4.05414 7.33214 4.17724 7.54118 4.39535C7.75021 4.61345 7.87058 4.90933 7.87667 5.22ZM7.87667 10.8413V12.7875C7.87704 13.1024 7.75941 13.4046 7.54959 13.6277C7.33976 13.8509 7.05489 13.9768 6.7575 13.9778H4.91583C4.6175 13.9778 4.33136 13.8524 4.1202 13.6293C3.90905 13.4061 3.79015 13.1034 3.78958 12.7875V10.8413C3.79108 10.5264 3.91051 10.225 4.12167 10.0032C4.33282 9.78149 4.61844 9.65751 4.91583 9.6585H6.7575C7.05395 9.6585 7.3383 9.78304 7.54812 10.0048C7.75794 10.2265 7.8761 10.5274 7.87667 10.8413ZM13.2175 5.22V7.16625C13.2217 7.47861 13.1096 7.78017 12.9055 8.00572C12.7014 8.23126 12.4216 8.36267 12.1267 8.3715H10.2921C9.99497 8.37151 9.70989 8.24721 9.49894 8.02568C9.28799 7.80415 9.16826 7.50333 9.16583 7.18875V5.2425C9.16565 5.08595 9.19466 4.9309 9.25122 4.78626C9.30778 4.64161 9.39077 4.51022 9.49542 4.39963C9.60006 4.28904 9.72431 4.20142 9.86103 4.1418C9.99774 4.08219 10.1442 4.05176 10.2921 4.05225H12.1267C12.4152 4.0618 12.6892 4.18828 12.8922 4.40559C13.0952 4.62289 13.2116 4.91442 13.2175 5.22ZM13.2175 10.8563V12.8025C13.218 13.1123 13.1043 13.41 12.9005 13.6323C12.6968 13.8546 12.4191 13.984 12.1267 13.9928H10.2921C9.99375 13.9928 9.70761 13.8674 9.49645 13.6443C9.2853 13.4211 9.1664 13.1184 9.16583 12.8025V10.8563C9.16752 10.5414 9.28701 10.2402 9.49812 10.0184C9.70923 9.79675 9.99474 9.6727 10.2921 9.6735H12.1267C12.4176 9.68319 12.6937 9.81176 12.8971 10.0323C13.1004 10.2528 13.2153 10.5481 13.2175 10.8563Z" fill="black"/>
<path d="M15.0521 7.27125C14.9119 7.26931 14.7779 7.20953 14.6787 7.10462C14.5795 6.99971 14.5229 6.85795 14.5208 6.7095V4.3965C14.5259 4.16213 14.4858 3.92913 14.403 3.71172C14.3202 3.49431 14.1964 3.29706 14.0392 3.132C13.728 2.80617 13.3081 2.62321 12.8704 2.62275H10.71C10.5694 2.62275 10.4345 2.56369 10.3349 2.45853C10.2353 2.35336 10.1791 2.21067 10.1788 2.06175C10.179 1.9127 10.235 1.76981 10.3346 1.66449C10.4342 1.55916 10.5692 1.5 10.71 1.5H12.8917C13.6095 1.51915 14.2913 1.8365 14.79 2.3835C15.0423 2.64923 15.2423 2.96528 15.3785 3.31339C15.5147 3.66149 15.5843 4.03472 15.5833 4.4115V6.7245C15.5795 6.87094 15.5218 7.01 15.4226 7.1121C15.3234 7.21421 15.1905 7.27131 15.0521 7.27125ZM12.8704 16.5H10.71C10.5694 16.5 10.4345 16.4409 10.3349 16.3358C10.2353 16.2306 10.1791 16.0879 10.1788 15.939C10.179 15.7899 10.235 15.6471 10.3346 15.5417C10.4342 15.4364 10.5692 15.3772 10.71 15.3773H12.8917C13.2183 15.3745 13.5368 15.2687 13.8064 15.0734C14.0761 14.8781 14.2846 14.6021 14.4054 14.2808C14.4855 14.0678 14.5248 13.8402 14.5208 13.611V11.3205C14.521 11.1714 14.5771 11.0286 14.6767 10.9232C14.7763 10.8179 14.9113 10.7587 15.0521 10.7587C15.1929 10.7587 15.3279 10.8179 15.4275 10.9232C15.5271 11.0286 15.5832 11.1714 15.5833 11.3205V13.611C15.5847 14.1789 15.4262 14.7343 15.128 15.2064C14.8299 15.6785 14.4057 16.0458 13.9096 16.2615C13.5802 16.4047 13.2267 16.479 12.8704 16.4775V16.5ZM6.31835 16.5H4.13668C3.77848 16.4997 3.42384 16.4247 3.09302 16.2793C2.76219 16.1339 2.46166 15.9209 2.2086 15.6525C1.95608 15.3844 1.75612 15.0661 1.62022 14.7158C1.48431 14.3656 1.41514 13.9904 1.41668 13.6117V11.3212C1.41687 11.1722 1.47292 11.0293 1.57253 10.924C1.67214 10.8187 1.80716 10.7595 1.94793 10.7595C2.08871 10.7595 2.22372 10.8187 2.32333 10.924C2.42294 11.0293 2.47899 11.1722 2.47918 11.3212V13.6117C2.48087 14.0756 2.65638 14.5198 2.96716 14.8468C3.27794 15.1737 3.69858 15.3567 4.13668 15.3555H6.31835C6.45912 15.3555 6.59414 15.4147 6.69375 15.52C6.79336 15.6253 6.84941 15.7682 6.8496 15.9172C6.84969 15.9911 6.836 16.0642 6.80932 16.1324C6.78264 16.2006 6.74349 16.2626 6.69412 16.3147C6.64475 16.3668 6.58614 16.4081 6.52165 16.4362C6.45716 16.4642 6.38807 16.4785 6.31835 16.4783V16.5ZM1.94793 7.27125C1.80773 7.26931 1.67377 7.20953 1.57455 7.10462C1.47534 6.99971 1.4187 6.85795 1.41668 6.7095V4.3965C1.41856 3.64066 1.70393 2.91657 2.21001 2.3835C2.72084 1.84759 3.41049 1.54634 4.1296 1.545H6.31126C6.45204 1.545 6.58706 1.60416 6.68667 1.70949C6.78627 1.81481 6.84233 1.9577 6.84251 2.10675C6.84214 2.25567 6.786 2.39836 6.68642 2.50353C6.58683 2.60869 6.45192 2.66775 6.31126 2.66775H4.1296C3.69144 2.66636 3.27069 2.84926 2.95987 3.17626C2.64905 3.50326 2.4736 3.94757 2.4721 4.4115V6.7245C2.46827 6.86965 2.41158 7.00761 2.31388 7.10951C2.21619 7.21142 2.08506 7.26937 1.94793 7.27125Z" fill="black"/>
</svg>
