<svg width="24" height="24" viewBox="0 0 24 24" fill="none" xmlns="http://www.w3.org/2000/svg">
<path d="M12.452 4.01176C13.5007 4.06845 14.5023 4.32428 15.4552 4.77791C16.3338 5.19615 17.1025 5.75624 17.7637 6.45385V5.11814C17.7637 4.80927 17.871 4.53799 18.0872 4.32259C18.3027 4.10782 18.5732 4.00078 18.881 4C19.19 3.99927 19.4611 4.10716 19.6774 4.32343C19.8934 4.53945 20.0012 4.80988 20 5.11814V9.4193C20 9.72816 19.8924 9.99899 19.6766 10.2148C19.4608 10.4306 19.1903 10.5372 18.8819 10.5366L14.5807 10.5374C14.2718 10.5374 14.0006 10.4302 13.7851 10.214C13.5704 9.99844 13.4633 9.72799 13.4626 9.42014C13.4618 9.11119 13.5694 8.83958 13.786 8.62375C14.002 8.40851 14.2727 8.30117 14.5807 8.30117H16.4087C15.909 7.72244 15.3253 7.25266 14.6529 6.89405C13.8307 6.45549 12.9476 6.23627 12 6.23627C10.3898 6.23627 9.03287 6.79436 7.91389 7.91389C6.79489 9.03347 6.23684 10.3904 6.23627 12C6.23572 13.6095 6.79373 14.9668 7.91389 16.0869C9.03405 17.2071 10.3911 17.7648 12 17.7637L12.2436 17.7587C13.4513 17.7129 14.5342 17.3239 15.4997 16.5901C16.5299 15.8072 17.2069 14.8018 17.5361 13.5676L17.5386 13.5575L17.5755 13.4542C17.6696 13.2197 17.8227 13.0307 18.0367 12.8989C18.2761 12.7516 18.544 12.6979 18.8281 12.7334C19.1334 12.7696 19.3896 12.9037 19.5783 13.1391C19.77 13.3785 19.8324 13.6578 19.7555 13.9532C19.326 15.7158 18.3911 17.1673 16.9556 18.2997C15.6082 19.3626 14.0693 19.9273 12.3469 19.9933L12 20C10.8911 20 9.84868 19.7897 8.87577 19.3666C7.90853 18.9459 7.06409 18.3757 6.34464 17.6562C5.62519 16.9367 5.05495 16.0923 4.63425 15.1251C4.21111 14.1522 4.00059 13.1094 4 12C3.99943 10.8905 4.21069 9.84822 4.63509 8.87577C5.05687 7.90936 5.62628 7.06453 6.3438 6.34464C7.06166 5.62449 7.90677 5.05435 8.87577 4.63425C9.85002 4.21195 10.8925 4.00118 12 4L12.452 4.01176Z" fill="#E1E1E1"/>
</svg>
