<svg width="24" height="24" viewBox="0 0 24 24" fill="none" xmlns="http://www.w3.org/2000/svg">
<path d="M18.7129 4.2002C19.0127 4.19955 19.2764 4.30392 19.4863 4.51367C19.696 4.72337 19.8007 4.98629 19.7998 5.28516V9.48242C19.7997 9.7823 19.6955 10.0455 19.4863 10.2549C19.304 10.4372 19.0815 10.5381 18.8311 10.5615L18.7051 10.5674L14.5176 10.5684C14.2177 10.5683 13.954 10.4643 13.7451 10.2549C13.5627 10.0718 13.4598 9.84732 13.4365 9.59375L13.4316 9.4834C13.4309 9.18336 13.5352 8.91939 13.7451 8.70996L13.8271 8.63672C14.022 8.47699 14.2559 8.39658 14.5176 8.39649H16.335L15.9932 8.05567C15.5785 7.64128 15.1119 7.29306 14.5898 7.01465C13.787 6.58654 12.925 6.37207 12 6.37207C10.4279 6.37207 9.10331 6.91766 8.01074 8.01075C6.91819 9.10387 6.37265 10.4285 6.37207 12C6.37155 13.5715 6.91703 14.8965 8.01074 15.9902C9.10407 17.0835 10.4282 17.6276 11.998 17.627H12.001L12.2334 17.623H12.2412L12.4531 17.6113H12.457C13.549 17.5302 14.5335 17.1528 15.417 16.4814C16.4219 15.7176 17.0826 14.7368 17.4043 13.5332L17.4063 13.5273L17.4092 13.5195V13.5176L17.4434 13.4199L17.4453 13.4209L17.4463 13.4131C17.5379 13.1887 17.6861 13.0074 17.8916 12.8809C18.1238 12.738 18.3841 12.6863 18.6602 12.7207H18.6621C18.9586 12.756 19.2066 12.8859 19.3896 13.1143C19.5748 13.3456 19.6351 13.6157 19.5615 13.9014L19.5605 13.9043C19.1417 15.6226 18.2305 17.0386 16.8311 18.1426C15.5175 19.1786 14.0169 19.7287 12.3379 19.793L12 19.7998L11.5977 19.79C10.6659 19.7451 9.78408 19.5426 8.9541 19.1816C8.01106 18.7714 7.18768 18.216 6.48633 17.5147C5.78501 16.8133 5.22954 15.9899 4.81934 15.0469C4.4068 14.0984 4.20079 13.0816 4.2002 12C4.19965 10.9184 4.4056 9.90215 4.81934 8.9541C5.23056 8.01187 5.78499 7.18711 6.48438 6.48535L6.75391 6.2295C7.39306 5.6475 8.12748 5.17776 8.9541 4.81934C9.90385 4.4077 10.9204 4.20138 12 4.2002L12.4404 4.21094C12.4439 4.21113 12.4477 4.21173 12.4512 4.21192C13.4696 4.26831 14.4423 4.51827 15.3682 4.95899C16.0835 5.29954 16.7237 5.73748 17.291 6.26856L17.6279 6.58399V5.28614C17.6279 4.98629 17.7325 4.72292 17.9424 4.51367C18.1516 4.30536 18.4141 4.20107 18.7129 4.2002Z" fill="#E1E1E1"/>
</svg>
