<svg width="24" height="24" viewBox="0 0 24 24" fill="none" xmlns="http://www.w3.org/2000/svg">
<path d="M8.1 20C7.55 20 7.07933 19.8043 6.688 19.413C6.29667 19.0217 6.10067 18.5507 6.1 18V16C6.1 15.7167 6.196 15.4793 6.388 15.288C6.58 15.0967 6.81733 15.0007 7.1 15H9.1V12.75C8.6 12.7167 8.10433 12.6127 7.613 12.438C7.12167 12.2633 6.69233 12.0007 6.325 11.65C6.225 11.55 6.146 11.4377 6.088 11.313C6.03 11.1883 6.00067 11.059 6 10.925V10.25H5.275C5.14167 10.25 5.01267 10.225 4.888 10.175C4.76333 10.125 4.65067 10.05 4.55 9.95L2.3 7.7C2.1 7.5 2 7.26667 2 7C2 6.73333 2.1 6.5 2.3 6.3C2.78333 5.81667 3.43333 5.46267 4.25 5.238C5.06667 5.01333 5.81667 4.90067 6.5 4.9C6.95 4.9 7.38767 4.93333 7.813 5C8.23833 5.06667 8.66733 5.19167 9.1 5.375C9.1 4.99167 9.23333 4.66667 9.5 4.4C9.76667 4.13333 10.0917 4 10.475 4H19.1C19.65 4 20.121 4.196 20.513 4.588C20.905 4.98 21.1007 5.45067 21.1 6V17C21.1 17.8333 20.8083 18.5417 20.225 19.125C19.6417 19.7083 18.9333 20 18.1 20H8.1ZM11.1 15H16.1C16.3833 15 16.621 15.096 16.813 15.288C17.005 15.48 17.1007 15.7173 17.1 16V17C17.1 17.2833 17.196 17.521 17.388 17.713C17.58 17.905 17.8173 18.0007 18.1 18C18.3827 17.9993 18.6203 17.9033 18.813 17.712C19.0057 17.5207 19.1013 17.2833 19.1 17V6H11.1V6.6L16.825 12.325C16.975 12.475 17.0667 12.646 17.1 12.838C17.1333 13.03 17.1083 13.2173 17.025 13.4C16.9417 13.5827 16.825 13.7283 16.675 13.837C16.525 13.9457 16.3333 14 16.1 14C15.9667 14 15.8377 13.9707 15.713 13.912C15.5883 13.8533 15.484 13.7827 15.4 13.7L12.85 11.15L12.65 11.35C12.4167 11.5833 12.171 11.7917 11.913 11.975C11.655 12.1583 11.384 12.3 11.1 12.4V15ZM5.7 8.25H7C7.28333 8.25 7.521 8.346 7.713 8.538C7.905 8.73 8.00067 8.96733 8 9.25V10.4C8.2 10.5333 8.40833 10.625 8.625 10.675C8.84167 10.725 9.06667 10.75 9.3 10.75C9.68333 10.75 10.0293 10.6917 10.338 10.575C10.6467 10.4583 10.9507 10.25 11.25 9.95L11.45 9.75L10.05 8.35C9.56667 7.86667 9.025 7.504 8.425 7.262C7.825 7.02 7.18333 6.89933 6.5 6.9C6.16667 6.9 5.85 6.925 5.55 6.975C5.25 7.025 4.95 7.1 4.65 7.2L5.7 8.25Z" fill="#E1E1E1"/>
</svg>
