<svg width="24" height="24" viewBox="0 0 16.2499 16.2499" fill="none" xmlns="http://www.w3.org/2000/svg">
<path d="M11.7529 6.91813C11.7529 6.28333 11.628 5.65485 11.3851 5.06836C11.1421 4.48175 10.7859 3.94832 10.3369 3.49935C9.888 3.05048 9.35522 2.69412 8.76872 2.45117C8.18211 2.20819 7.55307 2.08333 6.91813 2.08333C6.28338 2.08335 5.65481 2.20831 5.06836 2.45117C4.48175 2.69415 3.94832 3.05038 3.49935 3.49935C2.59266 4.40604 2.08338 5.63588 2.08333 6.91813C2.08333 8.20037 2.59272 9.4302 3.49935 10.3369C4.40604 11.2436 5.63588 11.7529 6.91813 11.7529C8.20044 11.7529 9.43018 11.2436 10.3369 10.3369C10.7858 9.88799 11.1421 9.35525 11.3851 8.76872C11.6281 8.18211 11.7529 7.55307 11.7529 6.91813ZM13.8363 6.91813C13.8363 7.82657 13.6573 8.72613 13.3097 9.56543C13.0958 10.0819 12.82 10.569 12.4902 11.0173L15.9448 14.4718C16.3516 14.8786 16.3516 15.538 15.9448 15.9448C15.538 16.3516 14.8786 16.3516 14.4718 15.9448L11.0173 12.4902C9.8364 13.3589 8.40209 13.8363 6.91813 13.8363C5.08334 13.8362 3.32376 13.1073 2.02637 11.8099C0.729037 10.5125 0 8.7529 0 6.91813C4.31454e-05 5.08334 0.728974 3.32376 2.02637 2.02637C2.66879 1.38394 3.43147 0.874207 4.27083 0.52653C5.11013 0.178896 6.00969 2.13909e-05 6.91813 0C7.82653 0 8.72617 0.178951 9.56543 0.52653C10.4047 0.874178 11.1675 1.38402 11.8099 2.02637C12.4523 2.66878 12.9621 3.43148 13.3097 4.27083C13.6574 5.11015 13.8362 6.00966 13.8363 6.91813Z" fill="#141818"/>
</svg>
