<svg width="24" height="24" viewBox="0 0 24 24" fill="none" xmlns="http://www.w3.org/2000/svg">
<path d="M13.1805 20.315C13.8005 20.0757 14.5042 20.3683 14.7517 20.9683C14.9988 21.5683 14.6965 22.2483 14.0766 22.4878C13.6707 22.6444 13.2535 22.7808 12.8264 22.897C12.7366 22.9214 12.646 22.942 12.5548 22.9582C12.243 23.0139 11.757 23.0139 11.4452 22.9582C11.3539 22.9419 11.2624 22.9214 11.1726 22.897C10.7457 22.7807 10.3291 22.6445 9.92338 22.4878C9.30344 22.2482 9.00092 21.5672 9.24834 20.9673C9.49593 20.3674 10.1995 20.0755 10.8195 20.315C11.1445 20.4406 11.4805 20.5498 11.8272 20.6442C11.8459 20.6493 11.8651 20.6543 11.8841 20.6578C11.9235 20.6648 11.9623 20.6732 12 20.6837C12.0377 20.6732 12.0765 20.6648 12.1159 20.6578C12.1349 20.6543 12.1541 20.6493 12.1728 20.6442C12.5196 20.55 12.8555 20.4405 13.1805 20.315Z" fill="#E1E1E1"/>
<path d="M18.0174 16.3039C18.3737 15.7578 19.1206 15.5938 19.6851 15.9384C20.2497 16.2832 20.418 17.006 20.0618 17.5523C19.8167 17.9282 19.5496 18.2965 19.2601 18.6564C18.9892 18.9931 18.7054 19.314 18.4102 19.6171C17.9523 20.0868 17.1873 20.1087 16.7017 19.6659C16.216 19.2227 16.1933 18.4815 16.6512 18.0114C16.8925 17.7637 17.1264 17.4995 17.352 17.219C17.5943 16.9177 17.8161 16.6126 18.0174 16.3039Z" fill="#E1E1E1"/>
<path d="M4.31487 15.9384C4.87928 15.5937 5.6251 15.7569 5.98154 16.3029C6.18298 16.6116 6.40545 16.9165 6.64799 17.2179C6.87375 17.4984 7.10746 17.7627 7.34879 18.0104C7.80676 18.4804 7.78392 19.2205 7.29835 19.6638C6.81266 20.107 6.04787 20.086 5.58983 19.616C5.29473 19.3132 5.01177 18.9929 4.74093 18.6564C4.45139 18.2966 4.18341 17.9281 3.93818 17.5523C3.58187 17.0061 3.75042 16.2833 4.31487 15.9384Z" fill="#E1E1E1"/>
<path d="M12.0984 5.83695C12.7658 5.83717 13.3068 6.36045 13.3068 7.00641V7.7542H15.4246C15.9222 7.75449 16.3693 8.05026 16.5503 8.49888C16.7313 8.94786 16.6087 9.45931 16.2423 9.7857L11.6845 13.8445H15.4246C16.0918 13.8449 16.633 14.3692 16.633 15.015C16.6327 15.6607 16.0917 16.1841 15.4246 16.1845H13.3068V16.9323C13.3068 17.5783 12.7658 18.1026 12.0984 18.1028C11.4308 18.1028 10.8889 17.5784 10.8889 16.9323V16.1845H8.58618C8.08822 16.1845 7.6415 15.8887 7.4604 15.4398C7.27943 14.9909 7.40108 14.4805 7.76733 14.154L12.3263 10.0942H8.58618C7.91861 10.0942 7.37786 9.57073 7.37776 8.9247C7.37776 8.2786 7.91855 7.7542 8.58618 7.7542H10.8889V7.00641C10.8889 6.36031 11.4308 5.83695 12.0984 5.83695Z" fill="#E1E1E1"/>
<path d="M3.20841 9.61433C3.87604 9.61433 4.41683 10.1387 4.41683 10.7848V11.4734C4.41673 11.849 4.43735 12.2173 4.478 12.5785C4.55029 13.2206 4.07145 13.7982 3.40803 13.8684C2.74433 13.9384 2.14743 13.4742 2.07512 12.8319C2.02473 12.3841 1.99987 11.9309 2 11.4724V10.7848C2 10.1387 2.54079 9.61434 3.20841 9.61433Z" fill="#E1E1E1"/>
<path d="M20.7916 9.61433C21.4592 9.61433 22 10.1387 22 10.7848V11.4724C22 11.931 21.9754 12.385 21.9249 12.833C21.8523 13.4751 21.2556 13.9385 20.592 13.8684C19.9283 13.7983 19.4485 13.2208 19.5209 12.5785C19.5617 12.217 19.5832 11.8482 19.5832 11.4724V10.7848C19.5832 10.1387 20.124 9.61433 20.7916 9.61433Z" fill="#E1E1E1"/>
<path d="M5.54905 2.98912C6.17917 2.7757 6.86851 3.09699 7.08908 3.70679C7.30948 4.31656 6.97756 4.98375 6.3475 5.19718L5.08006 5.62716C4.68352 5.76147 4.41703 6.12314 4.41683 6.5297V6.84855C4.41683 7.49465 3.87604 8.01905 3.20841 8.01905C2.54079 8.01905 2 7.49465 2 6.84855V6.5297C2.0002 5.12896 2.91442 3.8809 4.28053 3.41806L5.54905 2.98912Z" fill="#E1E1E1"/>
<path d="M16.9109 3.70679C17.1315 3.09699 17.8208 2.7757 18.451 2.98912L19.7195 3.41806C21.0856 3.8809 21.9998 5.12896 22 6.5297V6.84855C22 7.49465 21.4592 8.01905 20.7916 8.01905C20.124 8.01905 19.5832 7.49465 19.5832 6.84855V6.5297C19.583 6.12314 19.3165 5.76147 18.9199 5.62716L17.6525 5.19718C17.0224 4.98375 16.6905 4.31656 16.9109 3.70679Z" fill="#E1E1E1"/>
<path d="M10.8742 1.18507C11.6028 0.93831 12.3972 0.93831 13.1258 1.18507L14.2247 1.55689C14.8545 1.77033 15.1863 2.43773 14.9663 3.04728C14.7458 3.65711 14.0553 3.97943 13.4252 3.76599L12.3263 3.39313C12.1151 3.32173 11.8849 3.32173 11.6738 3.39313L10.5748 3.76599C9.94466 3.97943 9.25425 3.65711 9.0337 3.04728C8.81371 2.43773 9.14555 1.77033 9.77527 1.55689L10.8742 1.18507Z" fill="#E1E1E1"/>
</svg>
