<svg width="24" height="24" viewBox="0 0 24 24" fill="none" xmlns="http://www.w3.org/2000/svg">
<path d="M12.0231 8.15942C12.6424 8.15959 13.1714 8.37601 13.6085 8.80854C14.0457 9.24097 14.2635 9.76428 14.2635 10.3769C14.2634 10.7914 14.1589 11.172 13.9495 11.5188C13.7397 11.866 13.4514 12.1351 13.0865 12.3242L13.5941 15.1069C13.6305 15.2902 13.5845 15.4595 13.4554 15.6123C13.3261 15.7648 13.1657 15.8406 12.9757 15.8409H11.0705C10.8801 15.8409 10.7194 15.7651 10.5899 15.6123C10.4605 15.4594 10.4137 15.2904 10.4502 15.1069L10.9578 12.3242C10.593 12.1351 10.3046 11.866 10.0948 11.5188C9.88546 11.172 9.7809 10.7913 9.78082 10.3769C9.78082 9.76408 10.0002 9.24106 10.4377 8.80854C10.875 8.37603 11.4037 8.15942 12.0231 8.15942Z" fill="#E1E1E1"/>
<path fill-rule="evenodd" clip-rule="evenodd" d="M12 2C12.336 2 12.6649 2.09614 12.9478 2.27682L13.0662 2.35977L13.4544 2.64526C15.3949 4.0249 17.3121 4.66682 19.2326 4.6669C19.7034 4.6669 20.155 4.85567 20.4866 5.19159C20.8166 5.52618 21 5.97764 21 6.4445V11.1108C21 13.5661 20.278 15.741 18.8328 17.5751C17.3994 19.3941 15.3048 20.8153 12.6521 21.8749C12.2338 22.0417 11.7672 22.0417 11.3489 21.8749C8.6961 20.8152 6.60061 19.3933 5.16717 17.5741C3.72217 15.7401 3 13.5656 3 11.1108V6.4445C3 5.97764 3.18338 5.52618 3.51338 5.19159C3.84505 4.85567 4.29662 4.6669 4.76744 4.6669L5.15176 4.65822C7.07172 4.57208 8.99021 3.83795 10.9338 2.35977C11.2411 2.12602 11.6161 2 12 2ZM12 4.33124C9.83669 5.91019 7.57624 6.77909 5.21918 6.87757V11.1108C5.21918 13.1004 5.79395 14.7818 6.90957 16.1977C8.00996 17.5943 9.68564 18.7903 12 19.7394C14.3142 18.7903 15.9901 17.595 17.0904 16.1987C18.206 14.7829 18.7808 13.1009 18.7808 11.1108V6.87757C16.4238 6.77909 14.1633 5.91019 12 4.33124Z" fill="#E1E1E1"/>
</svg>
