<svg width="24" height="24" viewBox="0 0 24 24" fill="none" xmlns="http://www.w3.org/2000/svg">
<path fill-rule="evenodd" clip-rule="evenodd" d="M12 2C12.1623 2 12.3206 2.05237 12.4504 2.14974C14.9923 4.05655 17.5868 5.00013 20.2496 5.00021C20.4485 5.00021 20.6396 5.07884 20.7803 5.2194C20.9209 5.36005 21 5.55109 21 5.75V10.9996C21 16.0005 18.0417 19.6759 12.2747 21.9479C12.0981 22.0174 11.9019 22.0174 11.7253 21.9479C5.95834 19.6759 3 15.9995 3 10.9996V5.75C3 5.55109 3.07907 5.36005 3.21973 5.2194C3.36036 5.07884 3.55152 5.00021 3.75037 5.00021C6.41318 5.00013 9.00773 4.05655 11.5496 2.14974C11.6794 2.05237 11.8377 2 12 2ZM12.0231 8.11111C11.3949 8.11111 10.8592 8.33056 10.4158 8.76866C9.9722 9.20657 9.75 9.73569 9.75 10.3561C9.75006 10.7759 9.85617 11.1616 10.0686 11.5128C10.2813 11.8643 10.5732 12.1362 10.9431 12.3277L10.429 15.1456C10.392 15.3314 10.4395 15.5019 10.5707 15.6567C10.702 15.8114 10.8643 15.8889 11.0574 15.8889H12.9888C13.1817 15.8888 13.3442 15.8113 13.4755 15.6567C13.6064 15.502 13.6531 15.3313 13.6161 15.1456L13.1019 12.3277C13.4719 12.1362 13.7637 11.8643 13.9764 11.5128C14.1889 11.1615 14.295 10.776 14.295 10.3561C14.295 9.73586 14.0737 9.2065 13.6304 8.76866C13.1871 8.33064 12.6511 8.11119 12.0231 8.11111Z" fill="#E1E1E1"/>
</svg>
