<svg width="24" height="24" viewBox="0 0 24 24" fill="none" xmlns="http://www.w3.org/2000/svg">
<path fill-rule="evenodd" clip-rule="evenodd" d="M11.2142 1.13346C11.7229 0.955519 12.2772 0.955511 12.7858 1.13346L19.924 3.63208C20.8782 3.96613 21.517 4.86728 21.517 5.87827V10.9625C21.5178 13.7746 20.6209 16.3335 18.8261 18.6378C17.1502 20.7893 15.0548 22.2189 12.5409 22.9261C12.1873 23.0255 11.8128 23.0254 11.4591 22.9261C8.94451 22.2195 6.84907 20.7905 5.17391 18.6389C3.37996 16.3346 2.483 13.7753 2.483 10.9625V5.87827C2.483 4.86727 3.12186 3.96612 4.07606 3.63208L11.2142 1.13346ZM12.0038 4.74067C11.2661 4.74078 10.6676 5.33703 10.6675 6.0727V6.92455H8.22146C7.48368 6.92455 6.88524 7.52192 6.88514 8.25766C6.8854 8.99326 7.48377 9.58968 8.22146 9.58968H12.354L7.31697 14.212C6.91199 14.5837 6.77652 15.1659 6.97645 15.6773C7.17654 16.1886 7.67105 16.5259 8.22146 16.5259H10.6675V17.3777C10.6676 18.1134 11.2661 18.7097 12.0038 18.7098C12.7414 18.7096 13.34 18.1134 13.3401 17.3777V16.5259H15.7786C16.5161 16.5256 17.1137 15.9284 17.1138 15.1928C17.1136 14.4574 16.516 13.861 15.7786 13.8608H11.6471L16.6831 9.23841C17.088 8.86673 17.2235 8.28454 17.0236 7.77318C16.8236 7.26193 16.3288 6.92477 15.7786 6.92455H13.3401V6.0727C13.34 5.33706 12.7414 4.74082 12.0038 4.74067Z" fill="#E1E1E1"/>
</svg>
