<svg width="24" height="24" viewBox="0 0 24 24" fill="none" xmlns="http://www.w3.org/2000/svg">
<path d="M19.5342 6.54086C19.5341 6.14671 19.2765 5.79592 18.8921 5.66566L12.3168 3.43778C12.1118 3.36835 11.8882 3.36835 11.6832 3.43778L5.10788 5.66566C4.72347 5.79592 4.46593 6.14671 4.46575 6.54086V11.0753C4.46518 13.3057 5.19272 15.3308 6.68429 17.1842C8.07407 18.9109 9.78439 20.0334 11.8352 20.5917C11.9428 20.621 12.0572 20.621 12.1648 20.5917C14.2162 20.0339 15.9267 18.9119 17.3157 17.1852C18.8067 15.3317 19.5342 13.3058 19.5342 11.0743V6.54086ZM10.8634 16.9149V16.195H8.59568C8.08781 16.195 7.63204 15.8937 7.44735 15.4358C7.26274 14.9779 7.3872 14.4575 7.76092 14.1246L12.2547 10.1214H8.59568C7.91478 10.1214 7.3628 9.58722 7.3628 8.92825C7.36309 8.26951 7.91495 7.73507 8.59568 7.73507H10.8634V7.01627C10.8634 6.3573 11.4154 5.82309 12.0963 5.82309C12.777 5.8233 13.3291 6.35742 13.3291 7.01627V7.73507H15.414C15.9219 7.73507 16.3787 8.03731 16.5634 8.49531C16.7478 8.95323 16.6224 9.47373 16.2487 9.80656L11.756 13.8087H15.414C16.0948 13.8087 16.6467 14.343 16.6468 15.0018C16.6468 15.6608 16.0949 16.195 15.414 16.195H13.3291V16.9149C13.3291 17.5737 12.777 18.1078 12.0963 18.108C11.4154 18.108 10.8634 17.5738 10.8634 16.9149ZM22 11.0743C22 13.8582 21.0755 16.3955 19.2613 18.6508C17.564 20.7608 15.4133 22.187 12.8316 22.889C12.2875 23.0369 11.7113 23.0371 11.1674 22.889C8.58648 22.1863 6.4365 20.7594 4.73866 18.6497C2.92384 16.3946 1.99919 13.8578 2 11.0743V6.54086C2.00018 5.13261 2.92 3.87815 4.29345 3.41292L10.8688 1.18607C11.6012 0.937975 12.3988 0.937975 13.1312 1.18607L19.7065 3.41292C21.08 3.87815 21.9998 5.13261 22 6.54086V11.0743Z" fill="#E1E1E1"/>
</svg>
