<svg width="24" height="24" viewBox="0 0 24 24" fill="none" xmlns="http://www.w3.org/2000/svg">
<path d="M15.4785 17.616V7.1375C15.4785 6.81833 15.5883 6.549 15.8077 6.3295C16.0272 6.10983 16.2967 6 16.616 6C16.9352 6 17.2045 6.10983 17.424 6.3295C17.6437 6.549 17.7535 6.81833 17.7535 7.1375V17.616C17.7535 17.9352 17.6437 18.2045 17.424 18.424C17.2045 18.6437 16.9352 18.7535 16.616 18.7535C16.2967 18.7535 16.0272 18.6437 15.8077 18.424C15.5883 18.2045 15.4785 17.9352 15.4785 17.616ZM6 16.6213V8.13225C6 7.79242 6.114 7.51783 6.342 7.3085C6.56983 7.09933 6.835 6.99475 7.1375 6.99475C7.23683 6.99475 7.3425 7.00608 7.4545 7.02875C7.5665 7.05125 7.67008 7.09783 7.76525 7.1685L14.1447 11.4383C14.3146 11.5501 14.442 11.6878 14.527 11.8515C14.612 12.015 14.6545 12.1901 14.6545 12.3768C14.6545 12.5634 14.612 12.7385 14.527 12.902C14.442 13.0657 14.3146 13.2034 14.1447 13.3153L7.76525 17.585C7.67008 17.6557 7.5665 17.7023 7.4545 17.7248C7.3425 17.7474 7.23683 17.7587 7.1375 17.7587C6.835 17.7587 6.56983 17.6542 6.342 17.445C6.114 17.2357 6 16.9611 6 16.6213Z" fill="#E1E1E1"/>
</svg>
