<svg width="24" height="24" viewBox="0 0 24 24" fill="none" xmlns="http://www.w3.org/2000/svg">
<path fill-rule="evenodd" clip-rule="evenodd" d="M12.5 2.58154C7.59312 2.58154 3.5 6.17568 3.5 10.7443C3.5 14.5968 6.41893 17.7631 10.2688 18.6543C10.2806 18.8561 10.2924 19.0372 10.3044 19.1976C10.3781 20.1675 11.0257 20.9943 12.0483 21.1672C12.2769 21.2061 12.5423 21.2438 12.85 21.2777C12.9377 21.2873 13.0264 21.2784 13.1105 21.2514C13.1945 21.2244 13.2719 21.1801 13.3376 21.1212C13.4034 21.0623 13.4559 20.9902 13.4919 20.9096C13.5279 20.8291 13.5465 20.7418 13.5465 20.6535V19.535C13.5465 19.3685 13.6127 19.2088 13.7304 19.091C13.8482 18.9733 14.0079 18.9071 14.1744 18.9071C14.341 18.9071 14.5007 18.9733 14.6184 19.091C14.7362 19.2088 14.8023 19.3685 14.8023 19.535V20.7888C14.8023 20.9541 14.8675 21.1128 14.9839 21.2304C15.1002 21.348 15.2582 21.4149 15.4235 21.4167C15.8491 21.4213 16.2748 21.4189 16.7003 21.4095C16.8643 21.4058 17.0204 21.338 17.1351 21.2207C17.2498 21.1033 17.314 20.9457 17.314 20.7816V19.535C17.314 19.3685 17.3801 19.2088 17.4979 19.091C17.6156 18.9733 17.7753 18.9071 17.9419 18.9071C18.1084 18.9071 18.2681 18.9733 18.3859 19.091C18.5036 19.2088 18.5698 19.3685 18.5698 19.535V20.6016C18.5698 20.6914 18.5891 20.7801 18.6263 20.8618C18.6635 20.9434 18.7178 21.0162 18.7856 21.0751C18.8533 21.134 18.9328 21.1777 19.0189 21.2033C19.1049 21.2288 19.1954 21.2357 19.2843 21.2233C19.4152 21.2051 19.5369 21.1864 19.6493 21.1672C20.672 20.9943 21.3196 20.168 21.3928 19.1976C21.4489 18.4584 21.5 17.3068 21.5 15.5583V10.3257C21.4997 10.2671 21.492 10.2109 21.477 10.157C21.1417 5.86926 17.1959 2.58154 12.5 2.58154ZM20.4412 11.6877C20.4412 10.1401 19.567 9.15807 18.7517 9.15807C17.9364 9.15807 17.0623 10.1401 17.0623 11.6877C17.0623 13.2353 17.9369 13.8988 18.7517 13.8988C19.5665 13.8988 20.4412 13.2353 20.4412 11.6877ZM10.9118 11.6877C10.9118 10.2205 11.8342 9.15807 12.8426 9.15807C13.8509 9.15807 14.7734 10.2205 14.7734 11.6877C14.7734 13.1549 13.8509 13.8988 12.8426 13.8988C11.8342 13.8988 10.9118 13.1549 10.9118 11.6877Z" fill="#E1E1E1"/>
</svg>
