<svg width="24" height="24" viewBox="0 0 24 24" fill="none" xmlns="http://www.w3.org/2000/svg">
<path fill-rule="evenodd" clip-rule="evenodd" d="M12.5 3.10498C7.86572 3.10498 4 6.49945 4 10.8143C4 14.4527 6.75677 17.4431 10.3928 18.2848C10.4039 18.4754 10.4151 18.6464 10.4264 18.798C10.496 19.714 11.1076 20.4948 12.0734 20.6581C12.2893 20.6948 12.5399 20.7304 12.8305 20.7624C12.9134 20.7716 12.9972 20.7631 13.0766 20.7376C13.1559 20.7122 13.229 20.6703 13.2911 20.6146C13.3532 20.559 13.4028 20.4909 13.4368 20.4148C13.4708 20.3387 13.4884 20.2563 13.4884 20.173V19.1166C13.4884 18.9593 13.5509 18.8085 13.6621 18.6973C13.7733 18.5861 13.9241 18.5236 14.0814 18.5236C14.2387 18.5236 14.3895 18.5861 14.5007 18.6973C14.6119 18.8085 14.6744 18.9593 14.6744 19.1166V20.3007C14.6744 20.4569 14.736 20.6068 14.8459 20.7178C14.9557 20.8288 15.1049 20.892 15.2611 20.8937C15.6631 20.8981 16.0651 20.8958 16.4669 20.887C16.6219 20.8835 16.7693 20.8194 16.8776 20.7086C16.9859 20.5978 17.0466 20.4489 17.0465 20.294V19.1166C17.0465 18.9593 17.109 18.8085 17.2202 18.6973C17.3314 18.5861 17.4823 18.5236 17.6395 18.5236C17.7968 18.5236 17.9477 18.5861 18.0589 18.6973C18.1701 18.8085 18.2326 18.9593 18.2326 19.1166V20.124C18.2326 20.2087 18.2508 20.2925 18.286 20.3696C18.3211 20.4468 18.3724 20.5155 18.4364 20.5711C18.5003 20.6268 18.5754 20.668 18.6567 20.6922C18.738 20.7163 18.8235 20.7227 18.9074 20.7111C19.031 20.6939 19.1459 20.6763 19.2522 20.6581C20.218 20.4948 20.8296 19.7144 20.8988 18.798C20.9518 18.0998 21 17.0122 21 15.3608V10.4189C20.9997 10.3636 20.9925 10.3105 20.9783 10.2596C20.6616 6.21005 16.935 3.10498 12.5 3.10498ZM20 11.7053C20 10.2437 19.1744 9.31615 18.4044 9.31615C17.6344 9.31615 16.8088 10.2437 16.8088 11.7053C16.8088 13.1669 17.6349 13.7935 18.4044 13.7935C19.1739 13.7935 20 13.1669 20 11.7053ZM11 11.7053C11 10.3196 11.8712 9.31615 12.8235 9.31615C13.7759 9.31615 14.6471 10.3196 14.6471 11.7053C14.6471 13.0909 13.7759 13.7935 12.8235 13.7935C11.8712 13.7935 11 13.0909 11 11.7053Z" fill="#E1E1E1"/>
</svg>
