<svg width="20" height="20" viewBox="0 0 20 20" fill="none" xmlns="http://www.w3.org/2000/svg">
<g transform="translate(18.3338 3.166) scale(-1 1)">
<path d="M3.27233 1.0479C3.64682 0.742431 4.19927 0.763931 4.54837 1.113L7.46829 4.03292C7.84065 4.40528 7.84065 5.00985 7.46829 5.38221C7.09601 5.75418 6.49211 5.75418 6.11982 5.38221L4.8275 4.08989V8.93608C4.82756 9.44293 5.05223 9.92432 5.4403 10.2504L7.40726 11.9032C7.81031 12.2419 7.86306 12.8436 7.52444 13.2468C7.18573 13.6498 6.584 13.7017 6.18086 13.3632L4.21308 11.7103C3.39377 11.022 2.92082 10.0062 2.92076 8.93608V4.08989L1.62845 5.38221C1.25608 5.75438 0.651455 5.7545 0.279162 5.38221C-0.0931089 5.00991 -0.0929987 4.40529 0.279162 4.03292L3.19908 1.113L3.27233 1.0479Z" fill="white"/>
<path d="M9.14391 0.339891C9.48269 -0.0630878 10.0844 -0.115169 10.4875 0.223517L12.4545 1.87635C13.2738 2.56475 13.7467 3.58046 13.7468 4.6506V9.49679L15.0391 8.20447C15.4114 7.83216 16.016 7.83217 16.3884 8.20447C16.7607 8.57682 16.7607 9.1814 16.3884 9.55376L13.4685 12.4737L13.396 12.5388C13.0215 12.8443 12.4683 12.8228 12.1192 12.4737L9.19925 9.55376C8.82689 9.1814 8.82689 8.57683 9.19925 8.20447C9.57161 7.83224 10.1762 7.83216 10.5485 8.20447L11.8408 9.49679V4.6506C11.8408 4.14373 11.6161 3.66238 11.2281 3.33631L9.26028 1.68348C8.85719 1.34472 8.80519 0.743035 9.14391 0.339891Z" fill="white"/>
</g>
</svg>
