<svg width="24" height="24" viewBox="0 0 24 24" fill="none" xmlns="http://www.w3.org/2000/svg">
<path d="M6.13755 12.0379C6.13755 12.2965 6.15322 12.5491 6.18455 12.7956C6.21588 13.0419 6.26922 13.2861 6.34455 13.5281C6.43588 13.8473 6.42955 14.1549 6.32555 14.4511C6.22155 14.7474 6.02863 14.9679 5.7468 15.1124C5.4523 15.2695 5.15688 15.291 4.86055 15.1769C4.56438 15.0625 4.36672 14.8497 4.26755 14.5384C4.12622 14.1352 4.02338 13.7236 3.95905 13.3036C3.89472 12.8838 3.86255 12.4619 3.86255 12.0379C3.86255 9.78069 4.64755 7.85377 6.21755 6.2571C7.78738 4.6606 9.69496 3.86235 11.9403 3.86235H12.1213L11.3408 3.08185C11.1455 2.88669 11.0488 2.64344 11.0508 2.3521C11.0528 2.06077 11.1515 1.81744 11.3468 1.6221C11.5421 1.42677 11.7855 1.3291 12.0768 1.3291C12.368 1.3291 12.6112 1.42677 12.8065 1.6221L15.3825 4.1981C15.6105 4.4261 15.7245 4.69335 15.7245 4.99985C15.7245 5.30635 15.6105 5.5736 15.3825 5.8016L12.8065 8.3776C12.6112 8.57294 12.368 8.6706 12.0768 8.6706C11.7855 8.6706 11.5421 8.57294 11.3468 8.3776C11.1515 8.18227 11.0538 7.93793 11.0538 7.6446C11.0538 7.35143 11.1515 7.10718 11.3468 6.91185L12.1213 6.13735H11.9583C10.3433 6.13735 8.96947 6.71094 7.8368 7.8581C6.70397 9.0051 6.13755 10.3984 6.13755 12.0379ZM17.8625 11.9619C17.8625 11.7032 17.8469 11.4506 17.8155 11.2041C17.7842 10.9578 17.7309 10.7136 17.6555 10.4716C17.5642 10.1524 17.5705 9.84477 17.6745 9.5486C17.7785 9.25227 17.9715 9.03185 18.2533 8.88735C18.5478 8.73019 18.8422 8.70768 19.1365 8.81985C19.4307 8.93219 19.6275 9.14202 19.7268 9.44935C19.872 9.85652 19.9767 10.2701 20.041 10.6901C20.1054 11.1099 20.1375 11.5339 20.1375 11.9619C20.1375 14.219 19.3525 16.1469 17.7825 17.7456C16.2127 19.3441 14.3051 20.1434 12.0598 20.1434H11.8788L12.6533 20.9179C12.8486 21.113 12.9463 21.3563 12.9463 21.6476C12.9463 21.9389 12.8486 22.1823 12.6533 22.3776C12.458 22.5729 12.2137 22.6706 11.9205 22.6706C11.6272 22.6706 11.3829 22.5729 11.1875 22.3776L8.61155 19.8016C8.38355 19.5736 8.27055 19.3074 8.27255 19.0029C8.27455 18.6984 8.38755 18.4321 8.61155 18.2041L11.1935 15.6281C11.3889 15.4328 11.6331 15.3341 11.9263 15.3321C12.2196 15.3301 12.464 15.4268 12.6593 15.6221C12.8546 15.8174 12.9523 16.0618 12.9523 16.3551C12.9523 16.6483 12.8546 16.8925 12.6593 17.0879L11.8788 17.8684H12.0418C13.6568 17.8684 15.0306 17.2938 16.1633 16.1446C17.2961 14.9956 17.8625 13.6014 17.8625 11.9619Z" fill="#E1E1E1"/>
</svg>
