<svg width="24" height="24" viewBox="0 0 24 24" fill="none" xmlns="http://www.w3.org/2000/svg">
<path d="M12 3C9.61305 3 7.32387 3.94821 5.63604 5.63604C3.94821 7.32387 3 9.61305 3 12C3 14.3869 3.94821 16.6761 5.63604 18.364C7.32387 20.0518 9.61305 21 12 21C14.3869 21 16.6761 20.0518 18.364 18.364C20.0518 16.6761 21 14.3869 21 12C21 9.61305 20.0518 7.32387 18.364 5.63604C16.6761 3.94821 14.3869 3 12 3ZM5.25 12C5.25 10.2098 5.96116 8.4929 7.22703 7.22703C8.2258 6.22825 9.50535 5.5748 10.8801 5.34351C11.4929 5.24043 12 5.75368 12 6.375V17.625C12 18.2463 11.4929 18.7596 10.8801 18.6565C9.50535 18.4252 8.2258 17.7717 7.22703 16.773C5.96116 15.5071 5.25 13.7902 5.25 12Z" fill="#E1E1E1"/>
</svg>
