<svg width="24" height="24" viewBox="0 0 24 24" fill="none" xmlns="http://www.w3.org/2000/svg">
<path d="M18.125 21H19V19.2H18.125V18.3C18.1237 17.2066 17.8461 16.1323 17.3195 15.1825C16.7929 14.2327 16.0353 13.4399 15.1211 12.882C14.8105 12.693 14.625 12.3897 14.625 12.0711V11.9289C14.625 11.6103 14.8105 11.307 15.1202 11.1189C16.0342 10.5603 16.7915 9.76734 17.3182 8.8175C17.8449 7.86765 18.1229 6.79347 18.125 5.7V4.8H19V3H5V4.8H5.875V5.7C5.87712 6.79347 6.15511 7.86765 6.6818 8.8175C7.20848 9.76734 7.96582 10.5603 8.87975 11.1189C9.1895 11.307 9.375 11.6094 9.375 11.9289V12.0711C9.375 12.3897 9.1895 12.693 8.87975 12.8811C7.96582 13.4397 7.20848 14.2327 6.6818 15.1825C6.15511 16.1323 5.87712 17.2065 5.875 18.3V19.2H5V21H18.125ZM16.375 4.8V5.7C16.374 6.67408 16.0657 7.62152 15.4965 8.4H8.5035C7.93428 7.62152 7.62601 6.67408 7.625 5.7V4.8H16.375ZM9.76875 14.4318C10.6184 13.9152 11.125 13.0332 11.125 12.0711V12H12.875V12.0711C12.875 13.0323 13.3816 13.9152 14.2321 14.4318C15.0183 14.9131 15.6373 15.6367 16.0014 16.5H7.99863C8.36289 15.6365 8.98221 14.9129 9.76875 14.4318Z" fill="#E1E1E1"/>
</svg>
