<svg width="24" height="24" viewBox="0 0 24 24" fill="none" xmlns="http://www.w3.org/2000/svg">
<path d="M19.1875 2.75C19.6446 2.75 19.9998 3.13156 20 3.58301V4.2168C19.9999 4.66833 19.6447 5.0498 19.1875 5.0498H18.6563V5.7002L18.6426 6.125C18.5807 7.11121 18.3101 8.07246 17.8486 8.93555C17.3211 9.92208 16.5615 10.7477 15.6426 11.3301C15.4074 11.4783 15.2813 11.7066 15.2813 11.9287V12.0713C15.2813 12.2933 15.4071 12.5217 15.6436 12.6709C16.5627 13.2526 17.3222 14.078 17.8496 15.0645C18.3771 16.051 18.6549 17.166 18.6563 18.2998V18.9502H19.1875C19.6447 18.9502 19.9999 19.3317 20 19.7832V20.417C19.9998 20.8684 19.6446 21.25 19.1875 21.25H5.8125C5.35539 21.25 5.00017 20.8684 5 20.417V19.7832C5.00007 19.3317 5.35532 18.9502 5.8125 18.9502H6.34376V18.2998L6.35743 17.875C6.41931 16.8888 6.6899 15.9275 7.15138 15.0645C7.67891 14.0779 8.43855 13.2523 9.35743 12.6699C9.59265 12.5217 9.71869 12.2934 9.71876 12.0713V11.9287C9.71869 11.7059 9.59375 11.4783 9.35841 11.3301C8.43953 10.7477 7.67891 9.92208 7.15138 8.93555C6.62389 7.94901 6.34588 6.83398 6.34376 5.7002V5.0498H5.8125C5.35532 5.0498 5.00007 4.66833 5 4.2168V3.58301C5.00017 3.13156 5.35539 2.75 5.8125 2.75H19.1875ZM11.9014 12.25C11.8445 13.2283 11.3218 14.1137 10.4815 14.6436C9.87199 15.0304 9.37323 15.5862 9.03322 16.25H15.9678C15.628 15.5862 15.1288 15.0306 14.5195 14.6436L14.3565 14.5332C13.611 13.9955 13.1518 13.1629 13.0986 12.25H11.9014ZM8.53126 5.7002L8.54493 6.04492C8.60338 6.80287 8.85346 7.529 9.26466 8.15039H15.7354C16.2086 7.43528 16.4678 6.58087 16.4688 5.7002V5.0498H8.53126V5.7002Z" fill="#E1E1E1"/>
</svg>
