<svg width="24" height="24" viewBox="0 0 24 24" fill="none" xmlns="http://www.w3.org/2000/svg">
<path d="M13.276 20.5879C13.9094 20.4949 14.498 20.9326 14.5914 21.566C14.6846 22.1997 14.247 22.7893 13.6134 22.8825C13.0862 22.9601 12.5474 23 12 23C11.4526 23 10.9138 22.9601 10.3866 22.8825C9.75301 22.7893 9.31536 22.1997 9.40856 21.566C9.50196 20.9326 10.0906 20.4949 10.724 20.5879C11.1398 20.6491 11.566 20.6808 12 20.6808C12.434 20.6808 12.8602 20.6491 13.276 20.5879Z" fill="#E1E1E1"/>
<path d="M3.40351 16.9309C3.91757 16.549 4.64448 16.6562 5.0265 17.1701C5.53578 17.8556 6.14436 18.4642 6.82994 18.9735C7.34381 19.3555 7.45098 20.0824 7.06911 20.5965C6.68714 21.1105 5.96026 21.2176 5.44613 20.8357C4.57838 20.1911 3.80894 19.4216 3.16434 18.5539C2.78244 18.0397 2.88945 17.3129 3.40351 16.9309Z" fill="#E1E1E1"/>
<path d="M18.9735 17.1701C19.3555 16.6562 20.0824 16.549 20.5965 16.9309C21.1105 17.3129 21.2176 18.0397 20.8357 18.5539C20.1911 19.4216 19.4216 20.1911 18.5539 20.8357C18.0397 21.2176 17.3129 21.1105 16.9309 20.5965C16.549 20.0824 16.6562 19.3555 17.1701 18.9735C17.8556 18.4642 18.4642 17.8556 18.9735 17.1701Z" fill="#E1E1E1"/>
<path d="M12.252 5.92021C12.8925 5.92022 13.4116 6.43928 13.4116 7.07979V7.82188H15.2801C15.758 7.82189 16.187 8.11456 16.3607 8.5597C16.5343 9.00473 16.4174 9.511 16.066 9.8346L11.6925 13.859H15.2801C15.9206 13.859 16.4396 14.3781 16.4397 15.0185C16.4397 15.6591 15.9207 16.1781 15.2801 16.1781H13.4116V16.9202C13.4116 17.5607 12.8925 18.0798 12.252 18.0798C11.6116 18.0796 11.0924 17.5606 11.0924 16.9202V16.1781H8.71986C8.24203 16.1781 7.81298 15.8854 7.63929 15.4403C7.46568 14.9953 7.58263 14.489 7.93399 14.1654L12.3075 10.141H8.71986C8.07939 10.141 7.56036 9.62192 7.56028 8.98146C7.56028 8.34094 8.07934 7.82188 8.71986 7.82188H11.0924V7.07979C11.0924 6.43938 11.6116 5.92039 12.252 5.92021Z" fill="#E1E1E1"/>
<path d="M2.43399 9.40856C3.06737 9.50196 3.50508 10.0906 3.41206 10.724C3.3509 11.1398 3.31916 11.566 3.31916 12C3.31916 12.434 3.3509 12.8602 3.41206 13.276C3.50508 13.9094 3.06737 14.498 2.43399 14.5914C1.80035 14.6846 1.21075 14.247 1.11745 13.6134C1.03991 13.0862 1 12.5474 1 12C1 11.4526 1.03991 10.9138 1.11745 10.3866C1.21075 9.75301 1.80035 9.31536 2.43399 9.40856Z" fill="#E1E1E1"/>
<path d="M21.566 9.40856C22.1997 9.31536 22.7893 9.75301 22.8825 10.3866C22.9601 10.9138 23 11.4526 23 12C23 12.5474 22.9601 13.0862 22.8825 13.6134C22.7893 14.247 22.1997 14.6846 21.566 14.5914C20.9326 14.498 20.4949 13.9094 20.5879 13.276C20.6491 12.8602 20.6808 12.434 20.6808 12C20.6808 11.566 20.6491 11.1398 20.5879 10.724C20.4949 10.0906 20.9326 9.50196 21.566 9.40856Z" fill="#E1E1E1"/>
<path d="M5.44613 3.16434C5.96026 2.78244 6.68714 2.88945 7.06911 3.40351C7.45098 3.91757 7.34381 4.64448 6.82994 5.0265C6.14436 5.53578 5.53578 6.14436 5.0265 6.82994C4.64448 7.34381 3.91757 7.45098 3.40351 7.06911C2.88945 6.68714 2.78244 5.96026 3.16434 5.44613C3.80894 4.57838 4.57838 3.80894 5.44613 3.16434Z" fill="#E1E1E1"/>
<path d="M16.9309 3.40351C17.3129 2.88945 18.0397 2.78244 18.5539 3.16434C19.4216 3.80894 20.1911 4.57838 20.8357 5.44613C21.2176 5.96026 21.1105 6.68714 20.5965 7.06911C20.0824 7.45098 19.3555 7.34381 18.9735 6.82994C18.4642 6.14436 17.8556 5.53578 17.1701 5.0265C16.6562 4.64448 16.549 3.91757 16.9309 3.40351Z" fill="#E1E1E1"/>
<path d="M12 1C12.5474 1 13.0862 1.03991 13.6134 1.11745C14.247 1.21075 14.6846 1.80035 14.5914 2.43399C14.498 3.06737 13.9094 3.50508 13.276 3.41206C12.8602 3.3509 12.434 3.31916 12 3.31916C11.566 3.31916 11.1398 3.3509 10.724 3.41206C10.0906 3.50508 9.50196 3.06737 9.40856 2.43399C9.31536 1.80035 9.75301 1.21075 10.3866 1.11745C10.9138 1.03991 11.4526 1 12 1Z" fill="#E1E1E1"/>
</svg>
