<svg width="24" height="24" viewBox="0 0 24 24" fill="none" xmlns="http://www.w3.org/2000/svg">
<g transform="scale(1.63636)">
<path d="M8.18398 13.0586C8.60628 12.9966 8.99869 13.2884 9.06096 13.7107C9.1231 14.1331 8.83133 14.5262 8.40892 14.5884C8.05749 14.6401 7.69824 14.6667 7.33333 14.6667C6.96843 14.6667 6.60917 14.6401 6.25775 14.5884C5.83534 14.5262 5.54357 14.1331 5.60571 13.7107C5.66798 13.2884 6.06039 12.9966 6.48269 13.0586C6.75984 13.0994 7.04398 13.1206 7.33333 13.1206C7.62268 13.1206 7.90683 13.0994 8.18398 13.0586Z" fill="#141818"/>
<path d="M1.60234 10.6206C1.94505 10.366 2.42965 10.4375 2.68433 10.78C3.02385 11.2371 3.42957 11.6428 3.88662 11.9823C4.22921 12.237 4.30065 12.7216 4.04608 13.0643C3.79143 13.407 3.30684 13.4784 2.96408 13.2238C2.38559 12.794 1.87263 12.2811 1.44289 11.7026C1.18829 11.3598 1.25964 10.8752 1.60234 10.6206Z" fill="#141818"/>
<path d="M11.9823 10.78C12.237 10.4375 12.7216 10.366 13.0643 10.6206C13.407 10.8752 13.4784 11.3598 13.2238 11.7026C12.794 12.2811 12.2811 12.794 11.7026 13.2238C11.3598 13.4784 10.8752 13.407 10.6206 13.0643C10.366 12.7216 10.4375 12.237 10.78 11.9823C11.2371 11.6428 11.6428 11.2371 11.9823 10.78Z" fill="#141818"/>
<path d="M7.50133 3.28014C7.92834 3.28014 8.27438 3.62618 8.27438 4.05319V4.54792H9.52009C9.83864 4.54792 10.1247 4.74304 10.2405 5.0398C10.3562 5.33649 10.2782 5.674 10.044 5.88973L7.12832 8.57264H9.52009C9.94707 8.57264 10.2931 8.91873 10.2931 9.34569C10.2931 9.7727 9.9471 10.1187 9.52009 10.1187H8.27438V10.6135C8.27438 11.0405 7.92834 11.3865 7.50133 11.3865C7.07441 11.3864 6.72827 11.0404 6.72827 10.6135V10.1187H5.14657C4.82802 10.1187 4.54199 9.92363 4.4262 9.62687C4.31045 9.33018 4.38842 8.99267 4.62266 8.77694L7.53834 6.09403H5.14657C4.71959 6.09403 4.37357 5.74794 4.37352 5.32097C4.37352 4.89396 4.71956 4.54792 5.14657 4.54792H6.72827V4.05319C6.72827 3.62625 7.07441 3.28026 7.50133 3.28014Z" fill="#141818"/>
<path d="M0.955996 5.60571C1.37825 5.66798 1.67005 6.06039 1.60804 6.48269C1.56727 6.75984 1.54611 7.04398 1.54611 7.33333C1.54611 7.62268 1.56727 7.90683 1.60804 8.18398C1.67005 8.60628 1.37825 8.99869 0.955996 9.06096C0.533565 9.1231 0.140497 8.83133 0.078302 8.40892C0.0266088 8.05749 0 7.69824 0 7.33333C0 6.96843 0.0266087 6.60917 0.078302 6.25775C0.140497 5.83534 0.533565 5.54357 0.955996 5.60571Z" fill="#141818"/>
<path d="M13.7107 5.60571C14.1331 5.54357 14.5262 5.83534 14.5884 6.25775C14.6401 6.60917 14.6667 6.96843 14.6667 7.33333C14.6667 7.69824 14.6401 8.05749 14.5884 8.40892C14.5262 8.83133 14.1331 9.1231 13.7107 9.06096C13.2884 8.99869 12.9966 8.60628 13.0586 8.18398C13.0994 7.90683 13.1206 7.62268 13.1206 7.33333C13.1206 7.04398 13.0994 6.75984 13.0586 6.48269C12.9966 6.06039 13.2884 5.66798 13.7107 5.60571Z" fill="#141818"/>
<path d="M2.96408 1.44289C3.30684 1.18829 3.79143 1.25964 4.04608 1.60234C4.30065 1.94505 4.22921 2.42965 3.88662 2.68433C3.42957 3.02385 3.02385 3.42957 2.68433 3.88662C2.42965 4.22921 1.94505 4.30065 1.60234 4.04608C1.25964 3.79143 1.18829 3.30684 1.44289 2.96408C1.87263 2.38559 2.38559 1.87263 2.96408 1.44289Z" fill="#141818"/>
<path d="M10.6206 1.60234C10.8752 1.25964 11.3598 1.18829 11.7026 1.44289C12.2811 1.87263 12.794 2.38559 13.2238 2.96408C13.4784 3.30684 13.407 3.79143 13.0643 4.04608C12.7216 4.30065 12.237 4.22921 11.9823 3.88662C11.6428 3.42957 11.2371 3.02385 10.78 2.68433C10.4375 2.42965 10.366 1.94505 10.6206 1.60234Z" fill="#141818"/>
<path d="M7.33333 0C7.69824 0 8.05749 0.0266087 8.40892 0.078302C8.83133 0.140497 9.1231 0.533565 9.06096 0.955996C8.99869 1.37825 8.60628 1.67005 8.18398 1.60804C7.90683 1.56727 7.62268 1.54611 7.33333 1.54611C7.04398 1.54611 6.75984 1.56727 6.48269 1.60804C6.06039 1.67005 5.66798 1.37825 5.60571 0.955996C5.54357 0.533565 5.83534 0.140498 6.25775 0.078302C6.60917 0.0266088 6.96843 0 7.33333 0Z" fill="#141818"/>
</g>
</svg>
