<svg width="24" height="24" viewBox="0 0 24 24" fill="none" xmlns="http://www.w3.org/2000/svg">
<path d="M12 1.59961C14.6464 1.59961 16.7754 3.8057 16.7754 6.5V7C16.7754 7.49706 16.3721 7.90039 15.875 7.90039H15.125C14.6279 7.90039 14.2246 7.49706 14.2246 7V6.5C14.2246 5.22504 13.2121 4.2002 12 4.2002C10.7879 4.2002 9.77539 5.22504 9.77539 6.5V9.7998H17.5C18.6938 9.7998 19.6504 10.7996 19.6504 12V19.2002L19.6387 19.4229C19.5291 20.5216 18.6191 21.4004 17.5 21.4004H6.5C5.38094 21.4004 4.47091 20.5216 4.36133 19.4229L4.34961 19.2002V12C4.34961 10.7996 5.3062 9.7998 6.5 9.7998H7.22461V6.5C7.22461 3.8057 9.35362 1.59961 12 1.59961ZM11.999 12.9004C11.4897 12.9006 11.0515 13.079 10.6914 13.4346C10.3312 13.7904 10.1505 14.2243 10.1504 14.7285L10.1543 14.8555C10.1733 15.1479 10.2578 15.4204 10.4092 15.6709L10.4775 15.7754C10.6294 15.9918 10.8234 16.1662 11.0566 16.2988L10.6738 18.3994C10.6398 18.5736 10.6864 18.7351 10.8047 18.875C10.9236 19.0151 11.0767 19.0886 11.2559 19.0889H12.7432C12.9227 19.0888 13.0753 19.0152 13.1943 18.875C13.3126 18.7353 13.3594 18.5742 13.3252 18.3994L12.9424 16.2988C13.2124 16.1455 13.4302 15.9362 13.5908 15.6709L13.6514 15.5625C13.765 15.3424 13.8294 15.1062 13.8457 14.8555L13.8496 14.7285C13.8495 14.224 13.668 13.7904 13.3076 13.4346C12.9923 13.1231 12.6169 12.9472 12.1865 12.9082L11.999 12.9004Z" fill="#858686"/>
</svg>
