<svg width="24" height="24" viewBox="0 0 24 24" fill="none" xmlns="http://www.w3.org/2000/svg">
<path d="M16 17V18C16 18.5523 15.5523 19 15 19H3C2.44772 19 2 18.5523 2 18V17C2 17 2 13 9 13C16 13 16 17 16 17ZM12.5 7.50003C12.5 6.8078 12.2947 6.13111 11.9101 5.55554C11.5256 4.97997 10.9789 4.53136 10.3394 4.26646C9.69985 4.00155 8.99612 3.93224 8.31718 4.06729C7.63825 4.20234 7.01461 4.53568 6.52513 5.02516C6.03564 5.51464 5.7023 6.13828 5.56725 6.81721C5.4322 7.49615 5.50152 8.19988 5.76642 8.83942C6.03133 9.47896 6.47993 10.0256 7.0555 10.4102C7.63108 10.7947 8.30777 11 9 11C9.92826 11 10.8185 10.6313 11.4749 9.9749C12.1313 9.31852 12.5 8.42828 12.5 7.50003ZM15.94 13C16.5547 13.4758 17.0578 14.0804 17.4137 14.7715C17.7696 15.4626 17.9697 16.2233 18 17V18C18 18.5523 18.4477 19 19 19H21C21.5523 19 22 18.5523 22 18V17C22 17 22 13.37 15.94 13ZM15 4.00004C14.3118 3.99684 13.6388 4.20257 13.07 4.59004C13.6774 5.43877 14.0041 6.45632 14.0041 7.50003C14.0041 8.54374 13.6774 9.56129 13.07 10.41C13.6388 10.7975 14.3118 11.0032 15 11C15.9283 11 16.8185 10.6313 17.4749 9.9749C18.1313 9.31852 18.5 8.42828 18.5 7.50003C18.5 6.57177 18.1313 5.68154 17.4749 5.02516C16.8185 4.36879 15.9283 4.00004 15 4.00004Z" fill="#E1E1E1"/>
</svg>
