<svg width="24" height="24" overflow="visible" viewBox="0 0 13.7365 16.4912" fill="none" xmlns="http://www.w3.org/2000/svg">
<g id="svg">
<path id="icon" d="M6.3133 0.0415055C6.84272 -0.117143 7.20955 0.204748 7.20955 0.571027V0.971819C7.20955 1.27582 7.32915 1.54024 7.8011 1.36006C11.4217 -0.0222227 15.3887 3.59281 13.0212 7.9332L12.3096 9.28859C11.8239 10.2328 11.704 10.9919 12.5168 11.6968L12.8515 12.0338C13.1926 12.5281 12.9738 12.936 12.5168 13.0538C11.2717 13.3746 8.27224 13.8229 4.72026 16.3792C4.2063 16.7491 3.71881 16.1282 3.95005 15.609C4.39051 14.62 4.85783 13.9995 5.00423 13.508C5.0534 13.3422 4.93101 13.1726 4.75677 13.1726H3.49088C3.31137 13.1726 3.15394 13.1718 3.0095 13.1282C2.87007 13.0861 2.73897 13.0026 2.61838 12.8281C1.72808 11.0737 0.77519 9.225 0.0542115 7.76847C-0.104449 7.44795 0.0989953 7.14403 0.484096 7.14403H4.16407C4.50219 7.14403 4.73948 6.88856 4.79287 6.63406C4.8198 6.5054 4.8014 6.36793 4.71615 6.26175C4.64086 6.1682 4.52209 6.10958 4.36414 6.09627L4.29344 6.09326L2.02453 6.09853C1.57022 6.09853 0.994853 5.85948 1.25432 5.21111C2.28948 2.62436 3.62356 0.848426 6.3133 0.0415055ZM3.55197 10.2957C3.21851 10.2958 2.95065 10.5711 2.95065 10.9073C2.95073 11.2435 3.21856 11.5182 3.55197 11.5183C3.88544 11.5183 4.15395 11.2436 4.15403 10.9073C4.15403 10.571 3.88549 10.2957 3.55197 10.2957ZM2.65073 9.16876C2.3173 9.16889 2.04941 9.44421 2.0494 9.78045C2.04941 10.1167 2.3173 10.392 2.65073 10.3921C2.98422 10.3921 3.25278 10.1168 3.25279 9.78045C3.25278 9.44414 2.98422 9.1688 2.65073 9.16876ZM4.52893 9.16876C4.19544 9.16882 3.92761 9.44417 3.92761 9.78045C3.92762 10.1167 4.19544 10.3921 4.52893 10.3921C4.86247 10.3921 5.13024 10.1168 5.13025 9.78045C5.13025 9.44413 4.86247 9.16876 4.52893 9.16876ZM3.55197 7.90684C3.21851 7.90694 2.95065 8.18226 2.95065 8.51853C2.95078 8.85468 3.21859 9.12939 3.55197 9.12948C3.88541 9.12946 4.15389 8.85473 4.15403 8.51853C4.15403 8.18221 3.88549 7.90686 3.55197 7.90684Z" fill="#E1E1E1"/>
</g>
</svg>
