<svg width="128" height="37" viewBox="0 0 128 37" fill="none" xmlns="http://www.w3.org/2000/svg">
<path fill-rule="evenodd" clip-rule="evenodd" d="M16.5181 0.0124886C16.7775 -0.0529687 17.0252 0.14733 17.0253 0.415938V1.1114C17.0253 1.2609 17.171 1.33128 17.3183 1.30951C26.0968 0.0125277 32.739 6.45705 29.2082 15.5179L27.8601 18.776C26.5522 22.0137 26.9343 24.0266 28.9853 25.777L29.7638 26.5493C30.1246 26.9074 29.9455 27.5393 29.4538 27.6642C26.5601 28.3993 18.4545 30.5398 10.7713 36.6366C10.2797 36.9853 9.61017 36.5258 9.77761 35.9453C10.4112 33.7491 11.2014 31.1228 11.5384 30.0075C11.6204 29.7364 11.4176 29.4638 11.1355 29.4638H8.53115C7.70617 29.4638 6.9576 29.4636 6.34933 28.5913C4.27546 24.5628 1.75131 19.1828 0.0700668 15.8347C-0.118391 15.4594 0.0699724 14.8612 0.675757 14.8612H10.099C11.1353 14.8612 11.6886 13.1894 10.8466 13.2175L4.05967 13.2293C3.58881 13.245 3.41096 12.867 3.58193 12.4456C5.35005 8.09023 9.52381 1.77897 16.5181 0.0124886ZM7.24342 20.6261C6.6911 20.6261 6.24312 21.0759 6.24305 21.6306C6.24305 22.1853 6.69105 22.6351 7.24342 22.6351C7.79568 22.6349 8.24327 22.1852 8.24327 21.6306C8.24319 21.076 7.79563 20.6262 7.24342 20.6261ZM5.52901 18.7894C4.97674 18.7894 4.52878 19.2388 4.52865 19.7934C4.52866 20.3481 4.97666 20.7979 5.52901 20.7979C6.08122 20.7977 6.52885 20.3479 6.52887 19.7934C6.52873 19.2389 6.08114 18.7896 5.52901 18.7894ZM8.95782 18.7894C8.40554 18.7894 7.95759 19.2388 7.95745 19.7934C7.95746 20.3481 8.40547 20.7979 8.95782 20.7979C9.51013 20.7978 9.95766 20.348 9.95767 19.7934C9.95753 19.2388 9.51005 18.7894 8.95782 18.7894ZM7.24342 16.9749C6.69105 16.9749 6.24305 17.4247 6.24305 17.9794C6.24308 18.5341 6.69107 18.9839 7.24342 18.9839C7.79566 18.9838 8.24324 18.534 8.24327 17.9794C8.24327 17.4248 7.79568 16.975 7.24342 16.9749Z" fill="white"/>
<path d="M45.4731 6.64825L52.3183 23.9192L52.8301 25.7682L59.4788 7.63159L56.1346 4.24819H64.3573L61.6033 7.74974L52.2007 31.9846H50.3119L39.9254 6.56931L37.8798 4.24819H48.6202L45.4731 6.64825Z" fill="white"/>
<path fill-rule="evenodd" clip-rule="evenodd" d="M103.564 11.4479C104.954 11.4479 106.173 11.7101 107.222 12.2346C108.298 12.7592 109.19 13.4544 109.898 14.32C110.632 15.1592 111.183 16.1428 111.55 17.2705C111.917 18.3721 112.101 19.5129 112.101 20.6931C112.101 21.952 111.878 23.2373 111.432 24.5486C111.013 25.8599 110.357 27.0403 109.465 28.0894C108.6 29.1385 107.485 30.0041 106.121 30.686C104.783 31.3417 103.197 31.6698 101.361 31.6698C99.9706 31.6698 98.7378 31.4076 97.6625 30.8831C96.6134 30.3585 95.7213 29.6762 94.9869 28.8369C94.2788 27.9714 93.7413 26.9879 93.3742 25.8864C93.007 24.7586 92.8232 23.6043 92.8232 22.424C92.8232 21.1652 93.033 19.8799 93.4526 18.5686C93.8985 17.2572 94.5673 16.0769 95.459 15.0278C96.3507 13.9787 97.4656 13.1266 98.8032 12.4709C100.141 11.789 101.728 11.4479 103.564 11.4479ZM101.439 12.943C100.626 12.943 99.9706 13.1394 99.4723 13.5327C99.0002 13.9261 98.6326 14.4246 98.3703 15.0278C98.1343 15.6048 97.977 16.2347 97.8983 16.9166C97.8458 17.5984 97.8198 18.2409 97.8198 18.8441C97.8198 20.3653 97.9507 21.8212 98.213 23.2113C98.5015 24.5751 98.8821 25.7814 99.3542 26.8305C99.8525 27.8534 100.456 28.6665 101.164 29.2698C101.872 29.873 102.659 30.1747 103.524 30.1747C104.259 30.1747 104.862 29.9649 105.334 29.5453C105.806 29.1256 106.173 28.6142 106.436 28.0109C106.724 27.3815 106.921 26.7257 107.026 26.0437C107.131 25.3619 107.183 24.7719 107.183 24.2736C107.183 22.7262 107.039 21.2702 106.75 19.9064C106.488 18.5426 106.108 17.3492 105.61 16.3264C105.111 15.2774 104.508 14.4511 103.8 13.8479C103.092 13.2447 102.305 12.943 101.439 12.943Z" fill="white"/>
<path d="M70.0278 27.8144L72.9391 31.1978H62.3952L65.3066 27.8144V17.1916L62.6315 14.1626L70.0278 11.5263V27.8144Z" fill="white"/>
<path d="M78.2727 11.9199H91.4916L79.6497 29.7811H86.7704L91.3734 22.975L91.6097 23.0535L90.9406 30.6076V31.1978H73.276L85.1179 13.3361H79.0202L75.1251 19.2372H74.8893V11.2116L78.2727 11.9199Z" fill="white"/>
<path d="M127.748 18.8833H127.434C127.014 17.8605 126.555 16.9948 126.057 16.2867C125.558 15.5786 125.047 15.0146 124.522 14.595C124.024 14.1492 123.512 13.8344 122.988 13.6508C122.49 13.4673 122.018 13.3753 121.572 13.3753C120.89 13.3753 120.365 13.5067 119.998 13.769C119.631 14.005 119.355 14.3721 119.172 14.8705C119.014 15.3687 118.923 15.9982 118.897 16.7587C118.87 17.4931 118.857 18.3588 118.857 19.3554V27.8144L122.516 31.1978H111.225L114.136 27.8144V14.9494L111.461 11.9199H127.748V18.8833Z" fill="white"/>
<path d="M70.8935 6.05804L67.5493 9.71694L64.1659 6.05804L67.5493 2.43834L70.8935 6.05804Z" fill="white"/>
</svg>
