<svg width="24" height="24" viewBox="0 0 24 24" fill="none" xmlns="http://www.w3.org/2000/svg">
<path d="M6.6 19.1998C5.61 19.1998 4.7625 18.8473 4.0575 18.1423C3.3525 17.4373 3 16.5898 3 15.5998V8.3998C3 7.4098 3.3525 6.5623 4.0575 5.8573C4.7625 5.1523 5.61 4.7998 6.6 4.7998H17.4C18.39 4.7998 19.2375 5.1523 19.9425 5.8573C20.6475 6.5623 21 7.4098 21 8.3998V15.5998C21 16.5898 20.6475 17.4373 19.9425 18.1423C19.2375 18.8473 18.39 19.1998 17.4 19.1998H6.6ZM6.6 8.3998H17.4C17.73 8.3998 18.045 8.4373 18.345 8.5123C18.645 8.5873 18.93 8.7073 19.2 8.8723V8.3998C19.2 7.9048 19.0239 7.4812 18.6717 7.129C18.3195 6.7768 17.8956 6.6004 17.4 6.5998H6.6C6.105 6.5998 5.6814 6.7762 5.3292 7.129C4.977 7.4818 4.8006 7.9054 4.8 8.3998V8.8723C5.07 8.7073 5.355 8.5873 5.655 8.5123C5.955 8.4373 6.27 8.3998 6.6 8.3998ZM4.935 11.3248L14.9475 13.7548C15.0825 13.7848 15.2175 13.7848 15.3525 13.7548C15.4875 13.7248 15.615 13.6648 15.735 13.5748L18.8625 10.9648C18.6975 10.7398 18.4875 10.5562 18.2325 10.414C17.9775 10.2718 17.7 10.2004 17.4 10.1998H6.6C6.21 10.1998 5.8689 10.3012 5.5767 10.504C5.2845 10.7068 5.0706 10.9804 4.935 11.3248Z" fill="#E1E1E1"/>
</svg>
