<svg width="24" height="24" viewBox="0 0 24 24" fill="none" xmlns="http://www.w3.org/2000/svg">
<path d="M11.1551 21.8338C10.8874 21.723 10.6427 21.566 10.4211 21.3629L2.63712 13.5789C2.43398 13.3573 2.27701 13.1127 2.1662 12.8449C2.0554 12.5771 2 12.2955 2 12C2 11.7045 2.0554 11.4183 2.1662 11.1413C2.27701 10.8643 2.43398 10.6242 2.63712 10.4211L10.4211 2.63712C10.6427 2.41551 10.8874 2.25392 11.1551 2.15235C11.4229 2.05078 11.7045 2 12 2C12.2955 2 12.5817 2.05078 12.8587 2.15235C13.1357 2.25392 13.3758 2.41551 13.5789 2.63712L21.3629 10.4211C21.5845 10.6242 21.7461 10.8643 21.8476 11.1413C21.9492 11.4183 22 11.7045 22 12C22 12.2955 21.9492 12.5771 21.8476 12.8449C21.7461 13.1127 21.5845 13.3573 21.3629 13.5789L13.5789 21.3629C13.3758 21.566 13.1357 21.723 12.8587 21.8338C12.5817 21.9446 12.2955 22 12 22C11.7045 22 11.4229 21.9446 11.1551 21.8338ZM12.7895 12.7895C13.0018 12.5771 13.108 12.3139 13.108 12V7.56787C13.108 7.25392 13.0018 6.99077 12.7895 6.77839C12.5771 6.56602 12.3139 6.45983 12 6.45983C11.6861 6.45983 11.4229 6.56602 11.2105 6.77839C10.9982 6.99077 10.892 7.25392 10.892 7.56787V12C10.892 12.3139 10.9982 12.5771 11.2105 12.7895C11.4229 13.0018 11.6861 13.108 12 13.108C12.3139 13.108 12.5771 13.0018 12.7895 12.7895ZM12.7895 16.1136C13.0018 15.9012 13.108 15.638 13.108 15.3241C13.108 15.0102 13.0018 14.747 12.7895 14.5346C12.5771 14.3223 12.3139 14.2161 12 14.2161C11.6861 14.2161 11.4229 14.3223 11.2105 14.5346C10.9982 14.747 10.892 15.0102 10.892 15.3241C10.892 15.638 10.9982 15.9012 11.2105 16.1136C11.4229 16.3259 11.6861 16.4321 12 16.4321C12.3139 16.4321 12.5771 16.3259 12.7895 16.1136Z" fill="#E1E1E1"/>
</svg>
