<svg width="24" height="24" viewBox="0 0 24 24" fill="none" xmlns="http://www.w3.org/2000/svg">
<path d="M11.59 2C11.0377 2 10.59 2.44772 10.59 3V4.65573H7C6.44772 4.65573 6 5.10344 6 5.65573V6.85539C6 7.40768 6.44772 7.8554 7 7.8554H13.122L6.21259 16.6812C6.07484 16.8572 6 17.0742 6 17.2977V18.3613C6 18.9136 6.44772 19.3613 7 19.3613H10.59V21C10.59 21.5523 11.0377 22 11.59 22H12.4105C12.9628 22 13.4105 21.5523 13.4105 21V19.3613H17C17.5523 19.3613 18 18.9136 18 18.3613V17.1616C18 16.6094 17.5523 16.1616 17 16.1616H10.8785L17.7874 7.3358C17.9252 7.15985 18 6.94284 18 6.7194V5.65573C18 5.10344 17.5523 4.65573 17 4.65573H13.4105V3C13.4105 2.44772 12.9628 2 12.4105 2H11.59Z" fill="#E1E1E1"/>
</svg>
