<svg width="24" height="24" viewBox="0 0 24 24" fill="none" xmlns="http://www.w3.org/2000/svg">
<path d="M12 5.5C12.5523 5.5 13 5.94772 13 6.5V7.5H15C15.3905 7.5 15.745 7.72735 15.9082 8.08203C16.0714 8.43683 16.0129 8.85388 15.7588 9.15039L11.1738 14.5H15C15.5523 14.5 16 14.9477 16 15.5C16 16.0523 15.5523 16.5 15 16.5H13V17.5C13 18.0523 12.5523 18.5 12 18.5C11.4477 18.5 11 18.0523 11 17.5V16.5H9C8.60955 16.5 8.25503 16.2726 8.0918 15.918C7.92861 15.5632 7.98706 15.1461 8.24121 14.8496L12.8262 9.5H9C8.44772 9.5 8 9.05228 8 8.5C8 7.94772 8.44772 7.5 9 7.5H11V6.5C11 5.94772 11.4477 5.5 12 5.5Z" fill="#E1E1E1"/>
<path fill-rule="evenodd" clip-rule="evenodd" d="M12 1.5C17.799 1.5 22.5 6.20101 22.5 12C22.5 17.799 17.799 22.5 12 22.5C6.20101 22.5 1.5 17.799 1.5 12C1.5 6.20101 6.20101 1.5 12 1.5ZM12 3.5C7.30558 3.5 3.5 7.30558 3.5 12C3.5 16.6944 7.30558 20.5 12 20.5C16.6944 20.5 20.5 16.6944 20.5 12C20.5 7.30558 16.6944 3.5 12 3.5Z" fill="#E1E1E1"/>
</svg>
