<svg width="24" height="24" viewBox="0 0 24 24" fill="none" xmlns="http://www.w3.org/2000/svg">
<path d="M12 5.80952C12.526 5.80952 12.9524 6.23592 12.9524 6.7619V7.71429H14.8571C15.229 7.71429 15.5666 7.93081 15.7221 8.2686C15.8775 8.60651 15.8218 9.00369 15.5798 9.28609L11.2132 14.381H14.8571C15.3831 14.381 15.8095 14.8073 15.8095 15.3333C15.8095 15.8593 15.3831 16.2857 14.8571 16.2857H12.9524V17.2381C12.9524 17.7641 12.526 18.1905 12 18.1905C11.474 18.1905 11.0476 17.7641 11.0476 17.2381V16.2857H9.14286C8.771 16.2857 8.43336 16.0692 8.2779 15.7314C8.12249 15.3935 8.17815 14.9963 8.4202 14.7139L12.7868 9.61905H9.14286C8.61687 9.61905 8.19048 9.19265 8.19048 8.66667C8.19048 8.14068 8.61687 7.71429 9.14286 7.71429H11.0476V6.7619C11.0476 6.23592 11.474 5.80952 12 5.80952Z" fill="#E1E1E1"/>
<path fill-rule="evenodd" clip-rule="evenodd" d="M12 2C17.5228 2 22 6.47715 22 12C22 17.5228 17.5228 22 12 22C6.47715 22 2 17.5228 2 12C2 6.47715 6.47715 2 12 2ZM12 3.90476C7.52912 3.90476 3.90476 7.52912 3.90476 12C3.90476 16.4709 7.52912 20.0952 12 20.0952C16.4709 20.0952 20.0952 16.4709 20.0952 12C20.0952 7.52912 16.4709 3.90476 12 3.90476Z" fill="#E1E1E1"/>
</svg>
